<svg id="Layer_1" data-name="Layer 1" xmlns="http://www.w3.org/2000/svg" viewBox="0 0 782 231"><path d="M93.45,33.14a3.17,3.17,0,0,1,1.32,1,7.37,7.37,0,0,1,.52,2l1.58,17.36c0,.26-.22.44-.66.53a.77.77,0,0,1-.92-.4Q91.87,42.87,85.1,37.22T68.34,31.56a31.33,31.33,0,0,0-17.16,4.8A31.75,31.75,0,0,0,39.41,50.17a49,49,0,0,0-4.21,21,48,48,0,0,0,4.47,21.1,35.05,35.05,0,0,0,12.23,14.4,31,31,0,0,0,17.49,5.13q9.6,0,16-5.06T96.61,90.6c.08-.26.35-.35.79-.26s.65.22.65.39l-1.71,15.78a4.06,4.06,0,0,1-.46,2,4.45,4.45,0,0,1-1.38.92,65.27,65.27,0,0,1-25.11,4.87,57.17,57.17,0,0,1-25.12-5.33A41.06,41.06,0,0,1,27.05,94,40.2,40.2,0,0,1,20.87,71.8a39.15,39.15,0,0,1,6.44-22.09A43.57,43.57,0,0,1,44.93,34.52a56.16,56.16,0,0,1,25-5.46Q84.51,29.06,93.45,33.14Z" fill="#fff"/><path d="M140.26,101.51a16.06,16.06,0,0,0,.59,5.13,3.39,3.39,0,0,0,2.3,2.11,20.77,20.77,0,0,0,5.53.52h7.89a24.32,24.32,0,0,0,15.77-5.19,24.72,24.72,0,0,0,8.55-14c.09-.26.35-.37.79-.32s.66.19.66.46q-1.18,12.36-1.19,20.51a2.34,2.34,0,0,1-.39,1.51,2,2,0,0,1-1.58.46H117.64c-.17,0-.26-.26-.26-.79s.09-.79.26-.79a23.56,23.56,0,0,0,6.51-.65,4.15,4.15,0,0,0,2.76-2.57,17.35,17.35,0,0,0,.73-5.85V41.16a16.7,16.7,0,0,0-.73-5.78,4.35,4.35,0,0,0-2.82-2.57,21.39,21.39,0,0,0-6.45-.72c-.17,0-.26-.27-.26-.79s.09-.79.26-.79l6.71.13c3.86.18,7,.26,9.47.26,2.63,0,5.87-.08,9.73-.26l6.57-.13c.27,0,.4.26.4.79s-.13.79-.4.79a20.58,20.58,0,0,0-6.37.72A4.35,4.35,0,0,0,141,35.44a17.66,17.66,0,0,0-.72,5.85Z" fill="#fff"/><path d="M285.29,111.9c0,.53-.22.79-.66.79-1.66,0-4.34-.09-8-.26s-6.35-.27-8-.27q-3.29,0-7.76.27t-7,.26c-.36,0-.53-.26-.53-.79s.17-.79.53-.79a13.59,13.59,0,0,0,5.58-.85,2.91,2.91,0,0,0,1.78-2.83q0-2-2.24-6.71L249,80.48H217.18l-6.31,14.2a18.09,18.09,0,0,0-1.71,7.1,8,8,0,0,0,3.29,7q3.28,2.35,9.2,2.36c.44,0,.66.27.66.79s-.22.79-.66.79q-2.37,0-6.84-.26-5-.27-8.68-.27t-8.28.27q-4.22.25-7,.26c-.44,0-.66-.26-.66-.79s.22-.79.66-.79a12.21,12.21,0,0,0,6.18-1.44,15.25,15.25,0,0,0,4.87-5.2,94,94,0,0,0,5.65-11.11l28.27-63.64c.18-.26.57-.39,1.18-.39s1,.13,1.06.39l32.21,65q4.6,9.46,7.69,12.95c2.06,2.32,4.28,3.48,6.64,3.48C285.07,111.11,285.29,111.38,285.29,111.9ZM218.63,77.19h28.79L232.3,46.55Z" fill="#fff"/><path d="M365.76,31.3c0,.52-.09.79-.26.79q-4.33,0-9.86,4.53a45.84,45.84,0,0,0-9.86,11.64l-15,24.33V102a17.62,17.62,0,0,0,.72,5.92,4.15,4.15,0,0,0,2.76,2.5,23.56,23.56,0,0,0,6.51.65c.26,0,.39.27.39.79s-.13.79-.39.79q-4.33,0-6.71-.13l-9.6-.13-9.46.13q-2.64.14-7,.13c-.18,0-.26-.26-.26-.79s.08-.79.26-.79a23.56,23.56,0,0,0,6.51-.65,4.34,4.34,0,0,0,2.82-2.57,16.13,16.13,0,0,0,.79-5.85V75l-20-30.5q-4.47-7-7.7-9.67a9.89,9.89,0,0,0-6.24-2.69c-.26,0-.4-.27-.4-.79s.14-.79.4-.79l4.34.13c1.93.18,3.33.26,4.21.26q4.47,0,12.62-.26l8.15-.13c.18,0,.26.26.26.79s-.08.79-.26.79q-5.38,0-5.39,3.68A7.9,7.9,0,0,0,309.75,40L328.81,69.3l13.42-22q3.28-5.39,3.28-9.47,0-5.77-7.23-5.78c-.18,0-.26-.27-.26-.79s.08-.79.26-.79l6.84.13c3.68.18,7.05.26,10.12.26,1.49,0,3.29-.08,5.39-.26l4.87-.13C365.67,30.51,365.76,30.77,365.76,31.3Z" fill="#fff"/><path d="M480.29,111.9c0,.53-.09.79-.26.79q-4.35,0-7-.13l-9.47-.13-9.2.13q-2.37.14-6.71.13c-.18,0-.26-.26-.26-.79s.08-.79.26-.79c3.86,0,6.44-.44,7.76-1.31s2-2.72,2-5.52l-.13-2.24-2.63-55.75-28,65.48a1.06,1.06,0,0,1-1.05.53,1.63,1.63,0,0,1-1.18-.53l-32.88-65-1.18,50q-.14,7,2.7,10.65t8.48,3.68c.26,0,.39.27.39.79s-.13.79-.39.79c-2.37,0-4.21,0-5.53-.13l-7.23-.13-7.76.13c-1.31.09-3.15.13-5.52.13-.26,0-.39-.26-.39-.79s.13-.79.39-.79a10.07,10.07,0,0,0,8.35-3.68q3-3.68,3.09-10.65l1.19-56.54a18.36,18.36,0,0,0-5.2-6.18,11.11,11.11,0,0,0-6.51-2c-.26,0-.39-.27-.39-.79s.13-.79.39-.79l5.66.13c1.14.09,2.63.13,4.47.13l6.18-.13a21.27,21.27,0,0,1,2.63-.13,3.44,3.44,0,0,1,2.76,1.25,36.48,36.48,0,0,1,3.29,5.59l28.92,56.41,26.17-60a6.52,6.52,0,0,1,1.71-2.57,3.51,3.51,0,0,1,2.23-.72c.62,0,1.4,0,2.37.13s2.15.13,3.55.13l7.1-.13c1.14-.09,2.85-.13,5.13-.13.17,0,.26.26.26.79s-.09.79-.26.79c-4.21,0-7.25.77-9.14,2.3s-2.74,4-2.56,7.56L469.77,102a19.43,19.43,0,0,0,1.05,5.92,4.38,4.38,0,0,0,2.76,2.5,22.83,22.83,0,0,0,6.45.65C480.2,111.11,480.29,111.38,480.29,111.9Z" fill="#fff"/><path d="M516.12,108.55A39.13,39.13,0,0,1,501.39,93a44.92,44.92,0,0,1-5.19-21.36q0-13.55,6.84-23.21a42.67,42.67,0,0,1,17.55-14.53,52.49,52.49,0,0,1,21.89-4.87,40.91,40.91,0,0,1,22,5.85A39.76,39.76,0,0,1,579,50.36,43.16,43.16,0,0,1,584,70.75a40.27,40.27,0,0,1-6.31,22,45.28,45.28,0,0,1-16.89,15.78,47.08,47.08,0,0,1-23,5.79A41.48,41.48,0,0,1,516.12,108.55Zm40.37-1.71a28.6,28.6,0,0,0,9.86-12.56Q570,86,570,74.56a55.7,55.7,0,0,0-4-21.7,34.3,34.3,0,0,0-11.44-15,28.89,28.89,0,0,0-17.42-5.39q-12.75,0-19.79,9.14t-7,25.31a59.26,59.26,0,0,0,4.14,22.62,37.66,37.66,0,0,0,11.44,15.84,26,26,0,0,0,16.5,5.72A24.46,24.46,0,0,0,556.49,106.84Z" fill="#fff"/><path d="M689.36,111.9c0,.53-.14.79-.4.79H667.79q-3,0-11.24-10.52a339.79,339.79,0,0,1-19.92-29.45c-1.93.17-3.42.26-4.47.26q-2.89,0-6.84-.26V102A17.62,17.62,0,0,0,626,108a4.15,4.15,0,0,0,2.76,2.5,23.56,23.56,0,0,0,6.51.65c.18,0,.27.27.27.79s-.09.79-.27.79q-4.34,0-6.7-.13l-9.73-.13-9.47.13q-2.5.14-6.84.13c-.26,0-.39-.26-.39-.79s.13-.79.39-.79a23.56,23.56,0,0,0,6.51-.65,4.37,4.37,0,0,0,2.83-2.57,16.36,16.36,0,0,0,.79-5.85V41.16a16.7,16.7,0,0,0-.73-5.78,4.35,4.35,0,0,0-2.82-2.57,21.39,21.39,0,0,0-6.45-.72c-.17,0-.26-.27-.26-.79s.09-.79.26-.79l6.84.13c3.86.18,7,.26,9.34.26,2.89,0,6-.13,9.46-.39,1.14-.09,2.52-.18,4.15-.26s3.44-.13,5.45-.13q11.44,0,17.69,4.47a14.49,14.49,0,0,1,6.24,12.49,22.23,22.23,0,0,1-4,13,28.48,28.48,0,0,1-10.71,9.21q10.77,15.92,18,24.85T678,107.1q5.6,4,11,4C689.22,111.11,689.36,111.38,689.36,111.9ZM633,69.69q8.53,0,12.22-4.27t3.69-13.74q0-10.65-3.62-14.86t-10.45-4.21q-5.13,0-7.3,1.91t-2.17,6.9V69.17A47.32,47.32,0,0,0,633,69.69Z" fill="#fff"/><path d="M761.8,91.92a1.4,1.4,0,0,1,.73.19q.33.19.33.33a140.54,140.54,0,0,0-1.32,18.28,2.34,2.34,0,0,1-.39,1.51,2.05,2.05,0,0,1-1.58.46H702.5c-.26,0-.39-.26-.39-.79s.13-.79.39-.79a23.56,23.56,0,0,0,6.51-.65,4.15,4.15,0,0,0,2.76-2.57,17.61,17.61,0,0,0,.73-5.85V41.16a16.94,16.94,0,0,0-.73-5.78A4.35,4.35,0,0,0,709,32.81a21.44,21.44,0,0,0-6.45-.72c-.26,0-.39-.27-.39-.79s.13-.79.39-.79h54.7c.88,0,1.32.39,1.32,1.18l.26,17.1q0,.26-.72.39c-.49.09-.77,0-.86-.26q-3.15-15-18.28-15h-5.25q-4.74,0-6.71,1.71c-1.32,1.14-2,3.07-2,5.78V68.25h12.62q14.46,0,14.46-9.73c0-.27.24-.4.73-.4s.72.13.72.4L753.39,70l.13,6.18q.26,4.2.26,6.83c0,.18-.26.27-.79.27s-.78-.09-.78-.27q0-11.3-14.73-11.3H725v29.84c0,2.9.54,4.91,1.64,6s3,1.71,5.85,1.71h6.44q17.63,0,22.36-17.09C761.28,92,761.45,91.92,761.8,91.92Z" fill="#fff"/><path d="M236.49,203.55c-.05.48-.2.72-.46.72H216.84q-4.08,0-14.32-7.35-10,8.93-25.62,8.93-8.81,0-14.72-2.69a20.35,20.35,0,0,1-8.8-7,16.49,16.49,0,0,1-2.9-9.33,17.63,17.63,0,0,1,4.47-12,84.45,84.45,0,0,1,13.14-11.56q-1.84-2.9-3.94-6.57a47.12,47.12,0,0,1-2.83-7.17,25,25,0,0,1-1-7,23.61,23.61,0,0,1,3-11.83,21.27,21.27,0,0,1,8.41-8.28,25.76,25.76,0,0,1,12.68-3q7.61,0,12.28,3.35t4.67,9.79a16.39,16.39,0,0,1-3,9.53,31,31,0,0,1-6.9,7.22q-3.94,3-11.82,8.22,9.59,14.58,27.19,28.38a39.14,39.14,0,0,0,2.11-13q0-6.7-2.3-9.79T198.71,160c-.18,0-.29-.26-.33-.79s.06-.78.33-.78l30.09-.14c.26,0,.39.27.39.79s-.13.79-.39.79a17.41,17.41,0,0,0-6.18.85,5.68,5.68,0,0,0-3,2.63,30.65,30.65,0,0,0-2,5.72q-3.42,12-7.88,19.05a134,134,0,0,0,15.3,9.92,46.78,46.78,0,0,0,11,4.67C236.37,202.79,236.53,203.07,236.49,203.55Zm-36.07-8.34q-2.64-2-4.6-3.55A177.82,177.82,0,0,1,181.63,179a124.3,124.3,0,0,1-12.09-13.73q-7.5,6.83-7.49,15a18.15,18.15,0,0,0,2.89,9.85,20.46,20.46,0,0,0,8.28,7.36,26.68,26.68,0,0,0,12.35,2.76A22.54,22.54,0,0,0,200.42,195.21Zm-22.08-40a39.9,39.9,0,0,0,8.15-9.46A20.74,20.74,0,0,0,189.38,135q0-5.79-2.83-9.07a9.32,9.32,0,0,0-7.42-3.29q-8,0-8,10.52Q171.11,143.3,178.34,155.26Z" fill="#fff"/><path d="M358.1,124.78a3.2,3.2,0,0,1,1.31,1,7.88,7.88,0,0,1,.53,2l1.57,17.34c0,.27-.22.44-.66.53a.73.73,0,0,1-.91-.4q-3.42-10.77-10.19-16.42T333,123.2a31.3,31.3,0,0,0-17.15,4.8,31.67,31.67,0,0,0-11.76,13.79,49,49,0,0,0-4.2,21,47.93,47.93,0,0,0,4.46,21.09,35,35,0,0,0,12.22,14.39,31,31,0,0,0,17.48,5.12q9.58,0,16-5.06t11.24-16.09c.09-.26.35-.35.79-.26s.65.22.65.39L361,198.1a4.32,4.32,0,0,1-.46,2,4.63,4.63,0,0,1-1.38.92,65.4,65.4,0,0,1-25.1,4.86,57,57,0,0,1-25.1-5.32,41,41,0,0,1-17.21-15,40.19,40.19,0,0,1-6.18-22.14A39.12,39.12,0,0,1,292,141.33a43.44,43.44,0,0,1,17.61-15.17,56.07,56.07,0,0,1,25-5.46Q349.17,120.7,358.1,124.78Z" fill="#fff"/><path d="M401.79,200.13a39.05,39.05,0,0,1-14.72-15.5,44.88,44.88,0,0,1-5.19-21.35q0-13.54,6.83-23.2a43,43,0,0,1,17.54-14.52,52.63,52.63,0,0,1,21.88-4.86,40.9,40.9,0,0,1,21.95,5.85A39.78,39.78,0,0,1,464.6,142a43,43,0,0,1,5,20.37,40.31,40.31,0,0,1-6.3,21.94,45.41,45.41,0,0,1-16.89,15.77,47.07,47.07,0,0,1-22.93,5.78A41.35,41.35,0,0,1,401.79,200.13Zm40.34-1.7A28.55,28.55,0,0,0,452,185.88q3.61-8.28,3.61-19.71a55.78,55.78,0,0,0-4-21.68,34.36,34.36,0,0,0-11.44-15,28.86,28.86,0,0,0-17.41-5.39q-12.74,0-19.77,9.13t-7,25.3a59.19,59.19,0,0,0,4.14,22.6A37.75,37.75,0,0,0,411.51,197,26,26,0,0,0,428,202.7,24.51,24.51,0,0,0,442.13,198.43Z" fill="#fff"/><path d="M509.47,193.1a15.78,15.78,0,0,0,.59,5.13,3.35,3.35,0,0,0,2.3,2.1,20.63,20.63,0,0,0,5.52.53h7.88a24.32,24.32,0,0,0,15.77-5.19,24.77,24.77,0,0,0,8.54-14c.09-.26.35-.37.79-.33s.66.2.66.46q-1.18,12.36-1.19,20.5a2.32,2.32,0,0,1-.39,1.51,2,2,0,0,1-1.58.46H486.87q-.27,0-.27-.78c0-.53.09-.79.27-.79a23.06,23.06,0,0,0,6.5-.66,4.14,4.14,0,0,0,2.76-2.56,17.66,17.66,0,0,0,.72-5.85V132.79a17,17,0,0,0-.72-5.78,4.34,4.34,0,0,0-2.82-2.56,21.3,21.3,0,0,0-6.44-.73q-.27,0-.27-.78c0-.53.09-.79.27-.79l6.7.13c3.85.18,7,.26,9.46.26,2.63,0,5.87-.08,9.72-.26l6.57-.13c.27,0,.4.26.4.79s-.13.78-.4.78a20.56,20.56,0,0,0-6.37.73,4.33,4.33,0,0,0-2.76,2.63,17.6,17.6,0,0,0-.72,5.84Z" fill="#fff"/><path d="M571.81,129.83q-5.19,4.93-7.94,14.92c0,.18-.25.26-.73.26s-.72-.13-.72-.39q.52-5.13,1.18-13.21t.66-12.15q0-.66.72-.66t.72.66c0,1.93,2.46,2.89,7.36,2.89q11.31.39,26.42.39,7.74,0,16.42-.26l8.94-.13a29,29,0,0,0,7.29-.66,4,4,0,0,0,3-2.63c.09-.35.35-.52.79-.52s.66.17.66.52q-.39,4.08-.79,12.35t-.39,13.41c0,.26-.25.39-.73.39s-.76-.13-.85-.39q-1.32-10.12-6.18-14.92t-13.14-4.79a17,17,0,0,0-5.45.65,3.75,3.75,0,0,0-2.36,2.3,16.45,16.45,0,0,0-.59,5.19v60.58a16.25,16.25,0,0,0,.78,5.91A4.48,4.48,0,0,0,610,202a30.48,30.48,0,0,0,7.49.66c.26,0,.39.26.39.79s-.13.78-.39.78q-4.61,0-7.23-.13L599.48,204l-10.25.13c-1.84.09-4.39.13-7.63.13-.17,0-.26-.26-.26-.78s.09-.79.26-.79a31.42,31.42,0,0,0,7.56-.66,4.67,4.67,0,0,0,3.28-2.56,15.06,15.06,0,0,0,.86-5.85V132.79a13.83,13.83,0,0,0-.66-5,4,4,0,0,0-2.36-2.24,15.88,15.88,0,0,0-5.26-.65A18.44,18.44,0,0,0,571.81,129.83Z" fill="#fff"/></svg>