<svg id="Layer_1" data-name="Layer 1" xmlns="http://www.w3.org/2000/svg" viewBox="0 0 912 279"><path d="M169.11,57.5a3.13,3.13,0,0,1,1.31,1,7.48,7.48,0,0,1,.53,2l1.58,17.35c0,.27-.22.44-.66.53A.75.75,0,0,1,171,78q-3.42-10.78-10.19-16.44T144,55.93a31.35,31.35,0,0,0-17.16,4.8,31.76,31.76,0,0,0-11.76,13.8,49,49,0,0,0-4.21,21,48,48,0,0,0,4.47,21.11A35,35,0,0,0,127.56,131a31,31,0,0,0,17.49,5.12q9.58,0,16-5.06T172.26,115c.09-.26.35-.34.79-.26s.66.22.66.4L172,130.88a4.23,4.23,0,0,1-.46,2,4.63,4.63,0,0,1-1.38.92,65.45,65.45,0,0,1-25.11,4.86,57.13,57.13,0,0,1-25.12-5.32,41.13,41.13,0,0,1-17.22-15,40.15,40.15,0,0,1-6.18-22.16A39.07,39.07,0,0,1,103,74.07a43.58,43.58,0,0,1,17.62-15.19,56.29,56.29,0,0,1,25-5.45Q160.17,53.43,169.11,57.5Z"/><path d="M215.92,125.88a16.06,16.06,0,0,0,.59,5.13,3.37,3.37,0,0,0,2.3,2.1,20.63,20.63,0,0,0,5.52.53h7.89a24.28,24.28,0,0,0,15.78-5.2,24.73,24.73,0,0,0,8.55-14c.08-.26.35-.37.79-.33s.66.2.66.46q-1.19,12.36-1.19,20.51a2.35,2.35,0,0,1-.39,1.52,2.1,2.1,0,0,1-1.58.45H193.3c-.17,0-.26-.26-.26-.78s.09-.79.26-.79a23.09,23.09,0,0,0,6.51-.66,4.14,4.14,0,0,0,2.76-2.56,17.64,17.64,0,0,0,.73-5.86V65.53a17,17,0,0,0-.73-5.79,4.34,4.34,0,0,0-2.82-2.56,21.33,21.33,0,0,0-6.45-.73c-.17,0-.26-.26-.26-.79s.09-.78.26-.78L200,55c3.86.17,7,.26,9.47.26q3.95,0,9.73-.26l6.57-.13q.39,0,.39.78c0,.53-.13.79-.39.79a20.63,20.63,0,0,0-6.38.73,4.34,4.34,0,0,0-2.76,2.62,17.77,17.77,0,0,0-.72,5.86Z"/><path d="M361,136.27q0,.78-.66.78c-1.66,0-4.34-.08-8-.26s-6.36-.26-8-.26q-3.28,0-7.76.26c-3,.18-5.3.26-7,.26-.35,0-.52-.26-.52-.78s.17-.79.52-.79a13.61,13.61,0,0,0,5.59-.86,2.93,2.93,0,0,0,1.78-2.83q0-2-2.24-6.7l-10-20.25H292.84L286.53,119a18.13,18.13,0,0,0-1.71,7.1,8,8,0,0,0,3.28,7q3.28,2.37,9.21,2.37c.44,0,.66.26.66.79s-.22.78-.66.78c-1.58,0-3.86-.08-6.84-.26q-5-.25-8.68-.26t-8.28.26c-2.81.18-5.13.26-7,.26q-.66,0-.66-.78c0-.53.22-.79.66-.79a12.13,12.13,0,0,0,6.18-1.45,15.09,15.09,0,0,0,4.86-5.19,92.25,92.25,0,0,0,5.66-11.11l28.27-63.64c.17-.27.57-.4,1.18-.4s1,.13,1.06.4L346,119q4.6,9.46,7.69,13t6.64,3.49C360.73,135.48,361,135.74,361,136.27Zm-66.67-34.72h28.8L308,70.92Z"/><path d="M441.42,55.66c0,.53-.09.79-.26.79q-4.35,0-9.86,4.54a45.64,45.64,0,0,0-9.87,11.63L406.44,97V126.4a17.27,17.27,0,0,0,.73,5.92,4.15,4.15,0,0,0,2.76,2.5,23.09,23.09,0,0,0,6.51.66c.26,0,.39.26.39.79s-.13.78-.39.78c-2.9,0-5.13,0-6.71-.13l-9.6-.13-9.46.13q-2.64.14-7,.13-.27,0-.27-.78c0-.53.09-.79.27-.79a23.09,23.09,0,0,0,6.51-.66,4.34,4.34,0,0,0,2.82-2.56,16.16,16.16,0,0,0,.79-5.86V99.32l-20-30.51q-4.47-7-7.69-9.66a9.87,9.87,0,0,0-6.24-2.7c-.27,0-.4-.26-.4-.79s.13-.78.4-.78l4.34.13c1.92.17,3.33.26,4.2.26q4.47,0,12.63-.26l8.15-.13c.17,0,.26.26.26.78s-.09.79-.26.79c-3.6,0-5.39,1.23-5.39,3.68a7.81,7.81,0,0,0,1.58,4.21l19.06,29.32,13.41-22q3.28-5.4,3.29-9.47,0-5.79-7.23-5.79c-.18,0-.26-.26-.26-.79s.08-.78.26-.78l6.84.13q5.52.26,10.12.26c1.49,0,3.29-.09,5.39-.26l4.87-.13C441.33,54.88,441.42,55.14,441.42,55.66Z"/><path d="M556,136.27q0,.78-.27.78-4.33,0-7-.13l-9.47-.13-9.21.13c-1.57.09-3.81.13-6.7.13-.18,0-.26-.26-.26-.78s.08-.79.26-.79q5.77,0,7.76-1.32t2-5.52l-.13-2.24-2.63-55.75-28,65.48a1.05,1.05,0,0,1-1.05.53,1.61,1.61,0,0,1-1.19-.53L467.19,71.18l-1.18,50q-.13,7,2.69,10.65t8.49,3.69c.26,0,.39.26.39.79s-.13.78-.39.78c-2.37,0-4.21,0-5.53-.13l-7.23-.13-7.76.13c-1.31.09-3.15.13-5.52.13q-.39,0-.39-.78c0-.53.13-.79.39-.79a10.09,10.09,0,0,0,8.35-3.69q3-3.67,3.09-10.65l1.18-56.53a18.29,18.29,0,0,0-5.19-6.19,11.15,11.15,0,0,0-6.51-2c-.26,0-.39-.26-.39-.79s.13-.78.39-.78l5.65.13c1.14.08,2.63.13,4.48.13l6.18-.13a21.2,21.2,0,0,1,2.62-.13,3.46,3.46,0,0,1,2.77,1.24,36.92,36.92,0,0,1,3.28,5.59L506,118.12l26.17-60a6.37,6.37,0,0,1,1.71-2.56,3.49,3.49,0,0,1,2.23-.72c.62,0,1.4,0,2.37.13s2.15.13,3.55.13l7.1-.13c1.14-.09,2.85-.13,5.13-.13.17,0,.26.26.26.78s-.09.79-.26.79q-6.32,0-9.14,2.3t-2.56,7.56l2.89,60.09a19.06,19.06,0,0,0,1.05,5.92,4.38,4.38,0,0,0,2.76,2.5,22.34,22.34,0,0,0,6.44.66C555.86,135.48,556,135.74,556,136.27Z"/><path d="M591.78,132.91a39.1,39.1,0,0,1-14.73-15.51A44.93,44.93,0,0,1,571.86,96q0-13.55,6.83-23.21a42.91,42.91,0,0,1,17.56-14.53,52.48,52.48,0,0,1,21.89-4.86,40.91,40.91,0,0,1,22,5.85,39.69,39.69,0,0,1,14.53,15.45,43.12,43.12,0,0,1,5.06,20.38,40.28,40.28,0,0,1-6.31,22,45.39,45.39,0,0,1-16.9,15.78,47,47,0,0,1-22.94,5.78A41.39,41.39,0,0,1,591.78,132.91Zm40.36-1.71A28.53,28.53,0,0,0,642,118.65q3.62-8.3,3.61-19.73a55.69,55.69,0,0,0-4-21.69,34.32,34.32,0,0,0-11.44-15,28.82,28.82,0,0,0-17.42-5.39Q600,56.85,593,66t-7,25.32a59.25,59.25,0,0,0,4.14,22.61,37.75,37.75,0,0,0,11.44,15.85,26,26,0,0,0,16.5,5.72A24.42,24.42,0,0,0,632.14,131.2Z"/><path d="M765,136.27q0,.78-.39.78H743.45q-3,0-11.24-10.51a340.21,340.21,0,0,1-19.92-29.46q-2.89.27-4.47.27-2.9,0-6.84-.27V126.4a17.58,17.58,0,0,0,.72,5.92,4.15,4.15,0,0,0,2.76,2.5,23.09,23.09,0,0,0,6.51.66c.18,0,.26.26.26.79s-.08.78-.26.78c-2.89,0-5.13,0-6.7-.13l-9.73-.13-9.47.13q-2.51.14-6.84.13-.39,0-.39-.78c0-.53.13-.79.39-.79a23.09,23.09,0,0,0,6.51-.66,4.36,4.36,0,0,0,2.83-2.56,16.38,16.38,0,0,0,.79-5.86V65.53a17,17,0,0,0-.73-5.79,4.33,4.33,0,0,0-2.83-2.56,21.25,21.25,0,0,0-6.44-.73c-.17,0-.26-.26-.26-.79s.09-.78.26-.78l6.84.13q5.79.26,9.34.26,4.34,0,9.46-.39,1.71-.14,4.14-.27c1.63-.08,3.44-.13,5.46-.13q11.45,0,17.69,4.47a14.5,14.5,0,0,1,6.24,12.49,22.36,22.36,0,0,1-4,13,28.46,28.46,0,0,1-10.71,9.2q10.77,15.91,18,24.86t12.82,13q5.58,4,11,4C764.88,135.48,765,135.74,765,136.27ZM708.6,94.06q8.55,0,12.23-4.27T724.51,76q0-10.65-3.61-14.85T710.45,57c-3.42,0-5.86.64-7.3,1.9S701,62.46,701,65.79V93.53A47.16,47.16,0,0,0,708.6,94.06Z"/><path d="M837.46,116.28a1.46,1.46,0,0,1,.73.2c.21.13.32.24.32.33a142,142,0,0,0-1.31,18.27,2.29,2.29,0,0,1-.4,1.52,2.06,2.06,0,0,1-1.57.45H778.16q-.39,0-.39-.78c0-.53.13-.79.39-.79a23.09,23.09,0,0,0,6.51-.66,4.14,4.14,0,0,0,2.76-2.56,17.69,17.69,0,0,0,.72-5.86V65.53a17.06,17.06,0,0,0-.72-5.79,4.35,4.35,0,0,0-2.83-2.56,21.25,21.25,0,0,0-6.44-.73c-.26,0-.39-.26-.39-.79s.13-.78.39-.78h54.7c.88,0,1.31.39,1.31,1.18l.27,17.09c0,.18-.24.31-.73.39s-.76,0-.85-.26q-3.15-15-18.28-15h-5.26c-3.15,0-5.39.58-6.7,1.71s-2,3.07-2,5.79V92.61h12.63q14.46,0,14.46-9.73c0-.26.24-.39.73-.39s.72.13.72.39l-.13,11.44.13,6.18q.26,4.22.26,6.84c0,.18-.26.26-.79.26s-.79-.08-.79-.26Q827.86,96,813.14,96h-12.5v29.85q0,4.34,1.65,6.05t5.85,1.71h6.44q17.63,0,22.36-17.1C836.94,116.37,837.11,116.28,837.46,116.28Z"/><path d="M312.14,227.92c0,.48-.19.72-.46.72H292.5q-4.08,0-14.32-7.36-10,8.94-25.63,8.93-8.81,0-14.71-2.69a20.31,20.31,0,0,1-8.81-7,16.56,16.56,0,0,1-2.89-9.33,17.61,17.61,0,0,1,4.47-11.95,84.44,84.44,0,0,1,13.14-11.57c-1.23-1.93-2.54-4.11-3.94-6.57a47.45,47.45,0,0,1-2.83-7.16,25,25,0,0,1-1-7A23.74,23.74,0,0,1,239,155.05a21.25,21.25,0,0,1,8.41-8.27,25.71,25.71,0,0,1,12.68-3q7.62,0,12.29,3.35t4.66,9.79a16.36,16.36,0,0,1-2.95,9.53,30.88,30.88,0,0,1-6.9,7.23q-3.94,3-11.83,8.21,9.6,14.58,27.2,28.38a39.35,39.35,0,0,0,2.11-13q0-6.69-2.3-9.79t-7.95-3.08c-.18,0-.29-.27-.33-.79s.06-.79.33-.79l30.09-.13c.26,0,.39.26.39.79s-.13.78-.39.78a17.15,17.15,0,0,0-6.18.86,5.6,5.6,0,0,0-3,2.63,30.49,30.49,0,0,0-2,5.71q-3.42,12-7.89,19.06a137.79,137.79,0,0,0,15.31,9.92,46.8,46.8,0,0,0,11,4.66C312,227.15,312.19,227.44,312.14,227.92Zm-36.06-8.35c-1.76-1.31-3.29-2.5-4.6-3.55a179.69,179.69,0,0,1-14.2-12.68,124.3,124.3,0,0,1-12.08-13.73q-7.5,6.84-7.49,15a18.18,18.18,0,0,0,2.89,9.86,20.51,20.51,0,0,0,8.28,7.35,26.68,26.68,0,0,0,12.35,2.76A22.58,22.58,0,0,0,276.08,219.57ZM254,179.62a39.7,39.7,0,0,0,8.15-9.46A20.71,20.71,0,0,0,265,159.39c0-3.85-1-6.88-2.83-9.07a9.31,9.31,0,0,0-7.42-3.28q-8,0-8,10.51Q246.77,167.68,254,179.62Z"/><path d="M433.75,149.14a3.17,3.17,0,0,1,1.32,1,7.37,7.37,0,0,1,.52,2l1.58,17.35c0,.26-.22.44-.66.52a.75.75,0,0,1-.92-.39q-3.42-10.77-10.18-16.43t-16.75-5.65a31.27,31.27,0,0,0-17.15,4.8,31.76,31.76,0,0,0-11.76,13.8,48.92,48.92,0,0,0-4.21,21A48,48,0,0,0,380,208.21a35,35,0,0,0,12.22,14.38,31,31,0,0,0,17.48,5.13q9.59,0,16-5.06t11.24-16.1c.08-.26.35-.35.79-.26s.65.22.65.39l-1.71,15.77a4.06,4.06,0,0,1-.46,2,4.45,4.45,0,0,1-1.38.92,65.17,65.17,0,0,1-25.09,4.86,57,57,0,0,1-25.1-5.32,41,41,0,0,1-17.21-15,40.16,40.16,0,0,1-6.18-22.14,39.09,39.09,0,0,1,6.44-22.07,43.46,43.46,0,0,1,17.61-15.18,56.17,56.17,0,0,1,25-5.45Q424.82,145.07,433.75,149.14Z"/><path d="M477.44,224.5A39.12,39.12,0,0,1,462.73,209a44.73,44.73,0,0,1-5.19-21.35q0-13.53,6.83-23.19a42.76,42.76,0,0,1,17.54-14.52,52.44,52.44,0,0,1,21.88-4.86,40.92,40.92,0,0,1,21.94,5.84,39.64,39.64,0,0,1,14.52,15.44,43.11,43.11,0,0,1,5.06,20.37A40.27,40.27,0,0,1,539,208.67a45.28,45.28,0,0,1-16.88,15.76,47,47,0,0,1-22.93,5.78A41.44,41.44,0,0,1,477.44,224.5Zm40.34-1.71a28.51,28.51,0,0,0,9.86-12.55q3.61-8.28,3.61-19.71a55.63,55.63,0,0,0-4-21.68,34.33,34.33,0,0,0-11.43-15,28.86,28.86,0,0,0-17.41-5.39q-12.75,0-19.77,9.14t-7,25.29a59.16,59.16,0,0,0,4.14,22.6,37.72,37.72,0,0,0,11.43,15.84,26,26,0,0,0,16.49,5.71A24.4,24.4,0,0,0,517.78,222.79Z"/><path d="M585.12,217.47a15.69,15.69,0,0,0,.6,5.12,3.37,3.37,0,0,0,2.3,2.11,20.59,20.59,0,0,0,5.51.52h7.89A24.34,24.34,0,0,0,617.19,220a24.74,24.74,0,0,0,8.54-14c.08-.26.35-.37.79-.33s.65.2.65.46Q626,218.52,626,226.67a2.34,2.34,0,0,1-.39,1.51,2.05,2.05,0,0,1-1.58.46h-61.5c-.17,0-.26-.26-.26-.79s.09-.79.26-.79a23.09,23.09,0,0,0,6.51-.66,4.12,4.12,0,0,0,2.76-2.56,17.66,17.66,0,0,0,.72-5.85V157.16a17,17,0,0,0-.72-5.78,4.37,4.37,0,0,0-2.83-2.57,21.27,21.27,0,0,0-6.44-.72c-.17,0-.26-.26-.26-.79s.09-.79.26-.79l6.71.13q5.78.27,9.46.27,3.93,0,9.72-.27l6.57-.13c.26,0,.39.27.39.79s-.13.79-.39.79a20.58,20.58,0,0,0-6.37.72,4.33,4.33,0,0,0-2.76,2.63,17.61,17.61,0,0,0-.73,5.85Z"/><path d="M647.47,154.2q-5.19,4.92-8,14.91,0,.27-.72.27c-.48,0-.72-.13-.72-.4.35-3.41.74-7.82,1.18-13.2s.66-9.44.66-12.16c0-.43.24-.66.72-.66s.72.23.72.66q0,2.9,7.36,2.89,11.29.41,26.41.4,7.75,0,16.43-.27l8.93-.13a29.64,29.64,0,0,0,7.3-.65,4,4,0,0,0,3-2.63.71.71,0,0,1,.79-.53c.44,0,.66.18.66.53q-.41,4.07-.79,12.35T711,169c0,.27-.24.4-.72.4s-.77-.13-.85-.4q-1.32-10.11-6.18-14.91t-13.14-4.8a16.69,16.69,0,0,0-5.45.66,3.76,3.76,0,0,0-2.37,2.3,16.71,16.71,0,0,0-.59,5.19V218a16.31,16.31,0,0,0,.79,5.92,4.47,4.47,0,0,0,3.15,2.49,30.59,30.59,0,0,0,7.49.66c.27,0,.4.26.4.79s-.13.79-.4.79q-4.59,0-7.22-.13l-10.78-.13-10.25.13q-2.76.13-7.62.13c-.17,0-.26-.26-.26-.79s.09-.79.26-.79a31.42,31.42,0,0,0,7.56-.66,4.64,4.64,0,0,0,3.28-2.56A15.06,15.06,0,0,0,669,218V157.16a13.89,13.89,0,0,0-.66-5,4,4,0,0,0-2.37-2.23,15.54,15.54,0,0,0-5.25-.66A18.39,18.39,0,0,0,647.47,154.2Z"/></svg>