<svg id="Layer_1" data-name="Layer 1" xmlns="http://www.w3.org/2000/svg" viewBox="0 0 400 400"><defs><style>.cls-1{fill:#2c2e27;}</style></defs><path class="cls-1" d="M394.23,317c-10.87,0-21.05,0-31.23-.05a2.84,2.84,0,0,1-1.86-1Q332.64,283,304.21,250c-16.61-19.29-33.13-38.67-49.76-57.94s-33.27-38.35-49.92-57.52c-1.51-1.74-3-3.47-4.65-5.32-4.87,5.56-9.79,11.1-14.65,16.7q-16.87,19.47-33.72,39-16.71,19.33-33.42,38.69-18.61,21.58-37.2,43.2l-32.7,37.92c-3.21,3.71-6.41,7.44-9.68,11.1a3.25,3.25,0,0,1-2.06,1.09c-10,.06-20.09,0-30.13,0-.12,0-.23-.11-.55-.26L200,91.41Z"/><path class="cls-1" d="M199.89,54.63,105.82,163.68l-16.1-18.63L199.91,17,309.84,145.2l-15.93,18.52Z"/><path class="cls-1" d="M272.71,347.43l-2.92.3v2.45l1.94.41v2a4,4,0,0,0-1,.22c-.38.2-.94.5-1,.8a1.31,1.31,0,0,0,.73,1c2.07.73,2.46,2.32,2.45,4.26,0,4.56,0,9.11,0,13.91,3.78,0,7.11,1.05,9.23,4.15,1.15,1.69,1.72,3.77,2.73,6.07H97.4c-.26-5.64,3.34-9,11.2-10.4V353.27l4.65-.21V319.37l4.49-.2c.06-.63.17-1.24.17-1.85,0-7.92,0-15.84,0-23.77a4,4,0,0,0-.45-2c-3.25-5-2.65-8,2.52-11.34-.5-1.67-1-3.42-1.55-5.16s-1-3.41-1.63-5.4l13-4.05c1.14,3.61,2.23,7,3.38,10.69,2.17-.65,4.2-1.25,6.23-1.88,9.81-3,19.61-6.08,29.43-9.07a3.36,3.36,0,0,0,2.49-2.23,13,13,0,0,1,19.85-6,3.14,3.14,0,0,0,2.26.54q21.39-6.49,42.73-13.13a6.45,6.45,0,0,0,.92-.48q-1.44-4.69-2.87-9.37c-1.85-6-3.64-12-5.59-18a3.42,3.42,0,0,1,1.15-4.28c3.56-3,7-6.08,10.47-9.16,1.29-1.13,2.56-1.4,3.64.14,6.17,8.83,12.63,17.48,18.34,26.6a53.29,53.29,0,0,1,7.83,29c-.05,13.06-.27,26.12-.46,39.18a3,3,0,0,0,1.6,3.12c1.53.82,1.4,4.37-.16,5.22a2.64,2.64,0,0,0-1.44,2.77c0,10.64-.05,21.27.1,31.91,0,1.36,1.12,2.71,1.76,4.06C271.8,345.86,272.18,346.47,272.71,347.43Zm-8,0c.28-.89.28-1.72.7-2.09a5.57,5.57,0,0,0,2.1-4.34q0-15.94,0-31.9a2.51,2.51,0,0,0-1.36-2.59c-1.37-.76-1.72-4.32-.41-5,1.92-1,1.8-2.45,1.77-4.1,0-2.21-.08-4.43,0-6.64.05-1.33-.34-1.84-1.75-2-4.32-.46-8.62-1.17-12.94-1.66a3.41,3.41,0,0,1-3.28-2.77c-2.11-7.11-4.33-14.18-6.52-21.27-.62-2-1.28-4-1.95-6.12-.77.21-1.31.33-1.85.5-13.28,4.08-26.56,8.2-39.86,12.23-1.95.59-3.49,1.25-4,3.5a4.66,4.66,0,0,1-1.68,2.67c-3.07,2-2.59,4.84-2,7.74a10.9,10.9,0,0,1,.33,2.11c0,1.59.81,2,2.32,2,2.71-.11,5.43.05,8.13-.07,1.83-.07,2.66.5,2.53,2.42-.11,1.7.09,3.43-.05,5.13a21.48,21.48,0,0,1-.83,3.39c9.46,24.28,19.47,48.61,29.44,73a2,2,0,0,0,2.29,1.36c8.92,0,17.84,0,26.76,0a15.49,15.49,0,0,0,1.79-.21v-2.45c0-4.06-.12-8.14.09-12.2.05-1.07,1.05-2.13,1.7-3.14a9.23,9.23,0,0,1,1.28-1.38c-.57-.27-1.14-.53-1.7-.81a3.62,3.62,0,0,1-.41-.3l.11-1.78,2-.46-.13-2.43ZM127.33,303.79,124,293.31h-4.2v25.83l4.55.24v33.86H129v19.59c2-.24,4,1.05,5.14-1.8,6.83-16.92,13.8-33.78,20.72-50.67l9-21.92-.56,0a15.34,15.34,0,0,1-.84-3c-.13-1.84.06-3.71-.05-5.56s.73-2.36,2.42-2.31c2.78.09,5.57,0,8.35.06,1.12,0,1.67-.29,1.79-1.51.18-2,.59-3.95.84-5.93.33-2.58-.33-3.09-2.89-2.31l-28.39,8.75L137.15,289l3.24,10.73ZM220,356.6c-1.39-4-2.78-7.82-4-11.66a2.26,2.26,0,0,0-2.59-1.84c-5.92.09-11.84,0-17.76,0q-20.76,0-41.51,0c-.76,0-2,.23-2.2.69-1.61,4.15-3,8.37-4.55,12.74Zm-7.49-21.44c-1.4-4-2.81-7.82-4-11.68-.48-1.52-1.26-1.88-2.77-1.88-14,.06-27.95,0-41.93,0-4.22,0-4.23,0-5.58,3.9-1.09,3.14-2.16,6.29-3.31,9.63Zm-70.78,37.61h83.91c-.68-2-1.43-3.75-1.88-5.59s-1.43-2.64-3.54-2.63c-17.41.1-34.81.06-52.22.06-7.2,0-14.41,0-21.61,0-.7,0-1.81.39-2,.9C143.41,367.81,142.68,370.19,141.77,372.77Zm20.64-59.08h42.67c-1.8-5.11-3.49-10-5.28-14.88a1.88,1.88,0,0,0-1.48-.81q-14.55-.08-29.1,0a2.08,2.08,0,0,0-1.61.93C165.84,303.75,164.19,308.59,162.41,313.69Zm-47.08,7.41V353h7V321.1Zm68.18-61.85a8.49,8.49,0,1,0,8.55,8.54A8.47,8.47,0,0,0,183.51,259.25Z"/></svg>