<svg id="Layer_1" data-name="Layer 1" xmlns="http://www.w3.org/2000/svg" viewBox="0 0 32.5 31.5"><defs><style>.cls-1{fill:#2c2e27;}</style></defs><path class="cls-1" d="M32.25,25c-.9,0-1.73,0-2.57,0a.27.27,0,0,1-.16-.08l-4.69-5.43c-1.36-1.59-2.72-3.19-4.09-4.77S18,11.56,16.62,10c-.12-.15-.25-.29-.38-.44-.4.46-.81.91-1.21,1.38l-2.77,3.21L9.5,17.31,6.44,20.87,3.74,24c-.26.3-.52.61-.79.91a.26.26,0,0,1-.17.09C2,25,1.12,25,.3,25l0,0,16-18.56Z"/><path class="cls-1" d="M16.24,3.39l-7.75,9L7.17,10.84,16.24.29,25.3,10.85,24,12.38Z"/><g id="wuEvTQ.tif"><path class="cls-1" d="M16,16.17h.47l.07,0,.58,0a7.22,7.22,0,0,1,1.21.25,7.31,7.31,0,0,1,3.34,2.05,7.4,7.4,0,0,1,2,4.52,7.72,7.72,0,0,1,0,1.36,6.86,6.86,0,0,1-.22,1.2A7.47,7.47,0,0,1,20,30.17a7.29,7.29,0,0,1-3.58,1,6.75,6.75,0,0,1-1.1-.05,7.57,7.57,0,0,1-3.5-1.38A7.56,7.56,0,0,1,9.6,27.16a7.19,7.19,0,0,1-.84-3.07l0-.17v-.45l0-.22c0-.18,0-.36.05-.55a7.55,7.55,0,0,1,3.5-5.39,7.14,7.14,0,0,1,2.66-1,6.38,6.38,0,0,1,1-.1Zm-3.72,6.18-.05-.09a.56.56,0,0,0-.4-.3.92.92,0,0,0-.33,0,.61.61,0,0,0-.18.05.68.68,0,0,0-.34.33s0,0,0,.05,0,.19,0,.28a.47.47,0,0,0,0,.17.24.24,0,0,0,.38.08l.09-.09a.33.33,0,0,1,.26-.07v0a.44.44,0,0,0,.06.3l.1.17.14.23a.69.69,0,0,1,.08.28c0,.16.07.21.23.19h0l.23-.09.22-.09a1.13,1.13,0,0,1,.63,0,2.81,2.81,0,0,1,1.2.62l.21.19.31.25a1.75,1.75,0,0,0,.71.35l.1,0a.35.35,0,0,1,.22.42,1.07,1.07,0,0,1-.14.35,1.65,1.65,0,0,0-.2.72.61.61,0,0,1-.11.31,2.11,2.11,0,0,1-.19.23l-.12.14a15.39,15.39,0,0,0-1.07,1.79l-.12.24a.58.58,0,0,0,0,.5s0,.06.06.06l.06,0a6.22,6.22,0,0,0,1.61.25,6.45,6.45,0,0,0,1.16-.06,6.9,6.9,0,0,0,1.27-.3,6.31,6.31,0,0,0,2.35-1.52l.19-.18,0-.05a1.5,1.5,0,0,1-.26-.36c0-.08-.08-.16-.12-.24A3.82,3.82,0,0,1,20.3,27a1.52,1.52,0,0,1,0-1.09.33.33,0,0,0,0-.26.88.88,0,0,0-.05-.15c-.05-.12-.09-.23-.14-.34a0,0,0,0,0,0,0l-.18-.48a.57.57,0,0,0-.08-.13.3.3,0,0,0-.23-.13,1,1,0,0,0-.24,0l-.44,0a1,1,0,0,1-.81-.28A1.35,1.35,0,0,1,17.78,23a1.68,1.68,0,0,1,.22-.6c.12-.19.25-.37.38-.56a1.3,1.3,0,0,1,.26-.31h0a.22.22,0,0,0,0-.29A.92.92,0,0,1,18.6,21a.38.38,0,0,1,.18-.46.92.92,0,0,1,.33-.11l.06,0a1,1,0,0,0,0-.18,1,1,0,0,0-.05-.24.3.3,0,0,0-.26-.23l-.11,0a.27.27,0,0,1,.05-.18l.13-.15.15-.15c.06-.07.06-.08.15-.05a.25.25,0,0,1,.15.1.41.41,0,0,1,.05.09.49.49,0,0,0,.16.16.28.28,0,0,0,.13,0c.12,0,.19-.05.25-.15a.24.24,0,0,0,0-.27l-.07-.12a.25.25,0,0,1,0-.34.9.9,0,0,1,.27-.2l0,0,.08-.07,0,0a11.58,11.58,0,0,0-1.06-.65c-.17-.09-.35-.16-.53-.24,0,0-.05,0-.07,0s-.17.09-.19.19h0a1.57,1.57,0,0,1-.87.62l-.49.17a.86.86,0,0,0-.43.35.21.21,0,0,1-.16.11.49.49,0,0,1-.33-.09.33.33,0,0,1-.13-.43,1.15,1.15,0,0,0,.09-.33.39.39,0,0,0-.21-.4l-.21-.09-.12,0A5.68,5.68,0,0,1,17,17.12h-.72a7.11,7.11,0,0,0-.92.06,6.52,6.52,0,0,0-1.61.44,5,5,0,0,0-1,.57s-.05,0-.06.06.05,0,.07,0a3,3,0,0,0,.42,0,3.08,3.08,0,0,0,.88-.31l.22-.08a1.55,1.55,0,0,1,.48,0,.94.94,0,0,1,.37.11.5.5,0,0,1,.26.4s0,0,0,.06a.27.27,0,0,1-.09.28.8.8,0,0,1-.21.15c-.09,0-.19.08-.28.12s-.07,0-.08.08a1.4,1.4,0,0,1,.24.15,1,1,0,0,1,.23.32,1.18,1.18,0,0,1,.08.74.09.09,0,0,1-.05.08.27.27,0,0,1-.26,0l-.16-.13-.09-.09c-.05,0-.09,0-.14,0l-.14.09-.56.46-.19.15c-.14.1-.28.2-.41.31a2.78,2.78,0,0,0-.87,1.24Zm1.3,7.44h0l-.1-.28a5.66,5.66,0,0,1-.26-1.68s0-.08,0-.12-.05-.29-.07-.44a1.25,1.25,0,0,0-.43-.79,3.62,3.62,0,0,1-.38-.41,1.58,1.58,0,0,1-.24-.39,1,1,0,0,1-.05-.57,1.69,1.69,0,0,1,.2-.43,1,1,0,0,0,.13-.27c0-.13,0-.21-.14-.26a1.2,1.2,0,0,1-.39-.2,2.92,2.92,0,0,1-.28-.21c-.12-.09-.23-.19-.36-.27a1.36,1.36,0,0,0-.65-.25.48.48,0,0,1-.43-.45.27.27,0,0,0-.08-.17s0,0,0,0l-.16-.07a.16.16,0,0,0-.12,0,7.18,7.18,0,0,0,.09,2.73,6.59,6.59,0,0,0,1.72,3.13A7.1,7.1,0,0,0,13.61,29.79Zm8.57-8.36a1.11,1.11,0,0,1-.48-.13l-.17-.07a1.15,1.15,0,0,0-.66-.06,3.1,3.1,0,0,0-.52.15l-.06,0,.09.08a1,1,0,0,0,.32.18,2,2,0,0,0,1,.06.77.77,0,0,0,.3-.11A.36.36,0,0,0,22.18,21.43Z"/></g></svg>