<svg id="Layer_1" data-name="Layer 1" xmlns="http://www.w3.org/2000/svg" viewBox="0 0 180 32"><defs><style>.cls-1{font-size:12.61px;font-family:SFProDisplay-Regular, SF Pro Display;}.cls-1,.cls-3{fill:#2c2e27;}.cls-2{letter-spacing:-0.1em;}.cls-4{fill:#ebba20;}</style></defs><text class="cls-1" transform="translate(25.84 20.11)">ME<tspan class="cls-2" x="17.45" y="0">T</tspan><tspan x="23.54" y="0">AMORPHIC HOLDINGS</tspan></text><path class="cls-3" d="M24.81,20.1H23.13A.12.12,0,0,1,23,20Q21.49,18.27,20,16.49l-2.68-3.12-2.69-3.1L14.34,10l-.79.9L11.74,13l-1.8,2.09-2,2.32c-.58.69-1.17,1.37-1.76,2.05-.17.2-.34.4-.52.59a.15.15,0,0,1-.11.06q-.81,0-1.62,0h0L14.35,8Z"/><path class="cls-3" d="M14.34,6,9.28,11.84l-.87-1,5.94-6.9,5.92,6.9-.86,1Z"/><g id="wuEvTQ.tif"><path class="cls-4" d="M14.21,14.32h.35l.38,0a5.27,5.27,0,0,1,.79.16,4.93,4.93,0,0,1,3.52,4.3,4.42,4.42,0,0,1,0,.89,3.56,3.56,0,0,1-.14.78,4.89,4.89,0,0,1-2.27,3,4.84,4.84,0,0,1-2.34.67,4.35,4.35,0,0,1-.72,0A4,4,0,0,1,13,24a4.72,4.72,0,0,1-1.51-.74A4.89,4.89,0,0,1,10,21.5a4.78,4.78,0,0,1-.55-2,.43.43,0,0,0,0-.11v-.3a.59.59,0,0,0,0-.14c0-.12,0-.24,0-.36a5,5,0,0,1,.27-1.08,4.9,4.9,0,0,1,2-2.45,4.83,4.83,0,0,1,1.74-.66,4.5,4.5,0,0,1,.63-.07Zm-2.43,4,0-.06a.38.38,0,0,0-.26-.2.5.5,0,0,0-.21,0,.27.27,0,0,0-.12,0,.45.45,0,0,0-.23.22s0,0,0,0,0,.12,0,.18a.2.2,0,0,0,0,.11.15.15,0,0,0,.24.06l.06-.06a.22.22,0,0,1,.17-.05v0a.34.34,0,0,0,0,.2l.06.11.1.15a.41.41,0,0,1,.05.18c0,.11,0,.14.15.13h0l.15-.06.14-.05a.81.81,0,0,1,.41,0,1.82,1.82,0,0,1,.79.41l.14.12.2.17a1.53,1.53,0,0,0,.46.23l.07,0a.22.22,0,0,1,.14.28.73.73,0,0,1-.09.23,1.06,1.06,0,0,0-.13.46.35.35,0,0,1-.07.2,1,1,0,0,1-.13.16l-.07.09a8.22,8.22,0,0,0-.7,1.17.8.8,0,0,0-.08.16.36.36,0,0,0,0,.32s0,0,0,0l0,0a4.6,4.6,0,0,0,1,.16,3.88,3.88,0,0,0,.76,0,4,4,0,0,0,.83-.2,4.12,4.12,0,0,0,1.54-1l.12-.12s0,0,0,0a.78.78,0,0,1-.16-.24,1.09,1.09,0,0,1-.08-.15A2.43,2.43,0,0,1,17,21.4a.94.94,0,0,1,0-.7.28.28,0,0,0,0-.18l0-.1-.09-.21v0l-.12-.31a.41.41,0,0,0-.05-.09.18.18,0,0,0-.15-.08h-.15l-.29,0a.61.61,0,0,1-.53-.19.88.88,0,0,1-.24-.77.93.93,0,0,1,.15-.39l.24-.36a.72.72,0,0,1,.18-.21h0a.14.14,0,0,0,0-.19.47.47,0,0,1-.06-.15.24.24,0,0,1,.12-.3.52.52,0,0,1,.21-.07h0a.74.74,0,0,1,0-.12.75.75,0,0,0,0-.16.18.18,0,0,0-.17-.15H16a.21.21,0,0,1,0-.12l.09-.1.09-.1s0,0,.1,0a.14.14,0,0,1,.1.07l0,.05a.27.27,0,0,0,.1.11.11.11,0,0,0,.08,0,.18.18,0,0,0,.17-.1.19.19,0,0,0,0-.18l-.05-.08a.17.17,0,0,1,0-.22.55.55,0,0,1,.17-.13h0l.06-.05,0,0a6.17,6.17,0,0,0-.7-.42l-.34-.16h0c-.05,0-.11.06-.12.13h0a1.07,1.07,0,0,1-.57.41l-.32.11a.62.62,0,0,0-.28.23.14.14,0,0,1-.1.07.33.33,0,0,1-.22-.06.23.23,0,0,1-.09-.28.79.79,0,0,0,.06-.22.26.26,0,0,0-.13-.26L14,15.26l-.08,0a3.88,3.88,0,0,1,.93-.3h-.46a4.07,4.07,0,0,0-.61.05,4.29,4.29,0,0,0-1.05.28,3.48,3.48,0,0,0-.68.38s0,0,0,0h0l.27,0a2.1,2.1,0,0,0,.58-.2l.14,0a.85.85,0,0,1,.32,0,.57.57,0,0,1,.24.08.32.32,0,0,1,.17.26v0a.16.16,0,0,1-.06.18l-.13.1-.19.07s0,0,0,.06l.16.1a.59.59,0,0,1,.15.2.82.82,0,0,1,.05.49.05.05,0,0,1,0,.05.17.17,0,0,1-.17,0l-.1-.09-.07-.06s-.06,0-.09,0a.47.47,0,0,0-.09.06l-.36.3-.13.09-.27.21a1.87,1.87,0,0,0-.57.81S11.78,18.35,11.78,18.36Zm.84,4.87h0L12.57,23a3.66,3.66,0,0,1-.18-1.09v-.08a2.93,2.93,0,0,0-.05-.29.83.83,0,0,0-.27-.52,1.66,1.66,0,0,1-.26-.27,1,1,0,0,1-.15-.25.59.59,0,0,1,0-.37.79.79,0,0,1,.13-.28,1.42,1.42,0,0,0,.08-.18.12.12,0,0,0-.09-.17.91.91,0,0,1-.26-.13l-.18-.13c-.08-.06-.15-.13-.23-.18a.84.84,0,0,0-.43-.16.33.33,0,0,1-.28-.3.14.14,0,0,0,0-.11l0,0-.1-.05s0,0-.08,0a4.69,4.69,0,0,0,.06,1.79,4.27,4.27,0,0,0,1.12,2.05A5,5,0,0,0,12.62,23.23Zm5.61-5.47a.84.84,0,0,1-.32-.08l-.11-.05a.79.79,0,0,0-.43,0,1.91,1.91,0,0,0-.34.1l0,0,.06.05a.53.53,0,0,0,.21.11,1.28,1.28,0,0,0,.67.05l.2-.07A.28.28,0,0,0,18.23,17.76Z"/></g></svg>