<svg id="Layer_1" data-name="Layer 1" xmlns="http://www.w3.org/2000/svg" viewBox="0 0 400 400"><defs><style>.cls-1{fill:#2c2e27;}</style></defs><path class="cls-1" d="M395,313.66c-10.91,0-21.13,0-31.35,0a2.92,2.92,0,0,1-1.87-1q-28.62-33.06-57.16-66.17c-16.68-19.37-33.26-38.82-50-58.17s-33.4-38.5-50.11-57.74c-1.51-1.75-3-3.49-4.67-5.35-4.89,5.58-9.83,11.15-14.7,16.77q-17,19.54-33.86,39.13-16.78,19.42-33.55,38.84Q99.08,241.61,80.42,263.3,64,282.35,47.59,301.37c-3.22,3.73-6.43,7.47-9.72,11.15a3.23,3.23,0,0,1-2.07,1.09c-10.08.07-20.16,0-30.25,0-.11,0-.23-.1-.55-.26L200,87.2Z"/><path class="cls-1" d="M199.89,50.28,105.45,159.76l-16.16-18.7L199.91,12.5,310.27,141.2l-16,18.6C262.73,123.19,231.4,86.83,199.89,50.28Z"/><path class="cls-1" d="M285.44,362.49l59.05,1.31.07.63c-2.76.38-5.52.81-8.29,1.13-43.13,5-86.45,5.06-129.77,4.92-32.38-.1-64.76-.33-97.13-.88C99,369.42,88.73,368,78.42,367.13c-7.46-.66-14.91-1.41-22.36-2.16a9.71,9.71,0,0,1-3.88-1.13l59-1.39c-1.09-6.78-1.76-13.32-3.26-19.67-2.45-10.41-5.76-20.62-8.07-31.06-1.42-6.4-1.71-13.06-2.34-19.61A3,3,0,0,1,99,289.82c9.92-4.23,19.77-8.69,29.88-12.41,21.28-7.82,43.32-12.86,65.66-16.36,5.25-.82,11,.56,16.34,1.55a400.27,400.27,0,0,1,72.73,20.72A152,152,0,0,1,297.38,290a2.8,2.8,0,0,1,1.34,2.11,157,157,0,0,1-6.53,36.77c-3.06,9.86-6,19.78-6.56,30.19C285.58,360.11,285.51,361.17,285.44,362.49Zm-133.17-54c5.33,2.89,8.27,8.29,7.75,13-.07.57.17,1.51.56,1.71a2,2,0,0,0,1.82-.31,5.09,5.09,0,0,0,1.56-2.38c1.27-5.68-1-10.5-4.46-14.63a16.31,16.31,0,0,0-7.09-4.79c-3.08-1-4.72.7-4.37,4a23.36,23.36,0,0,0,5.45,12.19ZM242.6,317l.69.33a98.73,98.73,0,0,0,4.16-10.5c.46-1.63,0-4.94-.85-5.22-1.75-.59-4,.24-6,.64a4.42,4.42,0,0,0-1.67,1.19,21.68,21.68,0,0,0-7.22,14.14c-.18,1.51.6,3.24,1.27,4.72.26.58,1.43.76,2.19,1.12a7.74,7.74,0,0,0,.57-2.26c-.36-4.48,3.37-10.59,8.15-12.38Zm-41.66,45.54c-.9-17.09-1.79-33.95-2.68-50.81h-.51c-.89,16.88-1.77,33.75-2.66,50.81Z"/><path class="cls-1" d="M141.35,267.57a78.55,78.55,0,0,1,2.05-8.51c.74-2.14,0-3.3-1.68-4-5.64-2.48-11.35-4.81-17-7.27-1.37-.59-3.59-1.3-3.74-2.22a23.66,23.66,0,0,1,.15-8.76c.18-.81,3.06-1.31,4.74-1.47,4.13-.37,8.27-.45,12.41-.66s8.06-.42,12.22-.64c0-2.17,0-4.2,0-6.23-.06-3.76.62-4.52,4.41-4.52,9.28,0,18.55,0,27.83,0,1.36,0,2.72-.17,4.12-.26,1.51-10.34,3-20.44,4.48-30.73-2.47-.42-5.55-.37-5.19-3.83s3.43-2.83,5.78-3c1.72-2.3-1.62-6.6,3.36-7.88v7.71h4.85v-8.24c5.22,1.46,1.7,5.75,3.5,8.39,2.23.46,5.9-.94,6.44,3.28.25,1.89-1.41,2.91-5.29,3.5,1.26,10,2.52,20,3.84,30.53h3c8.88,0,17.76,0,26.65,0,6,0,7,1.1,6.85,7.13,0,1.26,0,2.52,0,4,7.83.43,15.58,1,23.34,1.22,6.8.23,7,.48,7.06,7.24,0,3.35-1.2,4.69-4.36,5.74-5.74,1.91-11.25,4.5-16.8,6.93-1.65.72-2.42,1.89-1.69,4a76,76,0,0,1,1.92,8.41c-12.47-3-25-6-37.56-8.87-5.75-1.31-11.55-2.72-17.4-3.08-4.52-.27-9.21.66-13.69,1.65C171.08,260.54,156.31,264.09,141.35,267.57ZM233,239.14c.58-4.49.58-4.49-3.45-4.49-1.28,0-2.56.09-3.83,0-1.74-.15-2.45.44-2.44,2.29s.75,2.36,2.49,2.26C228.1,239.05,230.45,239.14,233,239.14Zm-66.37.07h0c.69,0,1.37,0,2.06,0,1.71.1,3,0,3-2.38,0-2.27-1.3-2.23-2.87-2.19s-3.14.07-4.7,0-2.54.28-2.55,2.23.75,2.45,2.45,2.33C164.86,239.15,165.75,239.21,166.63,239.21Zm52.26,7.73c-.93-1.86-1.39-4.08-2.23-4.23-2.62-.48-5.39-.18-8.14-.18v4.41Zm-16.49-12h-9.24V239h9.24Zm-24.53-.16v4.2H187v-4.2Zm40,.08h-9.28v3.71c.22.18.3.28.37.29,1.86.12,3.72.24,5.58.33C218.45,239.35,218.52,239.26,217.83,234.82Zm5.73,8.1v4h9.55v-4Zm-30.47,4h9.53v-3.83h-9.53Zm-21.58-3.89h-9.74v3.86h9.74Zm15.58,0h-9.34V247h9.34Z"/><path class="cls-1" d="M276,376.16a1046,1046,0,0,1-152.08,0A1332.6,1332.6,0,0,1,276,376.16Z"/><path class="cls-1" d="M144.64,385a1065,1065,0,0,1,116.76,0A682.55,682.55,0,0,1,144.64,385Z"/></svg>