<svg id="Layer_1" data-name="Layer 1" xmlns="http://www.w3.org/2000/svg" viewBox="0 0 400 400"><defs><style>.cls-1{fill:#2c2e27;}</style></defs><path class="cls-1" d="M179.31,166c4.22,0,8.37,0,12.52.06.42,0,1.16.91,1.18,1.42a34.65,34.65,0,0,1-.3,4.37,42,42,0,0,0,13.65,0c.11-1.92.21-3.78.32-5.71h14v5c2.47,1.72,2.78,4.43.37,6.49a2.71,2.71,0,0,0-.89,2.93c1.14,8.06,2.27,16.12,3.44,24.18,1.15,7.91,2.34,15.81,3.55,23.95h6.11v17.2h-4.53c2.65,22.06,5.27,43.93,7.9,65.86h2.5V301h10.75v10.74h40.88v10.32h17.35v8.7h23.23c-62.32,66.83-182.2,80-262.42.18H91.88v-8.85h16.91v-10.2h41V301h10.63v10.72h2.61c2.57-21.91,5.14-43.78,7.73-65.82h-4.65V228.75h6c.93-5.9,1.86-11.63,2.72-17.37,1.37-9.16,2.7-18.32,4-27.49a25.41,25.41,0,0,0,.5-3.74,3.57,3.57,0,0,0-.9-2.22c-1.45-1.56-2.24-3.47-1.06-5.15C178.94,170.73,178.63,168.46,179.31,166ZM119.82,350.41A182.71,182.71,0,0,0,200.23,369a171.6,171.6,0,0,0,80-18.61Zm74.68-172v50.11h10.55V178.4Zm.16,67.54v75.89c3.6.39,3.94.2,3.94-2.13l.06-71.35v-2.41Zm6.61,0v75.88H205V245.94ZM231.5,292.3l-11.45,12.64h12.83C232.43,300.8,232,296.82,231.5,292.3Zm-63.27.2c-.47,4.37-.9,8.37-1.33,12.44h12.57C175.67,300.74,172.07,296.76,168.23,292.5Zm12.76,26v-10.6l-14,10.6Zm37.37-10.36c.24,3.85.45,7.1.65,10.36h13.31Zm-37.1-4.5.61-.12V292.18H170.94Zm48.43-13.85-13-10.78c.2,4,.37,7.42.54,10.78Zm-11.78,2.34v11.06l.52.19,10.28-11.25ZM181.2,275.4l-9.66-12c-.45,4.22-.86,8-1.28,12Zm1.27,3.9-12.31,10.41h12.31Zm36.21-4h10.76c-.48-4-.94-7.74-1.44-11.81Zm-34.56-27.06-10.78,11.5h10.78Zm32.47,26.14c3.35-4.25,6.38-8.09,9.41-12H216C216.17,266.44,216.37,270.21,216.59,274.41Zm16.61,33H220.94l13,9.4C233.68,313.43,233.45,310.52,233.2,307.41Zm-6.89-47.57.49-.7-10.93-9.77v10.47ZM182.82,273.9c.35-4.15.66-7.8,1-11.52H173.55C176.65,266.23,179.61,269.9,182.82,273.9Zm-10.38-16.33L183.35,246h-9.81C173.18,249.74,172.83,253.43,172.44,257.57Zm-3.54,29.71.46.27,11.46-9.79H170C169.59,281,169.24,284.16,168.9,287.28Zm61.74.29c-.33-3.61-.6-6.7-.89-9.83H218.56ZM226,246.07h-9.54l10.78,11.43C226.8,253.34,226.41,249.74,226,246.07Zm-60.19,70.56c4.25-3.17,8.2-6.1,12.55-9.33-3.82,0-7.1,0-10.38,0-1.27,0-1.49.64-1.55,1.7C166.29,311.42,166.05,313.86,165.82,316.63Zm49.89-88h9.08c-.53-3.58-1-6.93-1.58-10.84C220.57,221.59,218.28,224.89,215.71,228.62ZM176.3,217.84c-.6,3.95-1.1,7.29-1.6,10.6h8.74Zm39.52,91.32c-2.63,2.64-5,5-7.34,7.4-.72.73-1.13,1.82.33,1.95,2.48.21,5,.06,7.66.06Zm-32-.22-.45,9.51h9.29Zm36.5-110.34c-1.58,2.28-2.87,4.07-4.08,5.93-.26.4-.47,1.21-.26,1.46,1.93,2.29,3.95,4.49,6.29,7.1C221.58,208,221,203.55,220.31,198.6Zm-33.77,61.15H192c-.3-4.5-3.45-7.42-5.44-11Zm5.22,35.45-7.86,9.74h7.86ZM177.36,213l6.62-7.29-4.64-6.54C178.67,203.91,178.06,208.16,177.36,213Zm30.57,46.83h5.2V248.51l-.57-.09C211.41,252.33,207.86,255.25,207.93,259.86ZM208,305h7.6l-7.6-9.23Zm-21.35-99.16,5.09,7.34V199.53ZM220,171.57V167H207.31v4.49a25.71,25.71,0,0,0,3-3.13c.33-.33,1.32-.24,1.86,0,.33.15.38.93.55,1.4h1.75l2-1.92,1.27,2.64-.4.31ZM207.8,199.9v13c1.72-2.4,3.09-4.22,4.32-6.13a2,2,0,0,0-.05-1.79C210.77,203.23,209.31,201.65,207.8,199.9Zm.26,92.2,7.42,9.39c-.2-3.56-.37-6.46-.54-9.39ZM184.85,169.48c1.45-.06,1.38-.13,2.69-1.26a1.88,1.88,0,0,1,1.85.11,29,29,0,0,1,2.39,3.45l.44-.25V167H179.6V172c1-1,1.8-1.61,2.46-2.39a9.92,9.92,0,0,0,1-1.81Zm6.4,122.76h-6.58l-.55,8.3.42.13Zm.52-16.83V264.89c-2,3.75-3.74,7-5.59,10.52ZM185,289.7h6.37l-5.84-8.57-.53.14Zm28.49-14.3c-1.86-3.52-3.54-6.68-5.21-9.85l-.32.1v9.75Zm-4.94,14.37h5.93v-8.93C212.37,284,210.56,286.74,208.56,289.77ZM208,286.6l5.64-8.72H208Zm-22.33-58.16h6v-8.2ZM208,220.73v7.77h5.27C213.28,226.89,210.78,223.2,208,220.73ZM219.41,194c-.65-4.33-1.2-8-1.78-11.89-3.79,5-3.79,5,0,9.65C218.07,192.31,218.54,192.9,219.41,194ZM186,277.85c2.05,3,3.77,5.52,5.67,8.3v-8.3Zm29.67-52.3,5.53-8.26h-5.91C215.39,220,215.51,222.52,215.65,225.55Zm-35.56-31.76,5.07-6.14-3.43-5.77C181.17,186,180.67,189.57,180.09,193.79Zm-1.7,23.51,5.5,8.16c.16-3.05.29-5.53.42-8.16Zm36.82-9.13-.49.13c.15,2.29.3,4.59.45,6.83h6.17ZM186,262.38c-.21,3.06-.41,6-.61,9l.39.1q2.52-4.53,5.05-9.07Zm21.66-79.56v11.53c1.28-2.14,2.37-3.84,3.31-5.61a1.93,1.93,0,0,0,0-1.66C210,185.71,208.9,184.44,207.63,182.82ZM191.69,313.54v-6.08h-6.25Zm22.31-6h-5.94v6.52ZM191.69,194.2V183.48c-4.19,4.13-4.2,4.13-1.28,8.74C190.77,192.79,191.15,193.36,191.69,194.2ZM209,262.37l5.26,9.58c-.24-3.57-.44-6.53-.65-9.58Zm-24.43-54.32L178.53,215h6.05Zm23.64,9.18,5,6.68v-6.68Zm-22,6.77.41.1,4.65-6.85h-4.63Zm21.48,22v7.28l3.74-7.28Zm-19.61,0,3.76,6.89.49-.19-.44-6.7Zm-2.16-55.88-5.1,6,4.62-.28C185.61,194,185.75,192.31,185.94,190.09Zm26.86,25v-5.9l-4.26,5.9ZM185,197.88h-4.1l4.1,5.63Zm29.23-2h4.44l-4.44-5.19ZM186.8,215h3.93l-3.93-5.22Zm25.28-19v-5.63L208.81,196Zm2.63,2.18v4.9l3.77-4.9Zm-28-17.44h-3l2.67,4.57.36-.18ZM209,198.19l3.6,4.34c-.09-1.83-.14-3.05-.21-4.34Zm-21.33-2.31h2.69c-.89-1.42-1.65-2.65-2.69-4.33Zm-.36,2.33v3.59l3.18-3.59ZM213.48,185l2.37-4.13h-2.37Zm-2.2-4.27-2.53.23,2.67,3.16.35-.19Z"/><path class="cls-1" d="M395,315.21c-10.91,0-21.13,0-31.35,0a2.91,2.91,0,0,1-1.87-1Q333.16,281.11,304.62,248c-16.68-19.37-33.26-38.82-50-58.16s-33.4-38.51-50.11-57.75c-1.51-1.75-3-3.48-4.67-5.34-4.89,5.58-9.83,11.14-14.7,16.76q-17,19.55-33.86,39.14-16.78,19.41-33.55,38.84-18.69,21.68-37.35,43.37L47.59,302.92c-3.22,3.73-6.43,7.47-9.72,11.14a3.29,3.29,0,0,1-2.07,1.1c-10.08.06-20.16,0-30.25,0-.11,0-.23-.1-.55-.25L200,88.74Z"/><path class="cls-1" d="M199.89,51.82,105.45,161.31,89.29,142.6,199.91,14,310.27,142.75l-16,18.59Z"/></svg>