<svg id="Layer_1" data-name="Layer 1" xmlns="http://www.w3.org/2000/svg" viewBox="0 0 400 400"><defs><style>.cls-1{fill:#2c2e27;}</style></defs><path class="cls-1" d="M394.24,312.35c-10.87,0-21.05,0-31.22,0a2.9,2.9,0,0,1-1.87-1q-28.5-32.93-56.94-65.92c-16.61-19.29-33.12-38.66-49.76-57.94s-33.27-38.35-49.92-57.52c-1.51-1.74-3-3.47-4.65-5.32-4.87,5.56-9.79,11.1-14.65,16.7q-16.89,19.47-33.72,39Q134.79,199.64,118.08,219q-18.61,21.6-37.2,43.21l-32.7,37.92c-3.21,3.71-6.41,7.44-9.68,11.1a3.25,3.25,0,0,1-2.06,1.09c-10,.06-20.09,0-30.13,0-.12,0-.23-.11-.55-.26L200,86.76Z"/><path class="cls-1" d="M199.89,50q-47.14,54.64-94.07,109.06c-5.41-6.26-10.67-12.34-16.1-18.64L199.91,12.35,309.85,140.56l-15.94,18.52C262.49,122.61,231.27,86.4,199.89,50Z"/><g id="wuEvTQ.tif"><path class="cls-1" d="M197.32,205.13H203c.32.05.63.14.95.17,2.33.19,4.68.3,7,.56a82.18,82.18,0,0,1,14.63,3,91.24,91.24,0,0,1,65.29,96.31,81.5,81.5,0,0,1-2.61,14.54Q278.22,355.84,246,375.13a89,89,0,0,1-43.42,12.48,90.06,90.06,0,0,1-13.34-.65,87.82,87.82,0,0,1-14.54-3,91.88,91.88,0,0,1-55.42-45.51,89.45,89.45,0,0,1-10.22-37.24,19.2,19.2,0,0,0-.33-2v-5.53c.12-.88.27-1.75.35-2.63.22-2.22.34-4.45.63-6.65a87.28,87.28,0,0,1,5.06-20.07,91.17,91.17,0,0,1,37.44-45.47,88.53,88.53,0,0,1,32.31-12.36,82.88,82.88,0,0,1,11.76-1.25A9.34,9.34,0,0,0,197.32,205.13Zm-45.11,75-.6-1.09a6.91,6.91,0,0,0-4.89-3.67,10.87,10.87,0,0,0-4,0,9.53,9.53,0,0,0-2.15.53,8.56,8.56,0,0,0-4.2,4.09,1.74,1.74,0,0,0-.2.58c-.1,1.12-.2,2.25-.25,3.37a4.33,4.33,0,0,0,.51,2.14,2.91,2.91,0,0,0,4.52,1c.41-.34.79-.72,1.19-1.08a3.81,3.81,0,0,1,3.06-.93c0,.2,0,.35,0,.49a6.23,6.23,0,0,0,.78,3.69c.36.68.77,1.34,1.17,2,.56.94,1.17,1.86,1.71,2.82a7.39,7.39,0,0,1,1,3.38c.07,1.94.89,2.61,2.8,2.34a2.2,2.2,0,0,0,.52-.13l2.8-1.13a23.62,23.62,0,0,1,2.63-1.05,14.23,14.23,0,0,1,7.66.13,34.19,34.19,0,0,1,14.57,7.53c.84.76,1.68,1.51,2.54,2.24,1.25,1.06,2.49,2.12,3.78,3.12a23.05,23.05,0,0,0,8.55,4.25,7.83,7.83,0,0,1,1.26.44,4.31,4.31,0,0,1,2.69,5.13,15.08,15.08,0,0,1-1.7,4.28,20,20,0,0,0-2.49,8.66,6.65,6.65,0,0,1-1.24,3.75c-.72,1-1.56,1.94-2.36,2.9-.47.57-1,1.08-1.44,1.69a174.09,174.09,0,0,0-13,21.69c-.5,1-1,1.95-1.48,2.95a7.2,7.2,0,0,0-.14,6,1.12,1.12,0,0,0,.79.76l.69.21a79.29,79.29,0,0,0,19.48,3,80.58,80.58,0,0,0,14.14-.66,75.89,75.89,0,0,0,15.37-3.71A76.73,76.73,0,0,0,255,353.51c.75-.74,1.47-1.52,2.23-2.3-.21-.25-.35-.44-.51-.6a15.76,15.76,0,0,1-3.06-4.36c-.47-1-1-1.9-1.47-2.85a49.74,49.74,0,0,1-3-6.75,18.27,18.27,0,0,1,.21-13.14,4.67,4.67,0,0,0,.13-3.23,16.82,16.82,0,0,0-.67-1.84c-.54-1.35-1.11-2.68-1.66-4,0-.11-.06-.23-.1-.34-.75-1.94-1.47-3.88-2.25-5.8a7.16,7.16,0,0,0-.92-1.52,3.87,3.87,0,0,0-2.84-1.65,16.86,16.86,0,0,0-2.84-.1c-1.81.11-3.61.33-5.41.5a11.54,11.54,0,0,1-9.81-3.45c-3.91-4-5.07-8.87-4.32-14.29a18.18,18.18,0,0,1,2.66-7.22c1.45-2.31,3-4.54,4.56-6.8a13.75,13.75,0,0,1,3.21-3.79s0,0,.06-.06a2.57,2.57,0,0,0,.5-3.53,15.61,15.61,0,0,1-1.14-2.7,4.54,4.54,0,0,1,2.27-5.6,12.57,12.57,0,0,1,3.93-1.4l.76-.21c-.15-.8-.29-1.52-.43-2.24-.2-1-.34-1.94-.61-2.87a3.7,3.7,0,0,0-3.24-2.79l-1.35-.21a4.06,4.06,0,0,1,.67-2.22,22.38,22.38,0,0,1,1.55-1.83c.59-.63,1.25-1.19,1.8-1.85.73-.85.76-.88,1.87-.59a3.06,3.06,0,0,1,1.8,1.22,11.53,11.53,0,0,1,.66,1,5.47,5.47,0,0,0,1.88,2,3.61,3.61,0,0,0,1.55.55,3.18,3.18,0,0,0,3.09-1.86,3,3,0,0,0-.13-3.29c-.28-.49-.63-.95-.88-1.45a3.07,3.07,0,0,1,.68-4.11,10.19,10.19,0,0,1,3.21-2.47,1.72,1.72,0,0,0,.36-.26l1.06-.83a4.23,4.23,0,0,0-.41-.33,128,128,0,0,0-12.89-7.93c-2.09-1.05-4.27-1.92-6.42-2.86-.29-.13-.6-.27-.91,0-.81.7-2,1-2.23,2.28a.44.44,0,0,1-.1.15,19.74,19.74,0,0,1-10.64,7.5,53,53,0,0,0-5.87,2.06,10.28,10.28,0,0,0-5.21,4.28,2.65,2.65,0,0,1-2,1.28,5.62,5.62,0,0,1-4.1-1.11,4,4,0,0,1-1.57-5.13,12.23,12.23,0,0,0,1.08-4,4.71,4.71,0,0,0-2.47-4.93,18.33,18.33,0,0,0-2.63-1.07c-.4-.15-.83-.22-1.46-.39a74.7,74.7,0,0,1,17.36-5.57,2,2,0,0,0-.72-.11h-7.93a80.51,80.51,0,0,0-11.19.77,77.42,77.42,0,0,0-19.53,5.3,67.93,67.93,0,0,0-12.7,7c-.24.17-.57.28-.65.72a7.83,7.83,0,0,0,.85,0c1.68-.19,3.37-.3,5-.6a42.16,42.16,0,0,0,10.71-3.78,14.18,14.18,0,0,1,2.67-1,18.54,18.54,0,0,1,5.85-.26,10.12,10.12,0,0,1,4.47,1.38,6.06,6.06,0,0,1,3.2,4.86,4.18,4.18,0,0,0,.09.71,3.33,3.33,0,0,1-1.11,3.38,12.74,12.74,0,0,1-2.53,1.79,32.52,32.52,0,0,1-3.45,1.43c-.69.26-.81.36-.87,1a29.91,29.91,0,0,1,2.86,1.85,10.62,10.62,0,0,1,2.8,3.87,14.46,14.46,0,0,1,1,9,1.48,1.48,0,0,1-.63,1,3.29,3.29,0,0,1-3.15.07,14.17,14.17,0,0,1-1.93-1.56c-.4-.35-.77-.74-1.17-1.1a1.24,1.24,0,0,0-1.7-.12c-.53.37-1.1.71-1.6,1.12-2.29,1.85-4.55,3.73-6.83,5.58-.76.62-1.55,1.2-2.33,1.8-1.67,1.27-3.41,2.48-5,3.84a34.57,34.57,0,0,0-10.57,15C152.43,279.66,152.34,279.84,152.21,280.14ZM168,370.49l.15-.16c-.41-1.14-.86-2.27-1.24-3.42a67.78,67.78,0,0,1-3.18-20.33,12.62,12.62,0,0,0-.07-1.51c-.26-1.76-.56-3.52-.85-5.27a15.55,15.55,0,0,0-5.17-9.69,37,37,0,0,1-4.71-5,19.13,19.13,0,0,1-2.84-4.71,11.19,11.19,0,0,1-.6-6.9,16.89,16.89,0,0,1,2.44-5.21,14.74,14.74,0,0,0,1.54-3.29,2.21,2.21,0,0,0-1.65-3.1,17.73,17.73,0,0,1-4.83-2.45c-1.13-.81-2.21-1.7-3.32-2.54-1.46-1.12-2.88-2.3-4.39-3.35a16.81,16.81,0,0,0-7.92-3A6,6,0,0,1,126,285.1a3.35,3.35,0,0,0-.89-2.09,1.42,1.42,0,0,0-.49-.35c-.66-.27-1.32-.52-2-.78a1.76,1.76,0,0,0-1.43-.2,87.91,87.91,0,0,0,1.06,33.12,79.25,79.25,0,0,0,21,38.05A87.24,87.24,0,0,0,168,370.49ZM272,269a15.92,15.92,0,0,1-5.86-1.54c-.68-.29-1.37-.56-2.05-.86a14.1,14.1,0,0,0-8-.79,35.54,35.54,0,0,0-6.3,1.85c-.18.07-.34.17-.68.35.44.39.79.71,1.14,1a11.69,11.69,0,0,0,3.8,2.09,23.73,23.73,0,0,0,12.53.79,12,12,0,0,0,3.67-1.32A4.43,4.43,0,0,0,272,269Z"/></g></svg>