<?xml version="1.0" encoding="utf-8"?>
<!-- Generator: Adobe Illustrator 25.3.1, SVG Export Plug-In . SVG Version: 6.00 Build 0)  -->
<svg version="1.1" id="Layer_1" xmlns="http://www.w3.org/2000/svg" xmlns:xlink="http://www.w3.org/1999/xlink" x="0px" y="0px"
	 viewBox="0 0 400 400" style="enable-background:new 0 0 400 400;" xml:space="preserve">
<style type="text/css">
	.st0{fill:#2C2E27;}
	.st1{fill:#EBBA20;}
	.st2{fill:#0B3452;}
	.st3{fill:#082547;}
	.st4{fill:#0A1834;}
	.st5{fill:#E7CF7A;}
	.st6{fill:#52686E;}
	.st7{fill:#344F5B;}
	.st8{fill:#06845C;}
	.st9{fill:#7B8F99;}
	.st10{fill:#239B6D;}
	.st11{fill:#BC9B21;}
	.st12{fill:#9AA7AF;}
	.st13{fill:#D0AC1D;}
	.st14{fill:#B58D27;}
</style>
<g>
	<g>
		<path class="st0" d="M155.4,240.9c-4.5,5.3-8.3,11-11,17.4c-1.7,1.4-2.1,3.3-2.1,5.4c0,0,0.1-0.1,0.1-0.1
			c-0.6,0.2-0.8,0.8-0.9,1.3c-0.6,3.4-2,6.8-1.6,10.4c0,0.2,0,0.3-0.1,0.4c-0.9,4.2-0.4,8.4-0.2,12.7c0.1,1-0.2,2.5,0.8,3.4
			c0,0,0,0,0,0c0,6.4,2.7,12.1,5,17.8c0.2,0.4,0.6,0.6,1,0.5c0,0,0,0,0,0c-0.4,1.7,0.7,2.7,1.9,3.5c0,0,0-0.1,0-0.1
			c0.1,0.8,0,1.7,1.2,1.8c0,0,0,0,0,0c-0.1,0.3,0,0.6,0.4,0.6c0,0,0,0,0,0c-0.1,0.8,0.2,1.3,1,1.5c0,0-0.1-0.1-0.1-0.1
			c0,1,0.2,1.9,1.5,2c0,0,0,0,0,0c0,0.8,0.2,1.4,1.1,1.4c0,0-0.1,0-0.1,0c-0.1,0.7,0.3,1,0.9,1.1c0.1,0.1,0.2,0.3,0.4,0.4
			c0.2,0.2,0.3,0.4,0.5,0.6c0,0,0,0,0,0c0,0.4,0.1,0.9,0.7,0.7c0,0,0.1,0.1,0.1,0.1c-0.2,0.8,0.1,1.1,0.9,1c0,0-0.1,0.1-0.1,0.1
			c0-0.1,0.1-0.1,0.1-0.2c0,1,0.4,1.5,1.5,1.4c-0.4,0.4,0.1-0.1,0,0c-0.1,0.8,0.1,1.1,1,0.9c0,0,0.1,0.2,0.1,0.2
			c-0.1,0.1-0.1,0.2-0.2,0.3c0.1-0.1,0.2-0.1,0.3-0.2c4.9,4.4,10.7,7.5,16.4,10.8c0.3,0.2,0.7,0.3,1.1,0.4c1.9,1.6,4.4,1.9,6.7,2.6
			c6.5,2,13.3,2.5,20.1,2.2c0.7,0,1.6,0,1.7-0.9c0.1-0.9-0.6-1-1.3-1c0,0,0,0,0,0c0-0.7-0.3-1-1-1c0,0,0.1,0,0.1,0
			c-0.2-0.2-0.4-0.3-0.6-0.5c0,0,0.1,0.1,0.1,0.1c-0.1-0.3-0.3-0.5-0.6-0.5c0,0,0.1,0.1,0.1,0.1c-0.1-0.7-0.4-1.1-1.1-0.9l0.1-0.1
			c0,0-0.1,0.1-0.1,0.1c0-0.4-0.1-0.5-0.5-0.4c0,0,0,0,0,0c0.2-0.6-0.3-0.7-0.7-0.7c-1.8-2.3-4.6-3.4-6.3-5.8
			c0.1-0.1,0.1-0.2,0.2-0.3c-0.1,0.1-0.2,0.1-0.3,0.2c-0.1,0-0.2-0.1-0.2-0.2c0.1-0.4,0.1-0.5-0.3-0.3c-0.1,0-0.2-0.1-0.2-0.2
			c0.3-0.8,0-1.1-0.8-0.8c-0.1,0-0.1-0.1-0.2-0.2c0.4-1.1-0.4-1.1-1.1-1.2c0,0,0,0,0,0c-0.2-0.2-0.4-0.4-0.5-0.5
			c0,0,0.1,0.1,0.1,0.1c-0.2-0.2-0.4-0.4-0.5-0.5c0,0,0,0,0,0c0.1-0.7-0.3-1.1-1-1c0,0,0,0,0,0c-0.2-0.2-0.4-0.4-0.5-0.5
			c0,0,0,0,0,0c0.1-0.7-0.3-1.1-1-1c-0.1-0.1-0.3-0.3-0.4-0.4c-0.2-0.2-0.4-0.4-0.6-0.6c-0.1-0.1-0.3-0.3-0.4-0.4
			c0-1-0.5-1.5-1.5-1.5c0,0,0,0,0,0c-0.1-0.7-0.1-1.5-1.2-1.2c-0.1,0-0.2-0.1-0.2-0.2c0.1-0.1,0.1-0.2,0.2-0.3
			c-0.1,0.1-0.2,0.1-0.3,0.2c-6.3-6.7-12.3-13.7-16-22.4c0.7-0.9-0.1-1.7-0.3-2.4c-0.9-2.6-1.8-5.1-2.2-7.8
			c-0.9-4.1-0.8-8.2,0.2-12.3c0.2-0.8,0.7-1.5-0.1-2.2c2.2-7.5,7-13.1,13.4-17.4c4.7-3.1,9.8-5.4,15.3-6.8c3.4,0.2,6.6-0.8,9.7-2.1
			c0,0,0,0,0,0c4,0.2,7.8-0.8,11.8-0.9c4.8-0.1,9.7,0,14.6,0c3.7,0.6,7.5,1.2,11.2,1.4c0,0,0,0,0,0c0.3,0.7,0.9,0.6,1.5,0.5
			c0,0,0,0,0,0c2.9,2,3.5,4.7,2.5,7.9c0,0,0,0,0,0c-0.2,0.2-0.4,0.4-0.5,0.6c0,0,0,0,0,0c-0.8-0.1-1.3,0.2-1.5,1c0,0,0.1,0,0.1,0
			c-3.7,0.5-7.5,1-11.1,1.6c-2.8,0.5-5.7,0.5-8.4,1.7c-7.5,0.9-14.5,3.3-21.1,6.8c-0.8,0.4-2.2,0.6-2.2,2c0,0,0,0,0,0
			c-0.9,0.1-1.9,0.2-1.9,1.5c0,0,0,0,0,0c-0.4-0.1-0.8,0-1,0.4c-0.8,0.5-1.6,1-1.3,2.1c0,0,0,0,0,0c-2.6,1.7-3.2,7-0.9,8.9
			c0,0,0,0,0,0c-0.1,0.3-0.1,0.5,0.3,0.7c0,0,0,0,0,0c0,0.4,0,0.9,0.6,1c0,0-0.1-0.1-0.1-0.1c0,0.5,0,0.9,0.7,0.8
			c0,0,0.1,0.1,0.1,0.1c-0.4,0.5-0.3,0.9,0.4,1.1c5.2,4.9,11.4,8.2,17.6,11.7c4.6,2.6,9.2,5.3,13.9,7.6c8,3.9,15.5,8.3,23.2,12.7
			c1.9,1.1,3.6,2.3,5.4,3.5c-0.1,0.1-0.1,0.3-0.2,0.4c0.2,0,0.5,0,0.7,0.1c0,0,0,0,0,0c-0.1,0.7,0.3,1.1,1,1c0,0,0,0,0,0
			c0,0.4-0.1,1,0.7,0.7c0.1,0.1,0.1,0.1,0.1,0.2c-0.2,0.3-0.1,0.5,0.3,0.6c0,0,0,0,0,0c-0.1,0.5-0.1,0.9,0.4,1.1
			c2.3,1.4,4.7,2.8,6.9,4.3c1.4,0.9,2.7,1.3,4.2,0.6c3.3,0.1,6.5,0.2,9.8,0.4c0,0,0,0,0,0c0.3,0.7,0.9,0.6,1.5,0.5c0,0-0.1,0-0.1,0
			c0.6,0.9,1.5,1.1,2.5,1c0,0-0.1,0-0.1,0c0.5,0.8,1.1,1.2,2.1,0.8c0,0,0.1,0,0.1,0c0.7,1.6,2.3,1.7,3.6,2.3
			c-1.1,1.3-2.6,0.7-3.9,1.1c0,0,0,0,0,0c-0.2-0.6-0.7-0.6-1.2-0.6c-0.2-0.1-0.5-0.2-0.7-0.3c-0.1-0.6-0.5-0.7-1-0.7l0,0
			c-0.1-0.9-0.8-1.2-1.5-1.4c-3.3-1-6.7-0.9-10-0.4c-0.3,0-0.5,0.5-0.8,0.8c-2.2,1.9-3.9,0.1-5.5-1c-4-2.9-8-2.6-12.2-0.3
			c-3.9,2.1-6.9,5.2-9.7,8.5c-0.2-0.3-0.5-0.3-0.7,0c-0.3,0.4-0.2,0.7,0,1.1l-0.1,0.1c-1.7,0.2-1.6,1.5-1.6,2.8l0,0
			c-0.6,0.1-0.6,0.5-0.5,1c0,0,0,0,0,0c-1.4,0.3-1.1,1.4-1,2.4l0,0c-0.5,0.1-0.9,0.4-1,0.9c-1.2,3.4-1,7-1.1,10.5
			c0,0,0.4,0.1,0.7,0.1c0,0-0.1,0-0.1,0c0.2,0.2,0.3,0.4,0.5,0.6c0.1,0.1,0.3,0.2,0.4,0.3c0.1,0.6,0.5,0.7,1,0.7l0,0
			c0.2,0.2,0.4,0.3,0.6,0.5c0.1,0,0.2,0.1,0.3,0.2c0.4,1.6,1.6,2.1,3,2.3l0,0c0.2,0.2,0.4,0.3,0.5,0.5l0,0c0.1,2.1-1.9,4-0.9,6.1
			c0.9,1.9,0.8,3.8,0.8,5.7c-2.9-2.5-2.9-5.8-2.9-9.2c0.7-1.6-0.5-1.7-1.5-1.9c0,0,0,0,0,0c-0.9-1.6-2.1-2.7-4.1-2.7c0,0,0,0,0,0
			c0.1-0.7-0.3-0.7-0.8-0.7c-0.1,0-0.3,0-0.4-0.1c-0.6-0.7-1.1-0.3-1.7-0.1c-3.6,1.2-7.2,2.3-10.8,3.4c-3,1-6.3,0.7-9.3,2.1
			c-0.2,0.6-0.6,0.4-1,0.3c-0.7-0.7-1.5-0.5-2.3-0.4c-1.8,0.1-3.7,0.4-5.5,0.4c-6.5,0.2-13-0.3-19.4-1.3c-1.4-0.2-2.9-1.3-4.4-0.2
			c-1.5-0.4-2.9-0.7-4.4-1.1c-0.1-0.9-0.9-0.8-1.4-1c-3.8-1.2-7.5-2.6-11.2-4.2c-0.9-0.4-1.8-1.1-2.9-0.9c0,0,0,0,0,0
			c-0.3-0.8-0.8-1.2-1.6-0.8l0.1-0.1c0,0-0.1,0.1-0.1,0.1c0-0.7-0.5-0.7-1-0.6c0,0,0,0,0,0c-0.1-0.8-0.3-1.5-1.3-0.7
			c-4.1-2.1-7.8-4.6-11.3-7.7c0.4-0.8-0.3-0.4-0.5-0.5c0,0,0.1,0,0.1,0c-0.1-0.3-0.3-0.5-0.6-0.5c0,0,0.1,0.1,0.1,0.1
			c0-0.4-0.2-0.5-0.6-0.5l0.1-0.1c0,0-0.1,0.1-0.1,0.1c0-0.4-0.1-0.6-0.5-0.4c0,0-0.1-0.1-0.1-0.1c0.3-1.1-0.4-1.2-1.2-1.2
			c0,0,0.1,0,0.1,0c-0.2-0.2-0.4-0.4-0.6-0.5c0,0,0,0.1,0,0.1c-0.1-1.3-0.7-2-2.1-1.9c0,0,0,0,0,0c0-0.4-0.2-0.5-0.5-0.5
			c0,0,0.1,0.1,0.1,0.1c-0.1-0.9-0.2-1.8-1.5-1.5l0.1-0.2c0,0-0.1,0.2-0.1,0.2c0.1-0.7-0.3-1-0.9-1.1c0,0,0,0.1,0,0.1
			c0.1-0.8-0.2-1.1-1-1.1c0,0,0.1,0.1,0.1,0.1c-0.2-0.2-0.4-0.4-0.5-0.6c0,0,0,0,0,0c0-1.1-0.5-1.8-1.7-1.8c0.3-0.3-0.1,0.1,0,0
			c0.4-1.2-0.2-1.6-1.3-1.6c0,0,0,0,0,0c-0.2-1.9-1.4-3-2.9-3.9c0,0,0,0,0,0c0-0.8-0.2-1.3-1-1.5c0,0,0,0,0,0c0.1-0.8-0.2-1.3-1-1.5
			c0,0,0,0,0,0c0.2-1.2-0.3-2.1-1.5-2.5c0,0,0,0.1,0,0.1c0.1-1.6-0.7-2.6-2-3.5c0,0,0,0,0,0c0.1-2.3-1.5-4-2.4-6
			c-1.9-4.3-3.1-8.7-4.9-13c-0.3-1.5-0.4-3-0.8-4.5c-1.3-5.7-1.9-11.6-1.9-17.3c0-4-0.3-8.2,0.7-12.2c1-9.6,3.9-18.7,8.1-27.4
			c0.4-0.9,1.4-1.7,0.8-2.9c0,0,0.1-0.2,0.1-0.2c1.3-0.2,1.5-1,1.3-2.1c2.9-5.1,6.6-9.6,10.5-13.9c4.7-5.3,10.1-9.6,15.8-13.6
			c0.6-0.4,1.2-0.7,1.9-1.1c1,0.3,1.6-0.2,1.9-1.1c0,0,0,0,0,0c1.9-0.3,3.6-0.8,4.7-2.6c0,0,0,0,0,0c0.5,0.2,0.9,0.3,0.9-0.5
			c0,0,0,0,0,0c2.7,0,4.9-1.2,7-2.7c1,0.1,1.9-0.4,2.8-0.7c10-3.4,20.4-5.3,31-5.1c4.5,0.1,9,0.6,13.4,0.9c0.1,0,0.3,0,0.4,0.1
			c0.4,0.2,0.7,0.4,1.1,0.4c6.7,1.2,13.2,3.1,19.5,5.8c0.7,0.3,1.5,0.7,2.3,0.5c0,0-0.1,0-0.1,0c1.5,1.7,3.3,2.6,5.5,2.8l-0.1,0
			c0,0,0.1,0,0.1,0c0.2,1.1,1,1.1,1.9,1.2c0,0-0.1,0-0.1,0c0.4,1.2,1.2,1.7,2.5,1.5c0,0,0,0,0,0c0.4,0.9,0.9,1.7,2.1,1.4
			c0,0,0,0,0,0c0,0.3,0.2,0.5,0.5,0.3c0,0,0.2,0.1,0.2,0.1c-0.2,1.4,0.8,1.2,1.6,1.2c0,0,0,0,0,0c0.2,0.2,0.4,0.3,0.6,0.5
			c0,0-0.1-0.1-0.1-0.1c0.1,0.3,0.3,0.5,0.6,0.5c0,0-0.1-0.1-0.1-0.1c0,0.4,0.2,0.5,0.6,0.3c0,0,0.1,0.1,0.1,0.1
			c-0.1,1.3,0.6,1.7,1.8,1.5c0,0.1-0.1,0.1-0.1,0.2c0-0.1,0.1-0.1,0.1-0.2c0.1,1.2,0.7,1.6,1.9,1.6c0,0-0.1,0-0.1,0
			c0.1,0.3,0.3,0.5,0.6,0.5c0,0-0.1-0.1-0.1-0.1c0.2,0.8,0.5,1.5,1.6,1.3c0,0,0.1,0.1,0.1,0.1c-0.2,0.3-0.2,0.6,0.1,0.8
			c0.2,0.2,0.4,0.1,0.6-0.1c2.3,2,4.6,4.2,6.4,6.7c0.2,0.2,0.3,0.4,0.5,0.6c0,0,0,0,0,0c0,0.8,0.2,1.4,1.2,1.3l-0.1,0.1
			c0,0,0.1-0.1,0.1-0.1c-0.3,0.8,0,1.1,0.8,1.1c0,0,0,0,0,0c-0.1,0.8,0.2,1.4,1.1,1.4c0,0,0,0,0,0c0,0.3,0.1,0.5,0.4,0.6
			c0,0,0,0,0,0c0,1,0.2,1.9,1.5,2c0,0,0,0,0,0c-0.1,0.8,0.2,1.3,1,1.5c0,0,0,0,0,0c0,0.5,0,0.9,0.6,0.9c0,0,0,0,0,0
			c-0.1,1.1,0.1,2.2,1.5,2.4l-0.1,0c0,0,0.1,0,0.1,0c-0.1,0.3,0,0.5,0.3,0.7c0,0,0,0,0,0c0,2.1,0.8,3.7,2.6,4.7c0,0,0.1,0.1,0.1,0.1
			c-0.1,2.1,0.6,3.9,2.4,5.2c0,0,0,0.1,0,0.1c-0.5,0.7-0.1,1.4,0.1,2.1c5.3,12.8,6.1,26.2,5.2,39.8c-0.5,8.3-2.7,16.3-5.8,24.1
			c-0.4,0.9-1.2,1.8-0.7,3l0-0.2c0,0,0,0.2,0,0.2c-1.6,0.2-1.1,1.4-1.2,2.3c0,0,0,0,0,0c-1.7,1.9-3.1,3.8-3.4,6.4c0,0,0,0,0,0
			c-2.3-0.2-4.5,0.1-6.5,1.2c0,0-0.2,0-0.2,0c-0.4-1.7-1.6-2.2-3.2-2.2c0,0,0.1,0,0.1,0c-0.4-0.8-0.8-1.8-2.1-1.1
			c-0.1,0-0.2-0.1-0.2-0.2c0.2-1.1-0.2-1.7-1.3-1.9c0,0-0.1-0.1-0.1-0.1c0.3-0.5-0.1-0.6-0.4-0.7c-0.1-0.1-0.2-0.3-0.2-0.4
			c-0.2-0.2-0.4-0.4-0.5-0.6c-0.1-0.1-0.3-0.3-0.4-0.4c-0.2-0.6-0.4-1.1-1.2-0.8c0,0-0.1,0-0.1,0c-0.1-1.5-1.2-1.5-2.3-1.6
			c0,0,0.1,0.1,0.1,0.1c-0.1-0.6-0.5-0.7-1-0.6c0,0,0,0,0,0c-0.1-0.3-0.3-0.4-0.7-0.4c0,0,0.1,0.1,0.1,0.1c0-0.6-0.4-0.7-0.9-0.6
			c0,0,0,0,0,0c-0.1-0.4-0.4-0.5-0.8-0.6c-1.2-0.4-2.2-0.9-1.4-2.5c0.7-0.1,0.8-0.5,0.6-1.1c0,0,0,0,0,0c0.7,0,1-0.5,1.2-1
			c2.5-4.9,4.7-9.9,5.8-15.4c0.2-1.1,1.1-2.3,0.1-3.4c0.3-1.7,0.5-3.4,0.8-5.1c0.2,0.6,0.5,1.7,0.6,0c0.4-9.5-0.3-18.8-4.1-27.7
			c-1-2.4-1.4-5.3-3.9-7c0,0,0.1,0.1,0.1,0c-0.2-1.4-0.4-2.9-2.1-3.3c0,0,0,0,0,0c0.1-0.3,0-0.6-0.4-0.7c0,0,0,0,0,0
			c0-0.5,0-0.9-0.7-0.9c0,0,0,0,0,0c0.3-1.5-0.8-2-1.8-2.6c0,0,0,0.1,0,0.1c0-0.8-0.2-1.4-1.2-1.3c0,0,0,0,0,0
			c0.1-0.4-0.1-0.6-0.4-0.6c0,0,0,0.1,0,0.1c0-0.4,0.1-1-0.6-0.7c-0.1-0.1-0.2-0.2-0.2-0.3c0-0.1,0.1-0.2,0.1-0.3
			c-0.1,0-0.2,0.1-0.3,0.1c-0.2,0-0.3-0.1-0.3-0.2c0.3-0.7-0.2-0.6-0.6-0.7c0,0,0,0,0,0c-0.1-0.7-0.1-1.5-1.2-1.2
			c0,0-0.1-0.1-0.1-0.1c0.1-0.4,0-0.5-0.4-0.4c0,0-0.1-0.1-0.1-0.1c0.1-0.4,0-0.5-0.4-0.4c0,0-0.1-0.1-0.1-0.1
			c0.3-1.1-0.4-1.1-1.2-1.2c0,0,0,0,0,0c0-0.7-0.3-1.1-1-1c0,0,0,0,0,0c0-0.8-0.3-1.1-1.1-0.9l0.1-0.1c0,0-0.1,0.1-0.1,0.1
			c0-0.4-0.1-0.5-0.5-0.3c0,0-0.2-0.1-0.2-0.1c0.2-0.7-0.2-0.7-0.7-0.7c0,0,0,0,0,0c0-0.8-0.4-1.1-1.1-0.8l0.1-0.1
			c0,0-0.1,0.1-0.1,0.1c0-0.6-0.4-0.7-0.9-0.7c0,0,0,0,0,0c0-1.1-0.7-1-1.5-1c0,0,0,0,0,0c-0.4-1.5-1.5-2-3-1.9c0,0,0,0,0,0
			c-0.1-0.3-0.3-0.4-0.7-0.3l0.1,0c0,0-0.1,0-0.1,0c-1.7-2.3-4-3.3-6.8-3.4c0,0-0.1,0-0.1,0c0.1-0.5-0.2-0.7-0.6-0.9
			c-3.8-1.7-7.9-2.8-12-3.5c-0.6-0.1-0.7,0.3-0.8,0.7c-0.9-0.5-2-0.3-2.9-0.5c-0.3-1.3-1.4-0.8-2.2-0.9c-7.6-0.2-15.3-0.3-22.7,2
			c-3.2,1-6.5,1.6-9.1,4c0,0,0.1,0,0.1,0c-0.9,0.1-2.1-0.4-2.1,1.2c-0.1,0.1-0.1,0.1-0.2,0.1c-0.3-0.2-0.5-0.1-0.6,0.2c0,0,0,0,0,0
			c-0.6,0.1-1.8-0.7-1.6,0.9c-3.2,2.3-6.3,4.5-9.5,6.8c-0.2,0.2-0.5,0.4-0.7,0.6c0,0,0.1-0.1,0.1-0.1c-0.2,0.2-0.4,0.4-0.6,0.5
			c0,0,0.1-0.1,0.1-0.1c-0.2,0.2-0.4,0.4-0.6,0.5c0,0,0.1-0.1,0.1-0.1c-0.2,0.2-0.4,0.4-0.5,0.5c0,0,0.1-0.1,0.1-0.1
			c-0.2,0.2-0.4,0.4-0.5,0.5c0,0,0.1-0.1,0.1-0.1c-0.2,0.2-0.4,0.4-0.5,0.5c0,0,0.1-0.1,0.1-0.1c-0.2,0.2-0.4,0.4-0.5,0.5
			c0,0,0.1-0.1,0.1-0.1C155.7,240.5,155.5,240.7,155.4,240.9z M179.2,261.2L179.2,261.2c-0.7,0-1,0.3-1,1
			c-5.4,5.2-10.1,10.8-10.3,19.5c2.6-3.6,5.8-5.2,9.3-6.5c3.1-0.7,6.2-0.4,9.2,0.6c0.6,0.3,1.4,1.3,1.6,0c0.5-2.5,2.2-4.4,2.7-6.9
			c0.2,0,0.4,0,0.6,0c1.9-1.5,3.7-3,5.6-4.5c0.7-0.5,0.9-1.1,0.2-1.8c-0.5-2.3-0.9-4.8-2.9-6.4c-0.8-1.6-2.2-1.6-3.5-1.2
			c-3,1-5.7,2.6-8.4,4.3c-0.6,0.4-0.7,0.8-0.2,1.3c-0.6,0.1-1.2,0-1.6,0.6c-0.3,0-0.6,0-0.9,0C179.5,260.9,179.4,260.7,179.2,261.2z
			 M192.7,287.8c-2-2-3.1-4.6-4.3-7.1c-0.6-1.2-1.3-2.4-2.5-3.1c-3.1-2-6.4-2.1-9.7-0.5c-4.9,1.7-8.2,7.5-7.1,12.6
			c0.9,3.8,2.3,7.4,4.8,10.5c0.2-0.4,0.5-0.8,0.7-1.2c0.3,1,0.7,2,1,2.9c0.7,6.6,5.8,10.5,9.4,15.4c0.1-5.8,2-10.7,5.7-14.8
			c3.7-2.1,6.9-5.2,11.8-5.6c-3.3-2.8-6.4-5.2-9.4-7.7C193.1,288.7,192.9,288.2,192.7,287.8z M209.9,256.7c-0.2,1.5,0.1,2.3,1.9,1.8
			c2-0.6,4.1-1.1,6.1-1.2c2-0.1,2.3-0.9,2-2.5c0-0.5-0.1-1-0.1-1.4c-0.1-0.2-0.2-0.3-0.2-0.5c0-0.3-0.1-0.6-0.1-0.9
			c0-0.9-0.1-2.3-0.9-2.2c-2.6,0.4-5.3-0.4-7.8,0.6c-0.8,0.1-1.7-0.2-2.5,0.3C209.1,252.7,209.6,254.7,209.9,256.7z M231.1,253.8
			c-0.5-3.8-0.5-3.8-4.5-3.9c-1.8,0-4.1-1-5.4,0.1c-1.3,1.2,0.3,3.4,0.2,5.2c-0.2,1.7,1,1.5,2,1.4c2-0.3,4.1-0.7,6.1-0.9
			C231.1,255.7,231.3,255,231.1,253.8z M208.3,257.7c0.2-1.9-0.4-3.6-1.1-5.3c-0.5-1.4-1.6-1.6-3-1.4c-1.3,0.3-2.5,0.6-3.8,0.8
			c-2.3,0.5-4.6,1.1-7.6,1.8c4.2,1.6,4.4,5.1,5.7,8c0,1-0.1,2.1,1.5,1.2c2.4-1.3,4.9-2.3,7.5-3.1
			C208.7,259.3,208.8,258.7,208.3,257.7z M236,334c-2.8,3.1-4.3,6.8-5.2,10.7c-1.4,5.8-0.7,7.6,3.3,9.8c0.6-6.5,3.5-12,7.3-17.1
			c2.9-2.6,5.5-5.6,9.3-7.2c1.8-0.7,3.7-0.9,5.6-1.6c-3.1-3-6.4-4.1-10.6-2.6C241.4,327.5,238.4,330.3,236,334z M194.1,305.3
			c-2.9,2.7-4.2,6.1-4.8,10c-0.4,2.5-0.8,5,0.6,7.2c1.3,2.1,3.1,3.9,4.6,5.8c0.1,0.1,0.3,0.3,0.3,0.3c0.3-0.2,0.1-0.4,0-0.5
			c-0.7-6.8,1.6-12.6,5.7-17.8c3.6-4,8-6.5,14-7.2c-3.7-1.8-6.4-4.3-10.5-3.1C200.3,301,196.7,302.1,194.1,305.3z M232.2,331.1
			c4.4-5,9.4-8.9,16.6-9.2c-3.4-1.8-6.2-4.9-10.7-3.9c-5.1,1.2-9.5,3.5-12.8,7.6c-3.6,4-5.5,8.7-6.2,14c-0.4,2.8-0.7,5.9,1.1,8.2
			c1.6,2,4.1,3.1,6.4,4.8c-0.1-1.4-0.3-2.4-0.3-3.5C225.9,342.4,228.4,336.6,232.2,331.1z M221,324.4c0.8-0.1,1.2-0.8,1.6-1.3
			c2.1-2.7,4.8-4.9,7.9-6.3c1.8-0.8,3.8-1.3,6.2-2c-4.7-2.5-9.2-4.6-13.4-7.1c-5.8-3.4-11-1.6-16.1,1.5c-1.5,0.9-3,2-3.3,4
			c-0.3,0.2-0.9,0.3-1,0.5c-1.7,2.9-3.2,5.9-3.7,9.4c-0.2,1.2,0.3,2,1.2,2.8c3,2.7,5.8,5.6,8.9,8.2c2.1,1.7,3.9,3.8,6.4,5.1
			c0.3-2.7,1-5.2,2.1-7.5C218.7,329.2,219.8,326.8,221,324.4z M232.2,253c0.2,0.6-0.9,2.4,1.3,2.3c1.9-0.1,3.9-0.3,5.6-1.3
			c0.5-0.3,1.1-0.5,1.1-1.2c-0.1-0.7-0.6-1.2-1.3-1.3c-1.5-0.3-3.1-0.3-4.5-0.8C232.5,250.1,231.9,250.8,232.2,253z"/>
		<path class="st3" d="M285.5,336.6c1.3-0.4,2.9,0.2,3.9-1.1c0.3,0.2,0.7,0.3,1,0.5c0.1,0.3,0.3,0.3,0.4,0c1,0,1.2,1.8,2.5,1.3
			c0.5,0.3,0.5,1.1,1.4,1.2c0.6,0.1,1.3,0.4,1.7,0.8c1.6,1.8,3,3.7,5.1,5c1.5,0.9,0.4,2.8,0.1,4.2c-0.3,1.1,0.4,0.9,1,0.9
			c0,0,0,0,0,0c-0.1,0.5,0,0.9,0.5,1c0,0,0,0,0,0c0.1,1.5,0.6,3,0,4.5c0,0,0,0,0,0c-0.4,0-0.9-0.1-0.6,0.6c0,0.2-0.1,0.3-0.3,0.3
			c-0.1,0-0.1-0.1-0.2-0.1c0.1,0,0.1,0.1,0.2,0.1c-0.2,0.3-0.4,0.6-0.6,0.9c-0.1,0-0.3,0-0.4,0c0,0-0.1,0.1-0.1,0.2
			c0.7,1.8,0.4,3.5-0.5,5.2c0,0,0,0,0,0c-0.5,0.3-1.7-0.9-1.6,0.7c-1.3,3.9-1.4,3.9-4.8,3.4c0.1-0.2,0.7-0.5,0.5-0.6
			c-1.6-0.6-2.7,0.3-3.2,1.6c-0.5,1.1-0.5,2.5,1.4,2.5c0,0,0,0,0,0c0.2,0.2,0.4,0.4,0.5,0.5c0,0,0,0,0,0c0.3,1.2-0.9,2.3-0.5,3.5
			c-0.2,0.5-0.4,1-0.6,1.5c-0.6,0.9-1,1.8,0.5,2.4c0,0.2,0,0.3,0,0.5c-1,0.1-0.8,0.8-0.8,1.5c0,0,0,0,0,0c-3.8,0.9-4.1,1.3-3,5
			c0,0.1-0.1,0.2-0.2,0.3c-1.7,0.5-4.1-0.2-4.5,2.6c0,0,0,0,0,0c-0.7,0.2-1.1,0.6-0.6,1.4c-1.2,2-2.8,2.8-5,1.4c-1.4-1-2-0.2-2.6,1
			c-1.5,3-2.4,3.2-5.2,1.4c-0.6-0.4-1.2-0.6-2-0.4c-1.8,0.4-3.7,0.2-5.2-1.1c0.1-0.1,0.3-0.2,0.4-0.3c0.9-0.3,1.9,1.1,2.6,0.1
			c0.7-1-1.1-1.1-1.1-1.9c0-0.2,0.1-0.5,0.1-0.7c1.3,0.6,2.4,0.1,3.3-0.8c0.3,0,0.5,0,0.8,0c0.2,0.1,0.4,0.2,0.6,0.4
			c0.6,0.4,1,1.2,1.8,1.2l0,0.2c1,0.4,1,0.4,1.6-1c1.2-2.7,2.6-3.3,4.8-1.9c0.5,0.3,0.8,1.2,1.6,0.6c0.8-0.6,0.3-1.3,0.1-1.9
			c-0.4-1.3-0.4-2.9,1.4-2.3c3,1,3.4-0.8,3.8-2.9c0,0,0,0,0,0c0.3-0.2,0.7-0.4,0.6-0.9l0.1,0c0.7-0.2,1.9-0.6,1.7-1.1
			c-1.2-2.7,1.1-4.1,2-6.1c-1.9-0.9-3-0.3-3.5,1.7c-0.3,1-0.7,2-1.1,3c-0.7,1.1-1.3,2.4-2.7,2.9c0-0.4-0.1-0.9,0.1-1.1
			c1.1-1.5,1.1-2.7-0.2-4.1c-0.8-0.9,0.3-1.4,1.1-1.5c1.7-0.2,2.4-0.8,1-2.3c-0.3-0.4-0.6-0.9-0.4-1.3c0.4-0.6,1-0.3,1.5-0.2
			c0.3,0,0.6,0.7,1-0.2c-2-0.6-3.3-1.5-2.4-4c0.4-1.1-1.1-0.9-1.5-0.7c-2.4,1.8-2.1-0.3-2.3-1.6c-0.1-1.9-0.7-3.4-2.9-3.7
			c-0.9-0.1-1.8-0.4-2.7-0.7l0,0c-0.2-0.8,0.4-2-1-2.3c-1.7-0.1-2.2-1.8-3.3-2.6c-0.9-1.1-2.6,0.5-3.4-1c-0.2-1.3-0.4-2.4-2-2.9
			c-1.1-0.3-2.2-1.3-2.9-2.4c1.2-0.3,2.3,0.1,3.3,0.7c0.5,0.4,1,0.8,1.6,1.2c0.1,0.1,0.2,0.2,0.4,0.2l0,0c0.3,0.2,0.7,0.5,1,0.7
			c2.8,1.9,5.7,3.7,8.5,5.6c0.8,2,3,1.1,4.5,2c-1-1.2-2.1-2.4-3.1-3.6c-1.2-2-2.7-3.7-4.4-5.2c-0.2-0.2-0.3-0.3-0.5-0.5
			c0-0.2,0-0.3,0-0.5c4.4,1.7,7.5,4.8,10.1,8.6c0.1,0.3,0.1,0.6,0.6,0.7l-0.1,0c0.2,1.4,1,2.4,1.9,3.6c0.8-3.2,0.8-6.2,0.5-9.1
			c-0.2-2.4-0.6-4.8-2.4-6.7c-2-2.7-4.6-4.2-8.1-4c-2-1.2-4.2-1-6.4-0.9c-0.5-0.1-1-0.2-1.5-0.4c5.7-1.2,11.1-0.9,16,2.7
			c0.4,0.5,0.6,1.1,1.4,1.2l0,0.1c3.1,4.9,3,10.4,2.4,15.9c-0.3,2.4,1.4,4.3,3.9,4.2c0.9-0.4,2-0.4,2.6-1.3c1.4-1.1,3.7-1.8,2.3-4.4
			c0.3-0.4,0.7-0.7,1-1.1c0.3-0.1,0.6-0.2,0.9-0.3c-0.6-0.8-1.1-1.7-1.8-2.4c-0.1-0.1-1,0.5-1.5,0.8c-2.5,0.1-3.8-0.9-3.8-2.6
			c0-1.9,1.3-2.7,3.8-2.4c0.8,0.6,1.7,1.3,1.9,2.4c0.1,1.2,0.8,1,1.5,0.8c1-0.3,0.2-0.9,0.1-1.3c-0.2-0.8-0.6-1.5-1.2-2.1
			c-0.1-0.2-0.3-0.3-0.4-0.5l0,0c0-0.8,0.2-1.7-0.4-2.6c-2.1,1.7-3.7,1.3-4.9-0.9c-0.5-1.4,1.2-1.7,1.4-2.7c0.7-0.7,0.2-1-0.5-1
			c-1.3-0.2-2.7-0.3-4-0.5c-0.7-0.3-1.4-1-1.3-1.5C288.4,337.2,286.3,337.4,285.5,336.6z"/>
		<path class="st3" d="M279,317.7c-0.5-1.1,0.3-2,0.7-3c3.1-7.7,5.3-15.8,5.8-24.1c0.8-13.6,0.1-27-5.2-39.8
			c-0.3-0.7-0.6-1.3-0.1-2.1c3.5,8.2,5.4,16.7,6.1,25.6c1.3,14.5-1,28.4-6.5,41.8C279.5,316.7,279.2,317.2,279,317.7z"/>
		<path class="st4" d="M214.2,197.9c-4.5-0.3-9-0.8-13.4-0.9c-10.6-0.2-20.9,1.7-31,5.1c-0.9,0.3-1.8,0.8-2.8,0.7c0-0.1,0-0.2,0-0.4
			c7.4-2.9,15-4.7,22.9-5.5c6.9-0.7,13.8-0.6,20.7,0.1C211.9,197.1,213.1,197.1,214.2,197.9z"/>
		<path class="st3" d="M114,270.9c-1,4-0.7,8.2-0.7,12.2c0,5.8,0.5,11.6,1.9,17.3c0.3,1.5,0.5,3,0.8,4.5c0,0.3,0,0.6,0,0.9
			c-2.3-6.9-3.2-14.1-3.4-21.3c-0.2-4.9-0.2-9.8,1-14.6C113.6,270.3,113.6,270.7,114,270.9z"/>
		<path class="st4" d="M252.4,252.5c2.5,1.7,2.8,4.5,3.9,7c3.7,8.8,4.5,18.2,4.1,27.7c-0.1,1.7-0.4,0.6-0.6,0
			C260.5,274.9,258.1,263.3,252.4,252.5z"/>
		<path class="st4" d="M203.9,341.4c0.7,0,1.4,0.2,1.3,1c-0.1,0.9-1,0.9-1.7,0.9c-6.8,0.2-13.5-0.3-20.1-2.2c-2.3-0.7-4.7-1-6.7-2.6
			c4,0.8,7.7,2.5,11.7,3.2c4.9,0.9,9.9,1.2,14.9,1C204.5,342.6,204.8,342.3,203.9,341.4z"/>
		<path class="st4" d="M114,270.9c-0.4-0.2-0.4-0.6-0.5-0.9c0.6-7.9,3-15.3,6-22.5c1-2.4,2.2-4.6,3.4-6.9c0.6,1.2-0.4,2-0.8,2.9
			C117.9,252.1,115.1,261.2,114,270.9z"/>
		<path class="st4" d="M173.4,227.7c2.6-2.4,5.9-3,9.1-4c7.4-2.3,15-2.1,22.7-2c0.8,0,1.9-0.5,2.2,0.9c-0.3,0-0.7-0.1-1-0.1
			c-0.3-0.3-0.7-0.3-1-0.2C194.2,221.6,183.6,223.2,173.4,227.7z"/>
		<path class="st4" d="M179.6,366.5c1.5-1.1,3,0,4.4,0.2c6.4,1,12.9,1.5,19.4,1.3c1.8,0,3.7-0.3,5.5-0.4c0.8,0,1.6-0.3,2.3,0.4
			C200.6,369.1,190.1,368.9,179.6,366.5z"/>
		<path class="st3" d="M199.1,269.9c0-1.4,1.4-1.5,2.2-2c6.6-3.5,13.7-5.9,21.1-6.8c0.5,0,0.9,0,1.4,0c-3.9,1-7.8,1.9-11.6,3
			C207.6,265.4,203.3,267.5,199.1,269.9z"/>
		<path class="st4" d="M237.6,204.7c-0.8,0.2-1.6-0.1-2.3-0.5c-6.3-2.7-12.8-4.6-19.5-5.8c-0.4-0.1-0.7-0.3-1.1-0.4
			c3.6-0.4,6.9,1,10.3,1.9C229.3,201.1,233.6,202.5,237.6,204.7z"/>
		<path class="st4" d="M212.2,367.6c2.9-1.4,6.2-1.2,9.3-2.1c3.6-1.1,7.2-2.3,10.8-3.4c0.6-0.2,1.2-0.6,1.7,0.1
			C227,364.8,219.8,367.2,212.2,367.6z"/>
		<path class="st4" d="M228.7,246.6c-4.9,0-9.7-0.1-14.6,0c-3.9,0.1-7.8,1.1-11.8,0.9c4-1.2,8.2-1.5,12.4-1.5
			c4.6-0.1,9.3,0.1,13.9,0.2C228.7,246.3,228.7,246.4,228.7,246.6z"/>
		<path class="st4" d="M258.9,292.2c1,1.2,0.1,2.3-0.1,3.4c-1.1,5.4-3.2,10.5-5.8,15.4c-0.3,0.5-0.5,1-1.2,1
			C255.2,305.8,257.7,299.3,258.9,292.2z"/>
		<path class="st4" d="M146.3,310.1c-0.4,0-0.8-0.1-1-0.5c-2.3-5.8-5-11.4-5-17.8c1.5,4.7,2.2,9.6,4.3,14.2
			C145.2,307.2,145.7,308.7,146.3,310.1z"/>
		<path class="st4" d="M116,305.8c0-0.3,0-0.6,0-0.9c1.8,4.3,3,8.8,4.9,13c0.9,2,2.4,3.7,2.4,6C119.9,318.2,117.5,312.2,116,305.8z"
			/>
		<path class="st4" d="M223.8,261.1c-0.5,0-0.9,0-1.4,0c2.7-1.2,5.6-1.2,8.4-1.7c3.7-0.7,7.4-1.1,11.1-1.6
			c-3.5,1.9-7.5,1.5-11.2,2.3C228.5,260.6,226.1,260.8,223.8,261.1z"/>
		<path class="st3" d="M164.1,273.8c0.8,0.7,0.3,1.4,0.1,2.2c-0.9,4.1-1,8.2-0.2,12.3c-0.4,0.2-0.4,0.5-0.5,0.9
			C162.1,284,162.3,278.9,164.1,273.8z"/>
		<path class="st4" d="M159.7,359.3c1.1-0.2,2,0.5,2.9,0.9c3.7,1.6,7.4,3,11.2,4.2c0.6,0.2,1.4,0.1,1.4,1
			C169.8,363.9,164.5,362.2,159.7,359.3z"/>
		<path class="st4" d="M210.3,223.1c0.1-0.4,0.2-0.8,0.8-0.7c4.1,0.8,8.2,1.8,12,3.5c0.4,0.2,0.7,0.4,0.6,0.9
			C219.3,225.2,214.9,223.8,210.3,223.1z"/>
		<path class="st4" d="M140.3,291.7c-1.1-0.9-0.8-2.3-0.8-3.4c-0.2-4.2-0.7-8.5,0.2-12.7C139.9,281.1,140.1,286.4,140.3,291.7z"/>
		<path class="st3" d="M240.9,367.6c0,3.4,0,6.8,2.9,9.2c0,0,0,0,0,0c0,0.3,0,0.6,0,0.9c-0.1,0.1-0.2,0.2-0.3,0.3
			c-2.3-3.1-4.1-6.4-3-10.5C240.6,367.6,240.7,367.6,240.9,367.6z"/>
		<path class="st3" d="M228.7,246.6c0-0.1,0-0.3,0-0.4c3.8,0.5,7.7,0.1,11.2,1.8C236.2,247.8,232.4,247.2,228.7,246.6z"/>
		<path class="st4" d="M139.8,275.3c-0.4-3.6,0.9-6.9,1.6-10.4c0.1-0.5,0.3-1.1,0.9-1.3C141.5,267.5,140.6,271.4,139.8,275.3z"/>
		<path class="st4" d="M163.6,289.2c0-0.4,0.1-0.7,0.5-0.9c0.3,2.7,1.3,5.2,2.2,7.8c0.3,0.7,1.1,1.5,0.3,2.4
			C165.2,295.6,164,292.5,163.6,289.2z"/>
		<path class="st4" d="M243.8,256.4c1-3.2,0.4-5.9-2.5-7.9C245.3,249.9,246.3,253.1,243.8,256.4z"/>
		<path class="st4" d="M202.5,247.4c-3.1,1.3-6.3,2.3-9.7,2.1C195.9,248.6,199.1,247.6,202.5,247.4z"/>
		<path class="st4" d="M279.8,331.1c-3.3-0.1-6.5-0.2-9.8-0.4C273.3,330,276.6,329.6,279.8,331.1z"/>
		<path class="st4" d="M290.5,336c-0.3-0.2-0.7-0.3-1-0.5c-1.3-0.6-2.9-0.6-3.6-2.3c1.9,0.8,3.8,1.5,5.7,2.3
			c0.8,0.3,1.6,0.8,1.9,1.7c-1.3,0.5-1.5-1.3-2.5-1.3C290.7,336,290.6,336,290.5,336z"/>
		<path class="st3" d="M167,202.4c0,0.1,0,0.2,0,0.4c-2.1,1.5-4.3,2.7-7,2.7C162.2,204.2,164.6,203.2,167,202.4z"/>
		<path class="st4" d="M194,282.8c-2.3-1.9-1.7-7.1,0.9-8.9C193.2,276.7,192.6,279.6,194,282.8z"/>
		<path class="st4" d="M223.7,226.9c2.8,0.1,5.1,1.1,6.8,3.4C228.2,229.2,226,228,223.7,226.9z"/>
		<path class="st3" d="M263.8,391.2c-1.1-1-2.4-1.3-3.9-1.3c-1.2,0-2.3-0.4-3.2-1.2c0.1-0.1,0.2-0.2,0.3-0.3
			c1.3,0.3,2.6,0.7,3.9,0.9c1.3,0.2,2.7,0,3.4,1.5C264.1,391,263.9,391.1,263.8,391.2z"/>
		<path class="st4" d="M288.9,384.8c-1.1-3.7-0.8-4.1,3-5c-0.3,0.3-0.5,0.8-0.8,0.8c-1.8,0-2,1-1.8,2.5
			C289.5,383.7,289.3,384.2,288.9,384.8z"/>
		<path class="st4" d="M293,369.9c-1.9-0.1-1.8-1.4-1.4-2.5c0.5-1.3,1.6-2.2,3.2-1.6c0.2,0.1-0.3,0.4-0.5,0.6
			C291.6,366.9,291.3,367.7,293,369.9z"/>
		<path class="st4" d="M268,327.5c2.1-1,4.2-1.4,6.5-1.2C272.4,327.4,270.2,327.3,268,327.5z"/>
		<path class="st4" d="M274.5,326.3c0.3-2.6,1.7-4.5,3.4-6.4C277,322.2,275.8,324.3,274.5,326.3z"/>
		<path class="st4" d="M243,207.4c-2.2-0.2-4-1.1-5.5-2.8C239.5,205.3,241.2,206.4,243,207.4z"/>
		<path class="st3" d="M277.6,243.4c-1.8-1-2.7-2.6-2.6-4.7C276.1,240.1,276.8,241.8,277.6,243.4z"/>
		<path class="st3" d="M280,248.7c-1.8-1.3-2.5-3-2.4-5.2C278.4,245.2,279.2,247,280,248.7z"/>
		<path class="st4" d="M284.3,387.6c0.3-2.8,2.7-2.2,4.5-2.6C287.7,386.7,285.2,385.8,284.3,387.6z"/>
		<path class="st4" d="M300.7,362.3c0.8-1.7,1.1-3.4,0.5-5.2c0-0.1,0-0.2,0.1-0.2c0.1,0,0.3,0,0.4,0
			C302,358.8,303.1,360.8,300.7,362.3z"/>
		<path class="st4" d="M142.3,263.7c0-2.1,0.4-4,2.1-5.4C143.7,260.1,143.3,262,142.3,263.7z"/>
		<path class="st4" d="M235.3,363c1.9,0,3.2,1.1,4.1,2.7C238,364.8,236.7,363.9,235.3,363z"/>
		<path class="st3" d="M159,206c-1.1,1.8-2.8,2.3-4.7,2.6C155.7,207.4,157.4,206.7,159,206z"/>
		<path class="st4" d="M128.5,332.6c1.5,0.9,2.7,2,2.9,3.9C130.3,335.4,129.4,334,128.5,332.6z"/>
		<path class="st4" d="M292.9,373.9c-0.3-1.2,0.8-2.3,0.5-3.5C294.7,371.8,293.9,372.9,292.9,373.9z"/>
		<path class="st4" d="M303.1,355c0.6-1.5,0.1-3,0-4.5C304.5,352,304.6,353.5,303.1,355z"/>
		<path class="st4" d="M264.6,325.3c1.6,0,2.8,0.5,3.2,2.2C266.8,326.7,265.4,326.5,264.6,325.3z"/>
		<path class="st4" d="M231.1,230.6c1.4,0,2.5,0.5,3,1.9C233.1,231.9,232.1,231.2,231.1,230.6z"/>
		<path class="st4" d="M250.3,249.2c1.7,0.5,1.8,1.9,2.1,3.3C251.7,251.4,251,250.3,250.3,249.2z"/>
		<path class="st4" d="M148.1,313.6c-1.2-0.9-2.2-1.8-1.9-3.5C146.9,311.2,147.5,312.4,148.1,313.6z"/>
		<path class="st4" d="M123.2,323.9c1.3,0.8,2.1,1.9,2,3.5C124.2,326.3,123.6,325.1,123.2,323.9z"/>
		<path class="st4" d="M138.6,344.4c1.4-0.2,2,0.6,2.1,1.9C140,345.7,139.3,345,138.6,344.4z"/>
		<path class="st4" d="M247.6,245.1c1,0.6,2.1,1.1,1.8,2.6C248.8,246.9,248.2,246,247.6,245.1z"/>
		<path class="st4" d="M292.8,377.8c-1.4-0.6-1-1.5-0.5-2.4C292.5,376.2,292.6,377,292.8,377.8z"/>
		<path class="st4" d="M247.3,210c-1.2,0.2-2.1-0.3-2.5-1.5C245.8,208.8,246.6,209.3,247.3,210z"/>
		<path class="st4" d="M240.9,367.6c-0.1,0-0.3,0-0.4,0c0.3-1-0.7-1.3-1.1-1.9C240.4,365.9,241.6,366,240.9,367.6z"/>
		<path class="st3" d="M274.6,238.1c-1.4-0.2-1.6-1.2-1.5-2.4C273.6,236.5,274.1,237.3,274.6,238.1z"/>
		<path class="st4" d="M125.1,327.3c1.2,0.4,1.7,1.2,1.5,2.5C125.9,329,125.4,328.2,125.1,327.3z"/>
		<path class="st4" d="M255.8,317.6c1.1,0.1,2.2,0.1,2.3,1.6C257.3,318.7,256.6,318.2,255.8,317.6z"/>
		<path class="st4" d="M262.6,324.2c1.3-0.7,1.6,0.3,2.1,1.1C264,325,263.3,324.6,262.6,324.2z"/>
		<path class="st4" d="M124.2,238.3c0.2,1.1,0,1.9-1.3,2.1C123.4,239.7,123.8,239,124.2,238.3z"/>
		<path class="st4" d="M194.9,273.9c-0.3-1.2,0.5-1.6,1.3-2.1c0,0.2,0,0.4,0,0.5C195.7,272.9,195.3,273.4,194.9,273.9z"/>
		<path class="st3" d="M271.6,233.4c-1.3-0.1-1.4-1-1.5-2C270.8,231.9,271.2,232.6,271.6,233.4z"/>
		<path class="st4" d="M255.2,215.7c-1.2,0.2-1.9-0.1-1.8-1.5C254,214.7,254.6,215.2,255.2,215.7z"/>
		<path class="st3" d="M197.2,271.4c0-1.3,1-1.4,1.9-1.5C198.5,270.4,197.8,270.9,197.2,271.4z"/>
		<path class="st4" d="M152,319.4c-1.3-0.1-1.4-1-1.5-2C151.2,317.9,151.6,318.6,152,319.4z"/>
		<path class="st3" d="M277.8,320c0-0.9-0.4-2.1,1.2-2.3C278.6,318.4,278.2,319.2,277.8,320z"/>
		<path class="st4" d="M131.4,336.5c1.1,0.1,1.7,0.5,1.3,1.6C132.3,337.6,131.9,337,131.4,336.5z"/>
		<path class="st4" d="M257,217.3c-1.1,0-1.8-0.4-1.9-1.6C255.8,216.2,256.4,216.8,257,217.3z"/>
		<path class="st4" d="M261,322.2c1.1,0.2,1.5,0.8,1.3,1.9C261.6,323.6,261.4,322.8,261,322.2z"/>
		<path class="st4" d="M136.7,342.5c1.3-0.3,1.4,0.6,1.5,1.5C137.7,343.5,137.2,343,136.7,342.5z"/>
		<path class="st4" d="M249.3,211.4c-1.2,0.3-1.7-0.4-2.1-1.4C247.9,210.5,248.6,210.9,249.3,211.4z"/>
		<path class="st4" d="M283.7,332.5c-1,0.1-1.9-0.1-2.5-1C282.2,331.6,283,331.8,283.7,332.5z"/>
		<path class="st4" d="M251.6,213c-0.8-0.1-1.8,0.2-1.6-1.2C250.5,212.2,251.1,212.6,251.6,213z"/>
		<path class="st4" d="M132.7,338.1c1.2,0,1.6,0.7,1.7,1.8C133.8,339.3,133.3,338.7,132.7,338.1z"/>
		<path class="st3" d="M154.3,208.6c-0.3,0.9-0.9,1.4-1.9,1.1C153.1,209.3,153.7,208.9,154.3,208.6z"/>
		<path class="st4" d="M171.3,228.9c0.1-1.6,1.2-1.1,2.1-1.2C172.7,228.1,172,228.5,171.3,228.9z"/>
		<path class="st4" d="M169,230c-0.2-1.6,0.9-0.8,1.6-0.9C170,229.5,169.5,229.8,169,230z"/>
		<path class="st4" d="M183.9,322.4c1,0,1.5,0.5,1.5,1.5C184.9,323.4,184.4,322.9,183.9,322.4z"/>
		<path class="st4" d="M259.1,219c-1.1,0.2-1.4-0.5-1.6-1.3C258,218.1,258.6,218.6,259.1,219z"/>
		<path class="st4" d="M299.2,363c-0.1-1.6,1.1-0.4,1.6-0.7C300.4,362.9,299.7,362.7,299.2,363z"/>
		<path class="st4" d="M149.3,315.3c-1.2-0.1-1.1-1-1.2-1.8C148.5,314.1,148.9,314.7,149.3,315.3z"/>
		<path class="st4" d="M244.9,208.6c-0.8,0-1.7,0-1.9-1.2C243.6,207.8,244.2,208.2,244.9,208.6z"/>
		<path class="st4" d="M285.7,333.3c-0.9,0.4-1.6,0-2.1-0.8C284.4,332.5,285.1,332.8,285.7,333.3z"/>
		<path class="st4" d="M234,232.5c0.7,0,1.5-0.1,1.5,1C235,233.2,234.5,232.8,234,232.5z"/>
		<path class="st4" d="M291.9,379.8c0-0.7-0.2-1.4,0.8-1.5C292.6,378.8,292.5,379.4,291.9,379.8z"/>
		<path class="st4" d="M158,326c-1,0.1-1.5-0.4-1.5-1.4C157,325,157.5,325.5,158,326z"/>
		<path class="st3" d="M248.1,382.2c-0.6-0.2-1.1-0.5-1.4-1.1c0.2,0,0.4,0,0.6,0c0.6,0,1,0.3,1,1L248.1,382.2z"/>
		<path class="st4" d="M155.8,357.3c1-0.8,1.2,0,1.3,0.7C156.7,357.8,156.3,357.6,155.8,357.3z"/>
		<path class="st4" d="M283.6,389c-0.4-0.8,0-1.1,0.6-1.4C284.2,388.1,284.1,388.6,283.6,389z"/>
		<path class="st3" d="M272.5,234.8c-0.8-0.2-1.1-0.7-1-1.5C271.9,233.9,272.2,234.3,272.5,234.8z"/>
		<path class="st4" d="M236.3,234.1c0.8-0.3,1.1,0,1.1,0.8C237,234.7,236.7,234.4,236.3,234.1z"/>
		<path class="st4" d="M150.6,317.4c-0.8-0.2-1.1-0.7-1-1.5C149.9,316.4,150.3,316.9,150.6,317.4z"/>
		<path class="st4" d="M238.7,236.1c0.8-0.3,1.1,0.1,1.1,0.9C239.5,236.6,239.1,236.4,238.7,236.1z"/>
		<path class="st4" d="M195.9,286.3c-0.7-0.2-0.8-0.6-0.4-1.1C195.6,285.6,195.8,286,195.9,286.3z"/>
		<path class="st4" d="M153.1,320.7c-0.9,0-1.2-0.6-1.1-1.4C152.4,319.8,152.7,320.3,153.1,320.7z"/>
		<path class="st3" d="M269.7,230.9c-0.9-0.1-1.2-0.6-1.1-1.4C269.2,229.8,269.5,230.3,269.7,230.9z"/>
		<path class="st4" d="M182.8,321.3c1.1-0.3,1.1,0.4,1.2,1.2C183.6,322,183.2,321.7,182.8,321.3z"/>
		<path class="st3" d="M268.7,229.5c-0.8,0-1.1-0.3-0.8-1.1C268.1,228.7,268.4,229.1,268.7,229.5z"/>
		<path class="st4" d="M240.8,237.8c0.7,0.1,1.5,0.1,1.2,1.2C241.6,238.6,241.2,238.2,240.8,237.8z"/>
		<path class="st4" d="M158.1,358.6c0.8-0.4,1.3,0,1.6,0.8C159.2,359.1,158.6,358.8,158.1,358.6z"/>
		<path class="st3" d="M267.8,228.3c-1,0.1-1.2-0.5-1.2-1.3C267.1,227.5,267.5,227.9,267.8,228.3z"/>
		<path class="st3" d="M254.4,386.6c-0.4-0.3-0.8-0.5-1.2-0.8c0.1-0.1,0.2-0.2,0.3-0.3c0.6,0,1,0.3,1,1L254.4,386.6z"/>
		<path class="st4" d="M302.7,349.5c-0.6,0-1.4,0.2-1-0.9C302,348.9,302.4,349.2,302.7,349.5z"/>
		<path class="st4" d="M243,240.1c1.1-0.3,1.1,0.4,1.2,1.2C243.8,240.9,243.4,240.5,243,240.1z"/>
		<path class="st4" d="M190.3,328.7c0.7,0,1.5,0,1.1,1.2C191,329.5,190.6,329.1,190.3,328.7z"/>
		<path class="st4" d="M126.6,329.7c0.8,0.2,1.1,0.7,1,1.5C127,330.8,126.8,330.3,126.6,329.7z"/>
		<path class="st4" d="M141.2,346.7c0.8,0,1.5,0.1,1.2,1.2C142,347.5,141.6,347.1,141.2,346.7z"/>
		<path class="st4" d="M241.9,257.8c0.2-0.8,0.7-1.1,1.5-1C243,257.4,242.5,257.7,241.9,257.8z"/>
		<path class="st3" d="M251,384.2c-0.6-0.1-1.1-0.5-1.4-1c0,0,0.1-0.1,0.1-0.1c0.7,0,1.2,0.3,1.5,1L251,384.2z"/>
		<path class="st4" d="M246.5,243.8c1-0.1,1.2,0.5,1.2,1.3C247.2,244.7,246.8,244.3,246.5,243.8z"/>
		<path class="st4" d="M127.5,331.2c0.8,0.2,1.1,0.7,1,1.5C128,332.3,127.7,331.8,127.5,331.2z"/>
		<path class="st4" d="M134.8,340.4c0.8-0.1,1.1,0.3,1,1.1C135.5,341.1,135.1,340.8,134.8,340.4z"/>
		<path class="st4" d="M200.8,338.6c0.7-0.1,1,0.3,1.1,0.9C201.5,339.2,201.2,338.9,200.8,338.6z"/>
		<path class="st4" d="M241.4,248.5c-0.6,0-1.2,0.2-1.5-0.5C240.4,248.1,241.1,247.7,241.4,248.5z"/>
		<path class="st4" d="M281.3,331.6c-0.6,0-1.2,0.2-1.5-0.5C280.3,331.2,281,330.8,281.3,331.6z"/>
		<path class="st4" d="M202.9,340.4c0.7-0.1,1.1,0.3,1,1C203.6,341.1,203.2,340.7,202.9,340.4z"/>
		<path class="st4" d="M135.7,341.4c0.7,0.1,1,0.4,0.9,1.1C136.4,342.2,136,341.8,135.7,341.4z"/>
		<path class="st4" d="M191.6,330.1c0.8-0.3,1.1,0,0.8,0.8C192.1,330.6,191.8,330.3,191.6,330.1z"/>
		<path class="st4" d="M259.8,219.8c-0.1,0.2-0.3,0.3-0.6,0.1c-0.3-0.2-0.3-0.5-0.1-0.8C259.4,219.3,259.6,219.6,259.8,219.8z"/>
		<path class="st4" d="M188.3,326.8c0.7-0.1,1.1,0.3,1,1C189,327.5,188.6,327.1,188.3,326.8z"/>
		<path class="st4" d="M159,326.9c-0.8,0.3-1.1-0.1-1-0.9C158.3,326.3,158.6,326.6,159,326.9z"/>
		<path class="st4" d="M186.8,325.3c0.7,0,1.1,0.3,1,1C187.5,326,187.2,325.6,186.8,325.3z"/>
		<path class="st4" d="M156.5,324.6c-0.7,0.1-1.1-0.2-0.9-1C155.9,323.9,156.2,324.2,156.5,324.6z"/>
		<path class="st3" d="M255.4,387.6c-0.3-0.3-0.7-0.6-1-0.9c0,0,0.1-0.1,0.1-0.1C255.1,386.5,255.4,386.9,255.4,387.6L255.4,387.6z"
			/>
		<path class="st4" d="M257.5,323.3c-0.8,0.1-1.1-0.2-1-1C256.8,322.6,257.2,322.9,257.5,323.3z"/>
		<path class="st4" d="M154,321.8c-0.6-0.1-1-0.4-0.9-1.1C153.4,321.1,153.7,321.5,154,321.8z"/>
		<path class="st4" d="M258.1,319.3c0.8-0.3,1,0.2,1.2,0.8C258.9,319.8,258.5,319.5,258.1,319.3z"/>
		<path class="st4" d="M239.8,236.9c0.7-0.1,1.1,0.3,1,1C240.5,237.5,240.1,237.2,239.8,236.9z"/>
		<path class="st4" d="M251.9,312c0.2,0.6,0,1-0.6,1.1C251.5,312.7,251.7,312.4,251.9,312z"/>
		<path class="st3" d="M196.2,272.4c0-0.2,0-0.4,0-0.5c0.2-0.4,0.6-0.5,1-0.4C196.9,271.7,196.5,272,196.2,272.4z"/>
		<path class="st3" d="M256.6,388.7c-0.3-0.2-0.5-0.5-0.8-0.7c0,0,0.1-0.1,0.1-0.1c0.4,0,0.8,0.1,1,0.5
			C256.8,388.5,256.7,388.6,256.6,388.7z"/>
		<path class="st4" d="M195.5,285.1c-0.7,0.1-0.7-0.3-0.7-0.8C195,284.6,195.2,284.9,195.5,285.1z"/>
		<path class="st4" d="M194.8,284.4c-0.5-0.1-0.6-0.5-0.6-1C194.4,283.8,194.6,284.1,194.8,284.4z"/>
		<path class="st4" d="M252.7,315.6c0.4,0,0.7,0.1,0.8,0.6C253.2,316,252.7,316.1,252.7,315.6z"/>
		<path class="st4" d="M253.4,316.1c0.5,0,0.9,0,0.9,0.6C254,316.5,253.7,316.3,253.4,316.1z"/>
		<path class="st4" d="M254.9,317.1c0.5,0,0.9,0,1,0.6C255.5,317.6,255.1,317.5,254.9,317.1z"/>
		<path class="st4" d="M260.5,321.4c0.4,0.1,0.7,0.2,0.4,0.7C260.8,321.9,260.7,321.6,260.5,321.4z"/>
		<path class="st4" d="M256.5,322.3c-0.2,0-0.5,0-0.7-0.1c0.1-0.1,0.1-0.3,0.2-0.4C256.2,322,256.3,322.2,256.5,322.3z"/>
		<path class="st3" d="M160,205.5c0,0.7-0.4,0.7-0.9,0.5C159.3,205.8,159.7,205.6,160,205.5z"/>
		<path class="st4" d="M155.6,323.5c-0.7,0.2-0.7-0.3-0.7-0.7C155.1,323,155.4,323.3,155.6,323.5z"/>
		<path class="st4" d="M258.1,323.9c-0.7,0.3-0.7-0.2-0.7-0.7C257.7,323.4,257.9,323.7,258.1,323.9z"/>
		<path class="st3" d="M253.2,385.8c-0.3-0.2-0.5-0.4-0.8-0.7c0,0,0.1-0.1,0.1-0.1c0.4,0,0.8,0.1,1,0.5
			C253.4,385.6,253.3,385.7,253.2,385.8z"/>
		<path class="st4" d="M258.9,325.8c-0.5-0.2-0.5-0.7-0.4-1.1C259,324.9,258.8,325.4,258.9,325.8z"/>
		<path class="st4" d="M199.6,337.4c0.4,0.1,0.9,0.1,0.7,0.7C200,337.9,199.8,337.7,199.6,337.4z"/>
		<path class="st3" d="M251.8,384.9c-0.3-0.2-0.6-0.5-0.8-0.7c0,0,0.1-0.1,0.1-0.1c0.4,0,0.8,0.1,1,0.5
			C252,384.7,251.9,384.8,251.8,384.9z"/>
		<path class="st4" d="M249.4,247.7c0.6,0,0.7,0.4,0.7,0.9C249.8,248.3,249.6,248,249.4,247.7z"/>
		<path class="st4" d="M245.5,242.6c0.8-0.3,0.6,0.2,0.6,0.7C245.9,243.1,245.7,242.8,245.5,242.6z"/>
		<path class="st4" d="M244.2,241.2c0.4,0.1,0.9,0,0.6,0.7C244.6,241.7,244.4,241.5,244.2,241.2z"/>
		<path class="st4" d="M144,349.2c0.2,0.1,0.9-0.4,0.5,0.5C144.4,349.5,144.2,349.3,144,349.2z"/>
		<path class="st4" d="M303.2,350.5c-0.5-0.2-0.6-0.6-0.5-1C303.2,349.6,303.1,350.1,303.2,350.5z"/>
		<path class="st4" d="M302.5,355.6c-0.3-0.7,0.2-0.6,0.6-0.6C303,355.2,302.7,355.4,302.5,355.6z"/>
		<path class="st4" d="M157.1,358c0.5-0.1,0.9-0.1,1,0.6C157.8,358.4,157.4,358.2,157.1,358z"/>
		<path class="st4" d="M234.5,362.2c0.5,0,0.9,0.1,0.8,0.7C235,362.7,234.7,362.5,234.5,362.2z"/>
		<path class="st3" d="M248.9,382.9c-0.3-0.2-0.5-0.5-0.8-0.7c0,0,0.1-0.1,0.1-0.1c0.4,0,0.8,0.1,1,0.5
			C249,382.7,249,382.8,248.9,382.9z"/>
		<path class="st3" d="M273.1,235.7c-0.6,0-0.7-0.4-0.6-0.9C272.7,235.1,272.9,235.4,273.1,235.7z"/>
		<path class="st4" d="M237.4,234.9c0.5,0,0.9,0,0.7,0.7C237.8,235.4,237.6,235.2,237.4,234.9z"/>
		<path class="st4" d="M235.4,233.5c0.5,0,0.9,0.1,0.9,0.7C236,233.9,235.7,233.7,235.4,233.5z"/>
		<path class="st4" d="M244.2,378.8c-0.3-0.2-0.5-0.5-0.8-0.7c0.1-0.1,0.2-0.2,0.3-0.3C244.2,378,244.3,378.3,244.2,378.8
			L244.2,378.8z"/>
		<path class="st2" d="M205.3,222.3c0.4-0.1,0.7-0.1,1,0.2C206,222.4,205.7,222.4,205.3,222.3z"/>
		<path class="st4" d="M246,380.6c-0.3-0.3-0.6-0.6-0.8-0.9c0,0,0.1-0.1,0.1-0.1c0.4,0,0.8,0.1,1,0.5
			C246.1,380.3,246.1,380.5,246,380.6z"/>
		<path class="st4" d="M245.2,379.8c-0.2-0.2-0.3-0.3-0.5-0.5c0,0,0.1-0.1,0.1-0.1C244.9,379.4,245.1,379.5,245.2,379.8L245.2,379.8
			z"/>
		<path class="st4" d="M257.6,217.8c-0.3,0-0.5-0.2-0.6-0.5C257.2,217.4,257.4,217.6,257.6,217.8z"/>
		<path class="st4" d="M244.7,379.3c-0.2-0.2-0.3-0.3-0.5-0.5c0,0,0.1-0.1,0.1-0.1C244.4,378.9,244.6,379.1,244.7,379.3L244.7,379.3
			z"/>
		<path class="st3" d="M266.7,227.1c-0.2-0.2-0.3-0.4-0.5-0.6C266.4,226.7,266.5,226.9,266.7,227.1z"/>
		<path class="st4" d="M246.6,381.1c-0.2-0.2-0.4-0.3-0.5-0.5c0-0.2,0.1-0.3,0.2-0.4c0.2,0.2,0.3,0.3,0.5,0.5
			C246.6,380.8,246.6,381,246.6,381.1z"/>
		<path class="st4" d="M170.5,229.2c0.1-0.3,0.2-0.5,0.6-0.2C170.9,229,170.7,229.1,170.5,229.2z"/>
		<path class="st4" d="M230.5,230.2c0.3-0.1,0.6,0,0.7,0.3C230.9,230.5,230.7,230.4,230.5,230.2z"/>
		<path class="st3" d="M270.1,231.4c-0.3-0.1-0.5-0.3-0.4-0.6C269.8,231,270,231.2,270.1,231.4z"/>
		<path class="st4" d="M293.5,370.4c-0.2-0.2-0.4-0.4-0.5-0.5C293.1,370.1,293.3,370.2,293.5,370.4z"/>
		<path class="st4" d="M247.2,381.2c-0.2,0-0.4,0-0.6,0c0,0-0.1-0.1-0.1-0.1c0-0.2,0.1-0.3,0.1-0.4C246.9,380.8,247,381,247.2,381.2
			z"/>
		<path class="st4" d="M238.2,235.7c0.4-0.2,0.5,0,0.5,0.3C238.6,236,238.4,235.9,238.2,235.7z"/>
		<path class="st4" d="M158.8,237.4c0.2-0.2,0.5-0.4,0.7-0.6C159.2,237.1,159,237.2,158.8,237.4z"/>
		<path class="st4" d="M158.3,237.9c0.2-0.2,0.4-0.4,0.6-0.5C158.7,237.5,158.5,237.7,158.3,237.9z"/>
		<path class="st3" d="M249.5,383.2c-0.2-0.1-0.4-0.2-0.6-0.3c0.1-0.1,0.2-0.2,0.2-0.3c0.2,0.2,0.3,0.3,0.5,0.5L249.5,383.2z"/>
		<path class="st4" d="M157.8,238.4c0.2-0.2,0.4-0.4,0.6-0.5C158.2,238,158,238.2,157.8,238.4z"/>
		<path class="st4" d="M157.3,238.9c0.2-0.2,0.4-0.4,0.5-0.5C157.7,238.5,157.5,238.7,157.3,238.9z"/>
		<path class="st3" d="M275,238.7c-0.3-0.1-0.4-0.3-0.3-0.7C274.7,238.3,274.9,238.5,275,238.7z"/>
		<path class="st4" d="M156.8,239.3c0.2-0.2,0.4-0.4,0.5-0.5C157.2,239,157,239.2,156.8,239.3z"/>
		<path class="st4" d="M242.1,239.1c0.4-0.2,0.5,0,0.4,0.4C242.4,239.4,242.2,239.2,242.1,239.1z"/>
		<path class="st4" d="M302.2,355.9c-0.1,0-0.1-0.1-0.2-0.1C302.1,355.8,302.2,355.9,302.2,355.9
			C302.2,355.9,302.2,355.9,302.2,355.9z"/>
		<path class="st4" d="M156.3,239.8c0.2-0.2,0.4-0.4,0.5-0.5C156.7,239.5,156.5,239.7,156.3,239.8z"/>
		<path class="st4" d="M242.6,239.6c0.4-0.1,0.5,0,0.4,0.4C242.9,239.9,242.7,239.7,242.6,239.6z"/>
		<path class="st4" d="M155.8,240.3c0.2-0.2,0.4-0.4,0.5-0.5C156.2,240,156,240.1,155.8,240.3z"/>
		<path class="st4" d="M143.5,348.7c0.3,0,0.5,0.1,0.6,0.5C143.9,349.1,143.7,348.9,143.5,348.7z"/>
		<path class="st4" d="M155.4,240.9c0.2-0.2,0.4-0.4,0.5-0.6C155.7,240.5,155.5,240.7,155.4,240.9z"/>
		<path class="st4" d="M143,348.3c0.4-0.1,0.6,0.1,0.6,0.5C143.3,348.6,143.2,348.5,143,348.3z"/>
		<path class="st4" d="M142.5,348c0.4-0.2,0.5,0,0.5,0.4C142.8,348.2,142.7,348.1,142.5,348z"/>
		<path class="st4" d="M245.1,242.2c0.1,0,0.2-0.1,0.3-0.1c0,0.1-0.1,0.2-0.1,0.3C245.2,242.3,245.2,242.2,245.1,242.2z"/>
		<path class="st4" d="M140.6,346.2c0.2,0.2,0.4,0.4,0.6,0.5C141,346.6,140.8,346.4,140.6,346.2z"/>
		<path class="st4" d="M138.1,343.9c0.4,0,0.5,0.2,0.5,0.5C138.5,344.3,138.3,344.1,138.1,343.9z"/>
		<path class="st4" d="M246.1,243.2c0.3,0.1,0.5,0.3,0.4,0.6C246.4,243.6,246.2,243.4,246.1,243.2z"/>
		<path class="st4" d="M202.3,339.9c0.2,0.2,0.4,0.3,0.6,0.5C202.7,340.3,202.5,340.1,202.3,339.9z"/>
		<path class="st4" d="M134.3,339.9c0.2,0.2,0.4,0.4,0.5,0.6C134.7,340.3,134.5,340.1,134.3,339.9z"/>
		<path class="st4" d="M201.8,339.5c0.3,0,0.5,0.2,0.6,0.5C202.2,339.8,202,339.7,201.8,339.5z"/>
		<path class="st4" d="M200.3,338.2c0.4-0.1,0.5,0.1,0.5,0.4C200.6,338.5,200.5,338.4,200.3,338.2z"/>
		<path class="st4" d="M253.2,214.1c-0.4,0.2-0.5,0-0.6-0.3C252.9,213.9,253,214,253.2,214.1z"/>
		<path class="st4" d="M250,248.5c0.3,0.1,0.5,0.3,0.4,0.7C250.3,249,250.1,248.8,250,248.5z"/>
		<path class="st4" d="M193.1,331.5c0.1-0.1,0.2-0.1,0.3-0.2c-0.1,0.1-0.1,0.2-0.2,0.3C193.2,331.6,193.1,331.5,193.1,331.5z"/>
		<path class="st4" d="M243.3,256.9c0.2-0.2,0.4-0.4,0.5-0.6C243.7,256.5,243.5,256.7,243.3,256.9z"/>
		<path class="st4" d="M192.6,331c0.4-0.2,0.4-0.1,0.3,0.3C192.7,331.3,192.6,331.2,192.6,331z"/>
		<path class="st4" d="M189.8,328.2c0.2,0.2,0.4,0.4,0.5,0.5C190.1,328.6,189.9,328.4,189.8,328.2z"/>
		<path class="st4" d="M189.3,327.7c0.2,0.2,0.4,0.4,0.5,0.5C189.6,328.1,189.4,327.9,189.3,327.7z"/>
		<path class="st4" d="M159.2,327.2c-0.1,0.1-0.2,0.1-0.3,0.2c0.1-0.1,0.1-0.2,0.2-0.3C159.1,327,159.2,327.2,159.2,327.2z"/>
		<path class="st4" d="M187.8,326.3c0.2,0.2,0.4,0.4,0.5,0.5C188.2,326.6,188,326.5,187.8,326.3z"/>
		<path class="st3" d="M252.4,385.2c-0.2-0.1-0.4-0.2-0.6-0.3c0.1-0.1,0.2-0.2,0.2-0.3c0.2,0.2,0.3,0.3,0.5,0.5L252.4,385.2z"/>
		<path class="st4" d="M258.5,324.7c-0.3-0.1-0.5-0.2-0.3-0.6C258.4,324.3,258.4,324.5,258.5,324.7z"/>
		<path class="st4" d="M252.7,213.8c-0.3,0-0.5-0.1-0.6-0.5C252.3,213.5,252.5,213.7,252.7,213.8z"/>
		<path class="st4" d="M185.8,324.3c0.2,0.2,0.4,0.4,0.6,0.6C186.2,324.7,186,324.5,185.8,324.3z"/>
		<path class="st4" d="M252.2,213.4c-0.2-0.2-0.4-0.3-0.6-0.5C251.8,213.1,252,213.3,252.2,213.4z"/>
		<path class="st4" d="M154.9,322.8c-0.2-0.2-0.3-0.4-0.5-0.6C154.6,322.5,154.7,322.7,154.9,322.8z"/>
		<path class="st4" d="M249.8,211.7c-0.4,0.2-0.5,0-0.5-0.3C249.5,211.4,249.6,211.5,249.8,211.7z"/>
		<path class="st4" d="M259.7,320.5c0.2,0.2,0.4,0.4,0.5,0.6C260.1,320.8,259.9,320.6,259.7,320.5z"/>
		<path class="st4" d="M182.5,320.9c0.1-0.1,0.2-0.1,0.3-0.2c-0.1,0.1-0.1,0.2-0.2,0.3C182.6,321.1,182.5,320.9,182.5,320.9z"/>
		<path class="st4" d="M254.3,316.7c0.3,0,0.5,0.1,0.7,0.4C254.7,317,254.5,316.8,254.3,316.7z"/>
		<path class="st4" d="M149.6,316c-0.3-0.1-0.5-0.3-0.4-0.6C149.4,315.6,149.5,315.8,149.6,316z"/>
		<path class="st4" d="M194.3,283.5c-0.3-0.1-0.4-0.4-0.3-0.7C194.1,283,194.2,283.2,194.3,283.5z"/>
		<path class="st3" d="M255.9,388c-0.2-0.2-0.3-0.3-0.5-0.5c0,0,0.1-0.1,0.1-0.1C255.6,387.6,255.8,387.8,255.9,388L255.9,388z"/>
		<path class="st5" d="M284,341.8c-4.9-3.6-10.3-3.9-15.9-2.7c-3.5,0.8-6.9,1.9-9.2,4.8c-0.3-0.2-0.7-0.5-1-0.5
			c-0.6,0.1-0.3,0.5-0.1,0.9c0.6,1.3,1.2,2.5,1.8,3.8c-0.7,0.2-1.2,0.8-1.7,1.3c-1.9,2-3,4.5-3.8,7.1c-0.2,0.9-0.7,1.7-1.6,0.8
			c-2-2-4.7-3.4-6.3-5.8c1.1-3.5,3.4-6.3,5.4-9.2c0.2-0.1,0.4-0.1,0.3-0.4c0,0-0.3,0.1-0.5,0.2c-3,2.6-4.9,5.9-6.7,9.4
			c-1.6-1.3-3.3-2.7-4.9-4c0.1-0.4,0.2-0.8,0.3-1.2c0,0,0,0,0,0c0.2-0.3,0.3-0.7,0.5-1c0,0,0,0,0,0c0.5-0.9,1.1-1.9,1.6-2.8
			c0,0,0.1-0.1,0.1-0.1c0.2-0.4,0.5-0.7,0.7-1.1c2.8-3.4,5.9-6.4,9.7-8.5c4.1-2.3,8.1-2.6,12.2,0.3c1.6,1.1,3.3,2.9,5.5,1
			c4.2-1,8.4-0.8,12.4,1c0,0,0,0,0,0c0.3,0.2,0.7,0.4,1,0.7c0.2,0.1,0.5,0.2,0.7,0.3c0.3,0.5,0.8,0.5,1.2,0.6c0,0,0,0,0,0
			c0.8,0.8,2.9,0.6,2.2,2.7c-0.2,0.5,0.6,1.2,1.3,1.5c1,0.7,1.9,1.4,0.9,2.7c-0.9,1.1-1.5-0.1-2.1-0.4c-0.8-0.4-1.5-0.5-2.3-0.1
			c0,0,0-0.1,0-0.1C285.5,341.9,284.7,341.9,284,341.8z"/>
		<path class="st6" d="M203.8,313.1c0.3-2,1.8-3,3.3-4c5.1-3.1,10.3-4.9,16.1-1.5c4.3,2.5,8.7,4.6,13.4,7.1c-2.4,0.8-4.4,1.2-6.2,2
			c-3.1,1.4-5.7,3.6-7.9,6.3c-0.5,0.6-0.8,1.2-1.6,1.3c-1-1.5-2.8-2.1-4.2-3C212.5,318.6,208.4,315.5,203.8,313.1z"/>
		<path class="st7" d="M203.8,313.1c4.5,2.4,8.6,5.5,12.9,8.3c1.4,0.9,3.2,1.5,4.2,3c-1.1,2.4-2.3,4.8-3.4,7.2
			c-1.1,2.3-1.8,4.8-2.1,7.5c-2.5-1.4-4.3-3.4-6.4-5.1c-3.1-2.6-5.9-5.5-8.9-8.2c-0.8-0.8-1.3-1.6-1.2-2.8c0.5-3.4,2-6.4,3.7-9.4
			C203,313.4,203.5,313.3,203.8,313.1z"/>
		<path class="st8" d="M190.8,302.5c-3.7,4.2-5.6,9.1-5.7,14.8c-3.6-4.9-8.7-8.8-9.4-15.4c0.3-4,1.5-7.7,4.9-10.2
			C183.9,295.4,187.8,298.5,190.8,302.5z"/>
		<path class="st9" d="M232.2,331.1c-3.8,5.4-6.3,11.3-5.9,18.1c0.1,1,0.2,2.1,0.3,3.5c-2.3-1.7-4.8-2.8-6.4-4.8
			c-1.8-2.3-1.5-5.4-1.1-8.2c0.7-5.2,2.6-10,6.2-14C227.2,328,230.1,329,232.2,331.1z"/>
		<path class="st10" d="M190.8,302.5c-3-4-6.9-7.1-10.2-10.7c3.8-2.7,8.1-3.3,12.6-2.7c3,2.5,6,5,9.4,7.7
			C197.8,297.3,194.5,300.3,190.8,302.5z"/>
		<path class="st11" d="M269.1,387.5c-0.9,0.9-2,1.4-3.3,0.8c0,0,0,0,0,0c-1.8-2.7-4.9-1.7-7.3-2.5c-0.2-0.1-0.3-0.2-0.5-0.4
			c-0.2-0.4-0.5-0.6-0.9-0.6c0,0,0,0,0,0c-0.2-0.2-0.4-0.3-0.5-0.5l0,0c-0.2-0.4-0.5-0.6-0.9-0.6l0,0c-0.2-0.2-0.4-0.3-0.5-0.5l0,0
			c-0.2-0.2-0.4-0.3-0.6-0.5l0,0c-0.4-0.5-0.9-0.8-1.5-1l0,0c0-0.1-0.1-0.3-0.1-0.4c0.1-0.1,0.1-0.2,0.2-0.3c-0.2,0-0.5-0.1-0.7-0.1
			l0,0c0-0.1,0-0.3-0.1-0.4c-0.1,0.1-0.2,0.1-0.3,0.2c-0.2-0.1-0.3-0.2-0.5-0.4c-0.2-0.2-0.4-0.4-0.5-0.6l0,0.1
			c-0.1-0.8-0.7-1.1-1.4-1.1c-0.5-1.4-1.6-2.1-2.9-2.4c0-0.8-0.3-1.3-1.1-1.4l0,0c0.1-0.5,0-0.9-0.5-1l0,0c-0.2-2.7-1-5.3-0.1-8
			c0-0.1-0.2-0.2-0.3-0.3c-0.1-0.6-0.5-0.8-1-1.1c0,0,0,0,0,0c-0.2-0.2-0.4-0.3-0.5-0.5c0,0,0,0,0,0c-0.8-1-1.9-1.6-3-2.3
			c-0.1-0.1-0.2-0.2-0.3-0.2c-0.1-0.1-0.1-0.3-0.2-0.4c0.5-1.1-0.6-1.1-1-1.5c-0.7-1-0.7-2.1-0.2-2.9c0.7-1,1.1,0.3,1.6,0.7
			c1,0.8,1.7,0.2,2.3-0.6c0.5,0.9-0.5,2.2,0.9,2.8c0.2,0,0.5,0.1,0.7,0.1c0.2,0,0.4,0,0.5,0c1.7,1.9,2,4.8,4.2,6.4
			c-0.3,0.3-1.8-0.6-0.8,0.9c-1.4,0-1.8,0.5-1.1,1.8c0.3,0.7,1,1.1,1.4,1.6c0.7,1.2,2.8,1.2,2.7,3c-0.1,1.5,0.5,2.5,1.5,3.4
			c1.3,1.1,2.6,2.2,3.9,3.2c-0.4,1,0.4,0.3,0.7,0.5c0.2,0.1,0.5,0.3,0.7,0.4c0.1,0.6,0.5,0.6,1,0.6l0,0c0.2,0.2,0.4,0.3,0.6,0.5
			l0.1-0.1c0,0.3,0,0.8,0.1,0.9c3.4,1.7,7,2.8,10.8,2.6c1.1-0.1,2.2-0.5,2.8,0.5c0.6,1.1-0.2,2-0.9,2.8c0,0,0-0.2,0-0.2
			C271.7,387.6,271.1,386.1,269.1,387.5z"/>
		<path class="st12" d="M232.2,331.1c-2-2.1-5-3.1-6.9-5.4c3.4-4.1,7.7-6.5,12.8-7.6c4.5-1,7.3,2.1,10.7,3.9
			C241.6,322.2,236.6,326.1,232.2,331.1z"/>
		<path class="st9" d="M194.6,328.3c-1.6-1.9-3.3-3.7-4.6-5.8c-1.4-2.2-1-4.7-0.6-7.2c0.5-3.8,1.9-7.3,4.8-10
			c2.5,1.2,4.2,3.4,6.5,4.9c-4.1,5.2-6.4,11-5.7,17.8C194.8,328.1,194.7,328.2,194.6,328.3z"/>
		<path class="st8" d="M174.7,299c-0.2,0.4-0.5,0.8-0.7,1.2c-2.5-3.1-4-6.6-4.8-10.5c-1.1-5,2.1-10.8,7.1-12.6
			c-1.2,5.1,0.8,9.5,3.4,13.7C177.4,293.2,175.1,295.5,174.7,299z"/>
		<path class="st10" d="M179.6,290.9c-2.6-4.2-4.6-8.6-3.4-13.7c3.3-1.6,6.6-1.5,9.7,0.5c-0.1,2.4,0.9,4.5,1.8,6.6
			c0.5,1.1,1.3,2.2,1.1,3.6C185.5,288,182.5,289.3,179.6,290.9z"/>
		<path class="st8" d="M179.7,261.2c0.3,0,0.6,0,0.9,0c1,0.6,2.2,0.5,3,1.4c-1,0.8-1.3,2-1.8,3.1c-1.7,3.1-2.4,6.7-4.6,9.6
			c-3.4,1.3-6.7,2.9-9.3,6.5c0.2-8.8,4.9-14.3,10.3-19.5c0.5-0.1,1-0.4,1-1c0,0,0,0,0,0C179.3,261.2,179.5,261.2,179.7,261.2z"/>
		<path class="st6" d="M236,334c2.3-3.7,5.3-6.5,9.6-8c4.2-1.5,7.5-0.4,10.6,2.6c-1.8,0.7-3.8,0.9-5.6,1.6c-3.8,1.6-6.4,4.6-9.3,7.2
			C239.6,336.2,238.1,334.7,236,334z"/>
		<path class="st7" d="M236,334c2.1,0.7,3.6,2.2,5.3,3.4c-3.7,5.1-6.6,10.6-7.3,17.1c-4-2.2-4.7-4-3.3-9.8
			C231.7,340.8,233.2,337.1,236,334z"/>
		<path class="st12" d="M200.6,310.2c-2.3-1.5-4-3.7-6.5-4.9c2.6-3.2,6.2-4.4,10-5.4c4.1-1.1,6.8,1.3,10.5,3.1
			C208.6,303.7,204.2,306.3,200.6,310.2z"/>
		<path class="st10" d="M177.2,275.2c2.2-2.9,2.9-6.5,4.6-9.6c0.6-1.1,0.9-2.3,1.8-3.1c2.3,1.2,4.2,2.8,5.8,4.9
			c-0.9,2.8-2.7,5.4-3,8.4C183.4,274.9,180.3,274.5,177.2,275.2z"/>
		<path class="st10" d="M194.3,256.1c2,1.7,2.4,4.1,2.9,6.4c-2.7,0.7-4.8,2.5-6.8,4.4c-1.4-2.5-4.1-3.8-6-5.8
			c1.8-0.5,1.9-2.4,3.2-3.4c1.6-1.2,2.9-2.7,5-1.1C193.1,257,193.9,256.8,194.3,256.1z"/>
		<path class="st10" d="M207.2,252.4c0.6,1.7,1.3,3.4,1.1,5.3c-3.5,0.7-6.8,2-9.8,4c-1.3-2.9-1.5-6.4-5.7-8c3.1-0.7,5.3-1.2,7.6-1.8
			c0.4,1.6,1.1,2.2,2.9,1.5C204.6,252.9,205.9,252.7,207.2,252.4z"/>
		<path class="st13" d="M243.5,360.2c-1.4-0.6-0.4-1.9-0.9-2.8c-0.6,0.8-1.3,1.4-2.3,0.6c-0.5-0.4-0.9-1.6-1.6-0.7
			c-0.6,0.8-0.6,2,0.2,2.9c0.4,0.5,1.5,0.5,1,1.5c-0.2,0-0.3,0-0.5-0.1c0,0,0,0,0,0c-0.3-0.2-0.6-0.5-1-0.7
			c-0.1-0.1-0.3-0.2-0.4-0.3c-0.2-0.2-0.3-0.4-0.5-0.6c0,0,0.1,0,0.1,0c-0.5-3.9,0.5-7.7,1.5-11.5c0,0,0,0,0,0
			c0.3-0.4,0.5-0.8,0.8-1.2c1.6,1.3,3.3,2.7,4.9,4C243.9,354.3,243.4,357.2,243.5,360.2z M239,355.6c0.3-0.2,0.8-0.2,0.5-0.7
			c-0.1-0.2-0.4-0.3-0.6-0.3c-0.4,0-0.5,0.4-0.4,0.7C238.6,355.4,238.8,355.5,239,355.6z"/>
		<path class="st10" d="M221.5,255.3c0.1-1.8-1.5-3.9-0.2-5.2c1.2-1.2,3.5-0.2,5.4-0.1c4,0.1,4,0.1,4.5,3.9
			C227.9,254.5,224.7,255,221.5,255.3z"/>
		<path class="st10" d="M219.4,251.9c0,0.3,0.1,0.6,0.1,0.9c0.1,0.2,0.2,0.3,0.2,0.5c0,0.5,0.1,1,0.1,1.4c-3.3,0.6-6.7,1.3-10,1.9
			c-0.3-2-0.7-4-1.7-6c0.8-0.6,1.7-0.2,2.5-0.3c1.5,0.2,3.4-0.6,3.9,1.9c0.1,0.7,1.2,0.6,1.9,0.4
			C217.5,252.6,218.5,252.2,219.4,251.9z"/>
		<path class="st8" d="M232.2,253c-0.4-2.2,0.2-2.9,2.2-2.3c1.4,0.5,3,0.5,4.5,0.8c0.6,0.1,1.2,0.6,1.3,1.3c0.1,0.7-0.6,0.9-1.1,1.2
			c-1.7,1-3.7,1.2-5.6,1.3C231.4,255.4,232.5,253.6,232.2,253z"/>
		<path class="st3" d="M179.6,290.9c2.9-1.5,5.9-2.8,9.2-3.1c1.3,0,2.6,0,3.9,0c0.2,0.4,0.3,0.8,0.5,1.3c-4.5-0.7-8.8-0.1-12.6,2.7
			c-3.4,2.5-4.6,6.1-4.9,10.2c-0.3-1-0.7-2-1-2.9C175.1,295.5,177.4,293.2,179.6,290.9z"/>
		<path class="st8" d="M192.7,287.8c-1.3,0-2.6,0-3.9,0c0.2-1.4-0.5-2.4-1.1-3.6c-1-2.1-1.9-4.2-1.8-6.6c1.3,0.7,1.9,1.8,2.5,3.1
			C189.7,283.2,190.7,285.8,192.7,287.8z"/>
		<path class="st8" d="M194.3,256.1c-0.4,0.7-1.1,0.8-1.7,0.5c-2.2-1.5-3.5-0.1-5,1.1c-1.3,1-1.4,3-3.2,3.4
			c-0.7-0.2-1.5-0.4-2.2-0.6c-0.5-0.5-0.4-0.9,0.2-1.3c2.6-1.7,5.4-3.3,8.4-4.3C192.1,254.5,193.5,254.6,194.3,256.1z"/>
		<path class="st8" d="M209.9,256.7c3.3-0.6,6.7-1.3,10-1.9c0.3,1.6,0.1,2.5-2,2.5c-2,0.1-4.1,0.6-6.1,1.2
			C209.9,259,209.7,258.2,209.9,256.7z"/>
		<path class="st8" d="M198.5,261.7c3-2,6.3-3.2,9.8-4c0.5,1,0.4,1.6-0.8,2c-2.6,0.8-5.1,1.8-7.5,3.1
			C198.4,263.7,198.6,262.6,198.5,261.7z"/>
		<path class="st8" d="M190.4,266.9c2-1.8,4.1-3.6,6.8-4.4c0.7,0.7,0.5,1.2-0.2,1.8c-1.9,1.5-3.7,3-5.6,4.5
			C191,268.2,190.7,267.6,190.4,266.9z"/>
		<path class="st8" d="M219.4,251.9c-1,0.3-2,0.6-3,0.9c-0.7,0.2-1.8,0.3-1.9-0.4c-0.4-2.6-2.3-1.8-3.9-1.9c2.5-1,5.2-0.2,7.8-0.6
			C219.4,249.6,219.5,251,219.4,251.9z"/>
		<path class="st8" d="M221.5,255.3c3.2-0.3,6.5-0.7,9.6-1.5c0.2,1.2,0,1.9-1.5,2c-2.1,0.1-4.1,0.6-6.1,0.9
			C222.4,256.8,221.2,257,221.5,255.3z"/>
		<path class="st8" d="M186.4,275.8c0.3-3.1,2.1-5.6,3-8.4c0.5,0.5,0.9,1,1.4,1.5c-0.5,2.4-2.3,4.4-2.7,6.9
			C187.8,277.1,187,276.2,186.4,275.8z"/>
		<path class="st3" d="M190.7,268.9c-0.5-0.5-0.9-1-1.4-1.5c-1.6-2.1-3.5-3.7-5.8-4.9c-0.8-0.9-2.1-0.8-3-1.4c0.4-0.6,1-0.5,1.6-0.6
			c0.7,0.2,1.5,0.4,2.2,0.6c1.9,2,4.6,3.2,6,5.8c0.3,0.6,0.7,1.3,1,1.9C191.1,268.9,190.9,268.9,190.7,268.9z"/>
		<path class="st3" d="M243.9,365.1c0.4,0.2,0.9,0.5,1,1.1c-1.8,2.9-1.4,5.6,0.4,8.3c0,0,0,0,0,0c0,0.4,0.1,0.8,0.5,1c0,0,0,0,0,0
			c0.2,0.5,0.4,0.9,0.6,1.4c-0.8,0-1.7,0-2.5,0.1c0,0,0,0,0,0c0-1.9,0.1-3.8-0.8-5.7C242,369,243.9,367.1,243.9,365.1z"/>
		<path class="st8" d="M207.2,252.4c-1.3,0.3-2.7,0.5-3.9,1c-1.7,0.7-2.5,0.1-2.9-1.5c1.3-0.3,2.5-0.6,3.8-0.8
			C205.6,250.8,206.7,251,207.2,252.4z"/>
		<path class="st3" d="M282.6,335.1c-4-1.7-8.1-2-12.4-1c0.3-0.3,0.5-0.8,0.8-0.8c3.4-0.5,6.7-0.6,10,0.4
			C281.7,334,282.5,334.3,282.6,335.1z"/>
		<path class="st3" d="M239.1,348.7c-1,3.8-1.9,7.5-1.5,11.5c-0.2,0-0.7-0.1-0.7-0.1c0-3.5-0.2-7.1,1.1-10.5
			C238.2,349.1,238.5,348.8,239.1,348.7z"/>
		<path class="st3" d="M240.4,362.3c1.1,0.6,2.2,1.2,3,2.3C241.9,364.4,240.8,363.9,240.4,362.3z"/>
		<path class="st3" d="M242.1,342.5c-0.5,0.9-1.1,1.8-1.6,2.8C240.5,344.1,240.4,342.8,242.1,342.5z"/>
		<path class="st3" d="M239.8,347.5c-0.3,0.4-0.5,0.8-0.8,1.2c-0.1-1-0.4-2.1,1-2.4C240,346.7,239.9,347.1,239.8,347.5z"/>
		<path class="st3" d="M179.2,261.2c0,0.6-0.5,0.9-1,1C178.2,261.5,178.5,261.1,179.2,261.2z"/>
		<path class="st3" d="M242.8,341.4c-0.2,0.4-0.5,0.7-0.7,1.1c-0.2-0.3-0.3-0.7,0-1.1C242.3,341.1,242.6,341,242.8,341.4z"/>
		<path class="st3" d="M283.6,335.8c-0.3-0.2-0.7-0.4-1-0.7C283.1,335,283.5,335.2,283.6,335.8z"/>
		<path class="st3" d="M285.5,336.6c-0.5-0.1-0.9-0.1-1.2-0.6C284.8,336,285.3,336,285.5,336.6z"/>
		<path class="st3" d="M240.5,345.3c-0.2,0.3-0.3,0.7-0.5,1C239.9,345.8,240,345.4,240.5,345.3z"/>
		<path class="st3" d="M238.5,361c0.3,0.2,0.6,0.5,1,0.7C239,361.7,238.6,361.6,238.5,361z"/>
		<path class="st3" d="M239.4,361.7c0.1,0,0.3,0,0.5,0.1c0.1,0.1,0.1,0.3,0.2,0.4C239.9,362,239.6,361.8,239.4,361.7z"/>
		<path class="st3" d="M237.5,360.2c0.2,0.2,0.3,0.4,0.5,0.6C237.9,360.5,237.7,360.4,237.5,360.2z"/>
		<path class="st8" d="M219.8,253.3c-0.1-0.2-0.2-0.3-0.2-0.5C219.6,253,219.7,253.2,219.8,253.3z"/>
		<path class="st9" d="M194.9,328c0.2,0.2,0.3,0.4,0,0.5c0,0-0.2-0.2-0.3-0.3C194.7,328.2,194.8,328.1,194.9,328z"/>
		<path class="st3" d="M179.7,261.2c-0.2,0-0.3,0-0.5,0C179.4,260.7,179.5,260.9,179.7,261.2z"/>
		<path class="st3" d="M243.3,364.6c0.2,0.2,0.4,0.3,0.5,0.5C243.7,364.9,243.5,364.8,243.3,364.6z"/>
		<path class="st11" d="M258.9,343.9c2.4-3,5.8-4,9.2-4.8c0.5,0.1,1,0.2,1.5,0.4c2.1,0.7,4.2,0.8,6.4,0.9c3.5-0.3,6.1,1.2,8.1,4
			c-0.7,0.9-1.3,1.8,0.4,2.4c0.4,0.1,0.5,0.9,0.7,1.5c0.9,3.1,0.3,6.2,0.5,9.7c-0.8-0.7-1.2-1-1.6-1.4c0,0,0.1,0,0.1,0
			c-0.2-0.2-0.4-0.4-0.6-0.7c-2.5-3.8-5.7-7-10.1-8.6c-0.6-1.2-2.1-1-2.7-0.7c-1.7,0.7-3.8-1-5.2,1c-1-0.6-2.1-1-3.3-0.7
			c0,0,0,0,0,0C261.5,345.3,259.6,345.3,258.9,343.9z"/>
		<path class="st13" d="M270.6,353c1.2,0.7,1.7,2.4,3.3,2.6c0.8,0.5,0,1.8,1,2.3c0,0,0,0,0,0c0,0.3-0.1,0.6-0.1,1
			c-0.4,0.4-0.9,0.7-1.3,1.1c-0.8,1-1.8,2.1-0.8,3.4c0.9,1.2,2.2,1.8,3.8,0.9c1.8,0.3,2.5-1.7,3.9-2c0.3,1.3-0.1,3.4,2.3,1.6
			c0.3-0.2,1.9-0.4,1.5,0.7c-0.9,2.5,0.5,3.4,2.4,4c-0.4,0.9-0.7,0.2-1,0.2c-0.5-0.1-1.2-0.4-1.5,0.2c-0.3,0.4,0,0.9,0.4,1.3
			c1.4,1.6,0.7,2.1-1,2.3c-0.8,0.1-1.9,0.6-1.1,1.5c1.3,1.5,1.3,2.7,0.2,4.1c-0.2,0.2-0.1,0.8-0.1,1.1c0,0,0,0,0,0
			c-0.2,0-0.3,0-0.5,0c-0.1,0-0.3,0.1-0.4,0.1c0,0-0.2-0.1-0.2-0.1c0.2-0.8,0.6-1.7,0.6-2.5c0-1.2,0-2.6-2-2.2
			c-1.4,1.3-0.6,3.3-1.5,4.7c-0.3,0-0.5,0-0.8,0c-0.2-1.8,0.4-3.3,1.3-4.8c0.9-1.6,0.5-2.2-1.3-1.9c0.2-0.8,0.3-1.5,0.5-2.3
			c2.6,1.3,3.2-1.2,4.4-2.3c0.8-0.7-0.2-2-0.6-2.4c-1-0.9-2.4-1-3.8-0.3c-1.8,0.9-1.5,2.4-1.5,4c-0.6,0.4-0.4,1.1-0.6,1.6
			c-0.7-2.2-1.9-1.5-3.2-0.7c-0.2-0.6,0.9-1.4-0.3-1.9c-1-3-1.4-3.2-4.5-2.6c-0.9-1.4-1.5,0.6-2.3,0.3c0.6-1.6-0.1-2.6-1.5-3.2
			c-1.5-0.6-2.7,0-3.6,1.1c-1.1,1.4-0.5,2.5,0.7,3.5c0.5,0.9-0.3,1.4-0.6,2.1c-0.6-0.4-1.1-0.9-1.9-1c-2.4-0.2-3.6-1.3-3-3.9
			c0.7-0.3,0.2,1.8,1.2,0.6c0.8-1,1.6-1.5,2.9-1.8c1.2-0.3,2.4-1.5,0.4-2.7c0-0.2,0-0.4,0-0.7c1.7-0.2,1.8-1.5,1.9-2.8c0,0,0,0,0,0
			c1.1,0.2,1.8-0.1,1.9-1.3c0.2-0.1,0.3-0.1,0.5-0.2c1.1,0.5-0.1,2.4,1.5,2.5c1.1,1.2,2.5,1.3,4,1.4c0.7,1-0.8,1.4-0.7,2.4
			c2.4-0.6,2.8-2.2,2.5-4.2c-0.2-1.4-1.2-2.4-2-3.5C270.2,353.7,270.4,353.4,270.6,353z"/>
		<path class="st13" d="M244.8,360.3c-0.2,0-0.4,0-0.5,0c-0.1-3.1,0.7-6,2-8.7c1.6,2.5,4.2,3.8,6.3,5.8c0.9,0.9,1.4,0.1,1.6-0.8
			c0.7-2.7,1.8-5.1,3.8-7.1c0.5-0.5,0.9-1.1,1.7-1.3c0.1,0.1,0.1,0.3,0.1,0.4c0.4,0.8,1,0.8,2.4,0.3c-1.2-0.2-1.8-0.3-2.4-0.4
			c0.7-0.8,1.3-1.8,2.6-1.8c0,0,0,0,0,0c0.7,1.2,1.8,2.1,2.9,2.4c1.6,0.5,1.8,1.6,2,2.9c-0.3,0.5-0.8,0.5-1.3,0.5
			c-0.2-2.5-1.9-2.7-3.8-2.2c-1.9,0.4-2.8,2.1-2.3,4.2c-0.4,0.8-0.7,1.6-0.7,2.5c1.2-0.2,2.1-1.4,3.1-0.1c0,0,0,0,0,0
			c-1.1,0.6-1.8,1.4-2,2.6c-2.1-2.1-3.9-2.2-5.3-0.1c-0.7,1.1-0.8,2.2-0.5,3.4c0,0.4-0.1,0.8-0.1,1.2c-0.4-0.2-0.7-0.3-1.1-0.5
			c-2.8-1.7-4.7-4.1-6.5-6.7c-0.3-0.4-0.7-1.7-1,0C245,357.7,245.4,359.2,244.8,360.3z"/>
		<path class="st13" d="M285.4,343c0.8-0.4,1.5-0.3,2.3,0.1c0.7,0.3,1.3,1.5,2.1,0.4c1-1.2,0.1-2-0.9-2.7c1.3,0.2,2.7,0.3,4,0.5
			c0.7,0.1,1.1,0.3,0.5,1c-1.3-0.7-1.9,0.3-2.3,1.2c-0.4,0.8,0,1.4,0.9,1.5c1.2,2.2,2.8,2.6,4.9,0.9c0.5,1,0.3,1.8,0.4,2.6
			c-0.7,0.1-1.6-0.4-1.9,0.7c-2.4-0.3-3.8,0.5-3.8,2.4c0,1.8,1.3,2.7,3.8,2.6c0.3,1.3,1.7,1.2,2.4,1.9c-0.3,0.4-0.7,0.7-1,1.1
			c-0.5,0.8-0.9,1.6-1.4,2.4c0.1-1.8-0.8-2.8-2.6-3c-1.6-0.2-2.6,0.6-3.1,2c-0.4,1.4,0.6,2.2,1.8,2.6c-0.2,0.6,0,1.2,0.3,1.7
			c-2.5,0-4.2-1.8-3.9-4.2C288.5,353.4,288.6,348,285.4,343z"/>
		<path class="st2" d="M243.8,376.8c0.8,0,1.7,0,2.5-0.1l0,0c0,0.4,0,0.9,0.7,0.8c0,0,0.1,0.1,0.1,0.1c-0.1,1.9,1.1,2.2,2.7,2.1l0,0
			c0.2,0.2,0.4,0.3,0.6,0.5l0,0c0.3,1.6,1.4,2,2.8,2c0,0,0,0,0,0c0.2,0.7,0.7,1,1.5,1c0,0,0,0,0,0c0.2,0.2,0.4,0.3,0.6,0.5
			c0,0,0,0,0,0c0.1,0.3,0.2,0.5,0.5,0.5c0,0,0,0,0,0c0.1,0.6,0.5,0.6,0.9,0.6c0,0,0,0,0,0c0.2,0.2,0.4,0.3,0.5,0.5c0,0,0,0,0,0
			c0.1,0.6,0.5,0.6,0.9,0.6c0.2,0.1,0.3,0.2,0.5,0.4c2.2,1.7,4.3,3.3,7.3,2.5c0,0,0,0,0,0c0,0.2-0.1,0.5-0.1,0.7
			c0.1,0.8,1.8,1,1.1,1.9c-0.7,0.9-1.7-0.4-2.6-0.1c-0.7-1.5-2.1-1.4-3.4-1.5c-1.3-0.2-2.6-0.6-3.9-0.9c-0.2-0.4-0.6-0.5-1-0.5
			c-0.2-0.2-0.3-0.3-0.5-0.5c0-0.6-0.4-0.9-1-1c0-0.6-0.4-0.9-1-1c-0.2-0.4-0.6-0.5-1-0.5c-0.2-0.2-0.3-0.3-0.5-0.5
			c-0.2-0.4-0.6-0.5-1-0.5c-0.3-0.6-0.8-1-1.5-1c-0.2-0.2-0.3-0.3-0.5-0.5c-0.2-0.4-0.6-0.5-1-0.5c0-0.6-0.4-0.9-1-1
			c-0.2-0.2-0.3-0.3-0.5-0.5c-0.2-0.2-0.3-0.3-0.5-0.5c-0.2-0.4-0.6-0.5-1-0.5c-0.2-0.2-0.3-0.3-0.5-0.5c-0.2-0.2-0.3-0.3-0.5-0.5
			c0-0.4-0.1-0.8-0.5-1C243.8,377.4,243.8,377.1,243.8,376.8z"/>
		<path class="st13" d="M272.3,389.3c0.7-0.8,1.5-1.7,0.9-2.8c-0.6-1.1-1.7-0.6-2.8-0.5c-3.8,0.2-7.4-0.9-10.8-2.6
			c-0.1-0.1-0.1-0.6-0.1-0.9c1.7,0.6,3.3,1.4,5,1.8c4.4,1.2,8.6,1.3,11.9-2.6c0.8,1.3,1.7,0.9,2.6,0.3c1.2-0.7,1.5-2,2.5-2.8
			c0,0,0.2,0.1,0.2,0.1c-0.5,1.5-0.5,1.5,0.4,1.4c0.1,0.8,0.4,1.4,1.3,1.4c0.8,0,1-0.6,1.1-1.3c0.1-0.7,0.4-1,1.1-0.9
			c-0.4,2.1-0.8,3.9-3.8,2.9c-1.8-0.6-1.8,0.9-1.4,2.3c0.2,0.7,0.7,1.4-0.1,1.9c-0.8,0.5-1.1-0.3-1.6-0.6c-2.2-1.3-3.6-0.8-4.8,1.9
			C273.3,389.6,273.3,389.6,272.3,389.3z"/>
		<path class="st14" d="M265.6,347.4c1.4-2,3.5-0.3,5.2-1c0.6-0.2,2.1-0.5,2.7,0.7c0,0.2,0,0.3,0,0.5c0.1,0.2-0.2,0.9,0.5,0.5
			c1.7,1.5,3.2,3.2,4.4,5.2c-0.3,0.7,0.6,1.2,0.5,1.9c-0.7,0.4-1.2-0.3-1.8-0.3c-2.8-1.9-5.7-3.7-8.5-5.6c-0.1-0.6-0.5-0.8-1-0.7
			c0,0,0,0,0,0c0-0.3-0.1-0.5-0.4-0.2C266.6,348.2,266.1,347.8,265.6,347.4z"/>
		<path class="st13" d="M284,356.4c0.4,0.3,0.8,0.7,1.6,1.4c-0.1-3.5,0.4-6.6-0.5-9.7c-0.2-0.5-0.3-1.4-0.7-1.5
			c-1.7-0.6-1.1-1.4-0.4-2.4c1.8,1.9,2.2,4.3,2.4,6.7c0.3,3,0.3,6-0.5,9.1C285,358.9,284.2,357.8,284,356.4z"/>
		<path class="st13" d="M285.3,376.3c0.4-1,0.8-1.9,1.1-3c0.5-2,1.6-2.6,3.5-1.7c-0.8,2-3.1,3.4-2,6.1c0.2,0.5-1,0.8-1.7,1.1
			C285.5,378.2,289.1,375.8,285.3,376.3z"/>
		<path class="st5" d="M280.5,362.1c-1.5,0.4-2.1,2.3-3.9,2c2.2-3,1.6-4.8-1.7-5.4c0-0.3,0.1-0.6,0.1-1c0.9,0.2,1.8,0.5,2.7,0.7
			C279.8,358.7,280.4,360.2,280.5,362.1z"/>
		<path class="st11" d="M285.3,376.3c3.8-0.5,0.2,1.9,1,2.6c0,0-0.1,0-0.1,0c-0.6,0-0.6,0.5-0.6,0.9c0,0,0,0,0,0
			c-0.7-0.2-1,0.2-1.1,0.9c-0.1,0.7-0.3,1.3-1.1,1.3c-0.9,0.1-1.2-0.6-1.3-1.4l0,0c0.2-0.2,0.3-0.3,0.5-0.5l0,0c0.1,0,0.2,0,0.2-0.1
			c0-0.1,0-0.2-0.1-0.3l-0.1-0.1c0-0.2,0-0.3,0-0.5c0,0,0,0,0,0C284,378.7,284.6,377.4,285.3,376.3z"/>
		<path class="st5" d="M265.9,352.5c0.5,0,1,0,1.3-0.5c0.8,1.5,2.5,0,3.4,1c-0.2,0.4-0.5,0.7-0.7,1.1c-3.3-0.4-4,0.4-3.8,3.8
			c-1.6-0.2-0.4-2.1-1.5-2.5C265.2,354.5,265.7,353.6,265.9,352.5z"/>
		<path class="st5" d="M295.3,349.3c0.3-1.1,1.2-0.5,1.9-0.7c0,0,0,0,0,0c0.1,0.2,0.3,0.3,0.4,0.5c0.6,0.6,1,1.3,1.2,2.1
			c0.1,0.4,0.9,1-0.1,1.3c-0.7,0.2-1.4,0.4-1.5-0.8C297.1,350.6,296.2,349.9,295.3,349.3z"/>
		<path class="st11" d="M277,355c0.6,0,1.1,0.6,1.8,0.3c0.1-0.7-0.8-1.2-0.5-1.9c1,1.2,2.1,2.4,3.1,3.6C280,356.1,277.8,357,277,355
			z"/>
		<path class="st5" d="M297.8,356.3c-0.8-0.7-2.1-0.7-2.4-1.9c0.5-0.3,1.4-0.9,1.5-0.8c0.7,0.7,1.2,1.6,1.8,2.4
			C298.4,356.1,298.1,356.2,297.8,356.3z"/>
		<path class="st5" d="M295.4,359.8c0.5-0.8,0.9-1.6,1.4-2.4c1.4,2.6-0.9,3.3-2.3,4.4c-0.1-0.1-0.2-0.2-0.3-0.3
			C294.5,360.9,294.9,360.4,295.4,359.8z"/>
		<path class="st5" d="M292,345.1c-0.9-0.1-1.3-0.7-0.9-1.5c0.4-0.9,1-1.9,2.3-1.2C293.2,343.4,291.5,343.7,292,345.1z"/>
		<path class="st13" d="M276,340.3c-2.2,0-4.3-0.2-6.4-0.9C271.8,339.3,274,339.2,276,340.3z"/>
		<path class="st5" d="M291.8,363.1c-0.3-0.5-0.5-1.1-0.3-1.7c0.9,0.2,1.7,0.5,2.6,0.1c0.1,0.1,0.2,0.2,0.3,0.3
			C293.8,362.7,292.7,362.8,291.8,363.1z"/>
		<path class="st13" d="M269.1,387.5c2-1.4,2.6,0.1,3.3,1.6c-0.9,0-1.2-0.8-1.8-1.2c-0.2-0.1-0.4-0.2-0.6-0.4
			C269.6,387.5,269.3,387.5,269.1,387.5z"/>
		<path class="st5" d="M275,357.8c-1-0.4-0.2-1.7-1-2.3C275.4,355.8,274.8,357,275,357.8z"/>
		<path class="st13" d="M284,341.8c0.7,0.1,1.5,0.1,1.4,1.2C284.7,342.9,284.4,342.2,284,341.8z"/>
		<path class="st11" d="M273.9,348.1c-0.7,0.4-0.3-0.3-0.5-0.5C273.6,347.8,273.8,348,273.9,348.1z"/>
		<path class="st11" d="M267.5,348.7c0.5,0,0.9,0.1,1,0.7C268.2,349.1,267.9,348.9,267.5,348.7z"/>
		<path class="st13" d="M285.7,379.8c-0.1-0.5-0.1-0.9,0.6-0.9C286.4,379.4,286,379.6,285.7,379.8z"/>
		<path class="st13" d="M283.5,355.8c0.2,0.2,0.4,0.4,0.6,0.7C283.7,356.5,283.6,356.1,283.5,355.8z"/>
		<path class="st13" d="M297.6,349.1c-0.1-0.2-0.3-0.3-0.4-0.5C297.4,348.8,297.5,348.9,297.6,349.1z"/>
		<path class="st11" d="M267.1,348.6c0.3-0.4,0.4-0.1,0.4,0.2C267.4,348.7,267.2,348.7,267.1,348.6z"/>
		<path class="st2" d="M290.5,336c0.1,0,0.3,0,0.4,0C290.7,336.3,290.6,336.2,290.5,336z"/>
		<path class="st11" d="M269.9,387.6c0.2,0.1,0.4,0.2,0.6,0.4C270.3,387.8,270.1,387.7,269.9,387.6z"/>
		<path class="st3" d="M246.2,351.5c-1.3,2.8-2.1,5.7-2,8.7c-0.2,0-0.5-0.1-0.7-0.1c-0.2-3,0.3-5.9,1.1-8.7c1.8-3.5,3.7-6.8,6.7-9.4
			c0.1,0.1,0.2,0.2,0.2,0.2C249.6,345.3,247.3,348.1,246.2,351.5z"/>
		<path class="st3" d="M259.6,348.5c0.1-0.1,0-0.3-0.1-0.4c-0.6-1.3-1.2-2.6-1.8-3.8c-0.2-0.3-0.5-0.7,0.1-0.9
			c0.3-0.1,0.7,0.3,1,0.5c0.8,1.4,2.6,1.4,3.4,2.8C261,346.7,260.4,347.7,259.6,348.5L259.6,348.5z"/>
		<path class="st3" d="M251.4,342.1c0.2-0.1,0.5-0.2,0.5-0.2c0.2,0.3-0.1,0.3-0.3,0.4C251.5,342.3,251.4,342.2,251.4,342.1z"/>
		<path class="st3" d="M276.4,381.7c-3.3,3.9-7.5,3.8-11.9,2.6c-1.7-0.5-3.3-1.2-5-1.8c0,0-0.1,0.1-0.1,0.1c0-0.3-0.3-0.4-0.6-0.5
			c0,0,0,0,0,0c-0.3-0.2-0.7-0.4-1-0.6c-0.2-0.1-0.5-0.3-0.7-0.4c-0.2-0.2-0.5-0.3-0.7-0.5c-1.3-1.1-2.6-2.2-3.9-3.2
			c1-0.4,1.6,0.6,2.4,0.9l0.2,0.1l0.2,0l0-0.1c5,3.9,10.4,6.4,17,4.7c2.7-0.6,3.5-2.9,4.5-4.7c-2.7-1.5-5.2-3.1-8-4
			c-1.1-0.3-1.9-0.8-2.9-0.1c-1.7,1.2-3.2,0.6-4-1.1c-0.5-1.1-1.1-1.4-2.2-1.3c-1,0-2-0.3-2.7-0.9c-2.6-1.8-5.6-2.3-8.5-3.4
			c-0.1-0.1-0.3-0.1-0.5-0.1l0,0c-1-1.5,0.5-0.6,0.8-0.9c1,0.5,2,0.3,3.1,0.3c1-0.8-0.2-1-0.5-1.4c-2.1-2.9-4.7-5.4-5.7-8.9
			c0.4-1.6,0.7-0.4,1,0c1.8,2.5,3.7,5,6.5,6.7c0.3,0.2,0.7,0.3,1.1,0.5c0.4,0.4,0.9,0.2,1.4,0.3c-0.6,2.5,0.6,3.7,3,3.9
			c0.8,0.1,1.3,0.6,1.9,1c0.8,0.8,1.6,0.2,2.5,0c0.7,0.2,1.2,0.8,1.6,1.4c0.4,0.5,0.5,1.3,1.4,0.6c0.8-0.6,0.7-1.1,0-1.7
			c-0.6-1.9,0.4-3.1,1.9-4.1c3.1-0.5,3.5-0.3,4.5,2.6c-0.3,0.2-0.7,0.4-1,0.6c-0.4,0.2-1.1,0.2-1,0.8c0.1,0.9,0.9,0.4,1.3,0.5
			c0.3,0.1,0.6,0,1,0c1.3-0.8,2.5-1.5,3.2,0.7c0.5,2.1,0.5,2.1,1.7,1.8c1.8-0.3,2.3,0.3,1.3,1.9c-0.8,1.5-1.5,3-1.3,4.8
			C277.4,380,276.9,380.9,276.4,381.7z"/>
		<path class="st14" d="M248.6,367.6c2.8,1.1,5.9,1.6,8.5,3.4c0.8,0.6,1.7,0.9,2.7,0.9c1.1,0,1.7,0.2,2.2,1.3c0.8,1.7,2.3,2.3,4,1.1
			c1-0.7,1.8-0.3,2.9,0.1c2.8,0.9,5.4,2.4,8,4c-0.9,1.8-1.8,4.1-4.5,4.7c-0.4-0.1-0.7-0.4-1.1-0.4c-3.9,0.4-7.5-0.4-11-2.2
			c-1.5-0.8-2.8-2.5-4.9-2.1c0,0,0,0.1,0,0.1c0-0.1-0.1-0.3-0.1-0.4c-0.1,0.1-0.2,0.2-0.3,0.3c-0.8-0.3-1.3-1.3-2.4-0.9
			c-1-0.9-1.6-2-1.5-3.4c0.1-1.8-1.9-1.8-2.7-3c-0.4-0.6-1-1-1.4-1.6c-0.7-1.3-0.3-1.8,1.1-1.8c0,0,0,0,0,0
			C248.3,367.8,248.4,367.9,248.6,367.6z"/>
		<path class="st14" d="M252,367c-1,0-2.1,0.2-3.1-0.3c-2.2-1.6-2.5-4.5-4.2-6.4c0.7-1.1,0.2-2.6,1.1-3.6c1,3.5,3.6,6.1,5.7,8.9
			C251.7,366.1,251.9,366.5,252,367z"/>
		<path class="st3" d="M265.7,388.4c-3,0.7-5.2-0.8-7.3-2.5C260.8,386.7,263.9,385.7,265.7,388.4z"/>
		<path class="st13" d="M245.2,374.4c-1.7-2.7-2.1-5.5-0.4-8.3c0.1,0.1,0.3,0.3,0.3,0.3C244.2,369.1,244.9,371.8,245.2,374.4z"/>
		<path class="st3" d="M253.1,382.1c-1.4,0-2.6-0.4-2.8-2c0.3,0.1,0.5,0.2,0.8,0.2c0,0,0-0.1,0-0.1c0.2,0.2,0.4,0.4,0.5,0.6
			c0.2,0.1,0.3,0.2,0.5,0.4c0.1,0.1,0.2,0.2,0.4,0.2c0,0,0,0,0,0c0.2,0.1,0.3,0.3,0.5,0.4C253,381.8,253,382,253.1,382.1z"/>
		<path class="st13" d="M246.7,376.8c1.3,0.4,2.4,1.1,2.9,2.4c0,0,0,0,0,0c-0.8-0.6-1.7-1.1-2.5-1.7c0,0-0.1-0.1-0.1-0.1
			C246.8,377.3,246.7,377.1,246.7,376.8L246.7,376.8z"/>
		<path class="st13" d="M246.3,376.7c-0.2-0.5-0.4-0.9-0.6-1.4c0.8,0.1,1.1,0.7,1.1,1.4c0,0,0,0,0,0
			C246.5,376.8,246.4,376.8,246.3,376.7L246.3,376.7z"/>
		<path class="st13" d="M251,380.3c-0.3-0.1-0.5-0.2-0.8-0.2c0,0,0,0,0,0c-0.2-0.2-0.4-0.3-0.6-0.5c0,0,0,0,0,0
			c0-0.1-0.1-0.3-0.1-0.4c0,0,0,0,0,0C250.4,379.2,250.9,379.5,251,380.3z"/>
		<path class="st3" d="M254.5,383.1c-0.7,0-1.2-0.3-1.5-1C253.6,382.3,254.1,382.6,254.5,383.1z"/>
		<path class="st3" d="M258,385.5c-0.4,0-0.9,0-0.9-0.6C257.4,384.9,257.7,385.1,258,385.5z"/>
		<path class="st3" d="M256.5,384.5c-0.5,0-0.9,0-0.9-0.6C256,383.9,256.3,384.1,256.5,384.5z"/>
		<path class="st13" d="M257.9,381.5c0.3,0.2,0.7,0.4,1,0.6C258.4,382.1,258,382.1,257.9,381.5z"/>
		<path class="st13" d="M252.9,381.7c-0.2-0.1-0.3-0.3-0.5-0.4c0.2,0,0.5,0.1,0.7,0.1C253.1,381.5,253,381.6,252.9,381.7z"/>
		<path class="st13" d="M256.5,380.6c0.2,0.2,0.5,0.3,0.7,0.5C257,381,256.1,381.6,256.5,380.6z"/>
		<path class="st13" d="M245.7,375.4c-0.4-0.2-0.5-0.6-0.5-1C245.7,374.5,245.7,375,245.7,375.4z"/>
		<path class="st13" d="M251.5,380.8c-0.2-0.2-0.4-0.4-0.5-0.6C251.2,380.4,251.4,380.6,251.5,380.8z"/>
		<path class="st13" d="M252.4,381.3c-0.1,0-0.3-0.1-0.4-0.2c0.1-0.1,0.2-0.1,0.3-0.2C252.4,381.1,252.4,381.2,252.4,381.3z"/>
		<path class="st13" d="M258.9,382.1c0.3,0.1,0.5,0.1,0.6,0.5C259.2,382.4,259.1,382.2,258.9,382.1z"/>
		<path class="st3" d="M255.1,383.5c-0.2-0.2-0.4-0.3-0.6-0.5C254.7,383.2,254.9,383.4,255.1,383.5z"/>
		<path class="st3" d="M255.6,384c-0.3,0-0.5-0.2-0.5-0.5C255.2,383.7,255.4,383.8,255.6,384z"/>
		<path class="st3" d="M257,385c-0.2-0.2-0.4-0.3-0.5-0.5C256.7,384.6,256.8,384.8,257,385z"/>
		<path class="st11" d="M239,355.6c-0.1-0.1-0.4-0.2-0.4-0.3c-0.1-0.3,0-0.7,0.4-0.7c0.2,0,0.5,0.1,0.6,0.3
			C239.7,355.4,239.3,355.4,239,355.6z"/>
		<path class="st3" d="M265.9,352.5c-0.2,1.1-0.7,2-1.3,2.8c-0.2,0.1-0.3,0.1-0.5,0.2c-1.8,1-3,0-4.3-1.1c-0.5-2.1,0.4-3.8,2.3-4.2
			C264,349.8,265.7,350,265.9,352.5z"/>
		<path class="st3" d="M276.7,369c0-1.5-0.2-3.1,1.5-4c1.4-0.7,2.8-0.6,3.8,0.3c0.5,0.4,1.4,1.7,0.6,2.4c-1.2,1.1-1.8,3.7-4.4,2.3
			C277.7,369.9,277.1,369.7,276.7,369z"/>
		<path class="st3" d="M254.6,362.7c-0.3-1.2-0.3-2.3,0.5-3.4c1.3-2,3.2-1.9,5.3,0.1c0,0,0,0.2,0,0.2c0,0.2,0,0.4,0,0.7
			C259.3,362.9,257.5,363.7,254.6,362.7z"/>
		<path class="st3" d="M266.1,357.9c-0.2-3.4,0.5-4.2,3.8-3.8c0.8,1.1,1.8,2.1,2,3.5c-0.6,0.6-1.2,1.2-1.9,1.8
			C268.6,359.2,267.2,359.1,266.1,357.9z"/>
		<path class="st3" d="M274.9,358.8c3.4,0.6,3.9,2.4,1.7,5.4c-1.6,0.9-2.8,0.2-3.8-0.9c-1.1-1.3,0-2.4,0.8-3.4
			C273.9,359.4,274.4,359.1,274.9,358.8z"/>
		<path class="st3" d="M261.4,367c-1.1-1-1.8-2.1-0.7-3.5c0.9-1.1,2.1-1.7,3.6-1.1c1.4,0.6,2.1,1.6,1.5,3.2
			c-0.1,0.1-0.1,0.2-0.1,0.4c-0.5,0.6-1.1,1.1-1.9,1.2C262.9,367.2,262.1,367.1,261.4,367z"/>
		<path class="st14" d="M276.4,381.7c0.5-0.8,1-1.7,1.5-2.5c0.3,0,0.5,0,0.8,0c1.6-1.2,2.2-2.8,1.5-4.7c1.9-0.4,2,1,2,2.2
			c0,0.8-0.4,1.7-0.6,2.5c-1,0.8-1.4,2.1-2.5,2.8C278.1,382.6,277.2,383,276.4,381.7z"/>
		<path class="st5" d="M254.6,362.7c3,0.9,4.7,0.2,5.8-2.4c1.9,1.2,0.7,2.4-0.4,2.7c-1.2,0.4-2.1,0.8-2.9,1.8
			c-1,1.2-0.5-0.9-1.2-0.6c-0.4-0.1-1,0.1-1.4-0.3C254.5,363.5,254.5,363.1,254.6,362.7z"/>
		<path class="st5" d="M259.8,354.5c1.3,1,2.5,2.1,4.3,1.1c-0.1,1.2-0.8,1.5-1.9,1.3c-1-1.2-2-0.1-3.1,0.1
			C259.1,356.1,259.4,355.3,259.8,354.5z"/>
		<path class="st5" d="M261.4,367c0.8,0.1,1.6,0.1,2.4,0.2c0.2,0.7-0.2,1.3-0.5,1.9c-0.8,0.1-1.7,0.8-2.5,0
			C261.1,368.4,261.8,367.9,261.4,367z"/>
		<path class="st5" d="M276.7,369c0.3,0.6,1,0.9,1.6,1.1c-0.2,0.8-0.3,1.5-0.5,2.3c-1.2,0.3-1.2,0.3-1.7-1.8
			C276.3,370.1,276.2,369.4,276.7,369z"/>
		<path class="st5" d="M270.1,359.3c0.6-0.6,1.2-1.2,1.9-1.8c0.3,2-0.2,3.6-2.5,4.2C269.3,360.7,270.8,360.3,270.1,359.3z"/>
		<path class="st7" d="M280.3,374.5c0.6,2,0.1,3.5-1.5,4.7C279.7,377.8,278.8,375.8,280.3,374.5z"/>
		<path class="st5" d="M265.6,366c0-0.1,0.1-0.3,0.1-0.4c0.8,0.3,1.4-1.6,2.3-0.3c-1.5,1-2.5,2.1-1.9,4.1
			C265.1,368.5,265.8,367.2,265.6,366z"/>
		<path class="st5" d="M272.9,370c-0.3,0-0.7,0.1-1,0c-0.5-0.1-1.3,0.3-1.3-0.5c-0.1-0.6,0.6-0.7,1-0.8c0.4-0.1,0.7-0.4,1-0.6
			C273.8,368.5,272.7,369.3,272.9,370z"/>
		<path class="st5" d="M260.3,359.7c0,0,0-0.2,0-0.2c0.2-1.3,0.9-2.1,2-2.6C262.2,358.2,262,359.5,260.3,359.7z"/>
		<path class="st14" d="M282.2,380.7c-0.9,0.2-0.9,0.2-0.4-1.4c0.1,0,0.3-0.1,0.4-0.1c0,0.3,0.2,0.5,0.5,0.5c0,0,0.1,0.1,0.1,0.1
			c-0.1,0.1-0.1,0.2-0.1,0.4c0,0,0,0,0,0C282.5,380.4,282.3,380.5,282.2,380.7L282.2,380.7z"/>
		<path class="st3" d="M282.7,379.7c-0.4,0-0.5-0.2-0.5-0.5c0.2,0,0.3,0,0.5,0C282.7,379.4,282.7,379.6,282.7,379.7z"/>
		<path class="st5" d="M259.6,348.4c0.6,0.1,1.2,0.2,2.4,0.4C260.6,349.4,260,349.3,259.6,348.4
			C259.6,348.5,259.6,348.4,259.6,348.4z"/>
		<path class="st3" d="M294.1,361.5c-0.9,0.4-1.7,0.1-2.6-0.1c-1.2-0.4-2.2-1.2-1.8-2.6c0.4-1.4,1.4-2.2,3.1-2
			c1.8,0.2,2.7,1.1,2.6,3C294.9,360.4,294.5,360.9,294.1,361.5z"/>
		<path class="st3" d="M249.6,379.3c0.1,0.1,0.1,0.3,0.1,0.4c-1.5,0.1-2.7-0.2-2.7-2.1C247.9,378.1,248.7,378.7,249.6,379.3z"/>
		<path class="st3" d="M246.3,376.7c0.1,0,0.3,0.1,0.4,0.1c0.1,0.2,0.2,0.4,0.3,0.7C246.2,377.7,246.3,377.2,246.3,376.7z"/>
		<path class="st3" d="M249.6,379.6c0.2,0.2,0.4,0.3,0.6,0.5C250,380,249.8,379.8,249.6,379.6z"/>
		<path class="st13" d="M282.7,380.2c0-0.1,0.1-0.3,0.1-0.4c0,0.1,0.1,0.2,0.1,0.3C282.8,380.1,282.7,380.2,282.7,380.2z"/>
		<path class="st13" d="M282.2,380.7c0.2-0.2,0.3-0.3,0.5-0.5C282.5,380.4,282.3,380.5,282.2,380.7z"/>
		<path class="st13" d="M255.4,378.3c2.1-0.4,3.4,1.3,4.9,2.1c3.5,1.8,7.1,2.7,11,2.2c0.3,0,0.7,0.2,1.1,0.4
			C265.9,384.7,260.4,382.2,255.4,378.3z"/>
		<path class="st13" d="M265.6,366c0.2,1.1-0.5,2.4,0.6,3.4c0.7,0.6,0.8,1.1,0,1.7c-0.9,0.6-1.1-0.2-1.4-0.6
			c-0.4-0.6-0.9-1.2-1.6-1.4c0.3-0.6,0.7-1.2,0.5-1.9C264.5,367.1,265.1,366.6,265.6,366z"/>
		<path class="st11" d="M252,367c-0.2-0.5-0.3-0.9-0.5-1.4C251.8,366,253,366.2,252,367z"/>
		<path class="st13" d="M255,378.3c0.1-0.1,0.2-0.2,0.3-0.3c0,0.1,0.1,0.3,0.1,0.4c0,0-0.2,0-0.2,0S255,378.3,255,378.3z"/>
		<path class="st11" d="M248.6,367.6c-0.2,0.3-0.4,0.2-0.5-0.1C248.3,367.5,248.5,367.6,248.6,367.6z"/>
	</g>
	<path class="st0" d="M394.6,310c-10.9,0-21.1,0-31.4,0c-0.6,0-1.4-0.5-1.9-1c-19.1-22-38.1-44.1-57.2-66.2
		c-16.7-19.4-33.3-38.8-50-58.2c-16.7-19.3-33.4-38.5-50.1-57.7c-1.5-1.7-3-3.5-4.7-5.3c-4.9,5.6-9.8,11.1-14.7,16.8
		c-11.3,13-22.6,26.1-33.9,39.1c-11.2,12.9-22.4,25.9-33.6,38.8c-12.5,14.4-24.9,28.9-37.4,43.4c-10.9,12.7-21.9,25.4-32.8,38.1
		c-3.2,3.7-6.4,7.5-9.7,11.1c-0.5,0.6-1.4,1.1-2.1,1.1c-10.1,0.1-20.2,0-30.2,0c-0.1,0-0.2-0.1-0.6-0.3
		c64.9-75.3,129.8-150.6,194.9-226.2C264.6,159,329.4,234.3,394.6,310z"/>
	<path class="st0" d="M199.5,46.6c-31.6,36.6-62.9,73-94.4,109.5c-5.4-6.3-10.7-12.4-16.2-18.7c36.8-42.8,73.6-85.6,110.6-128.6
		c36.9,43,73.6,85.8,110.4,128.7c-5.3,6.2-10.6,12.3-16,18.6C262.3,119.5,231,83.2,199.5,46.6z"/>
</g>
</svg>
