<svg id="Layer_1" data-name="Layer 1" xmlns="http://www.w3.org/2000/svg" viewBox="0 0 774 242"><path d="M96.62,23A3.33,3.33,0,0,1,98,24.07a8,8,0,0,1,.57,2.2L100.3,45c0,.28-.23.47-.7.57a.82.82,0,0,1-1-.43q-3.69-11.62-11-17.74T69.51,21.3A33.84,33.84,0,0,0,51,26.48a34.37,34.37,0,0,0-12.7,14.9Q33.74,51.1,33.75,64a51.73,51.73,0,0,0,4.83,22.77,37.75,37.75,0,0,0,13.19,15.54,33.48,33.48,0,0,0,18.88,5.53q10.35,0,17.24-5.46T100,85c.09-.29.38-.38.85-.29s.71.24.71.43l-1.84,17a4.58,4.58,0,0,1-.5,2.13,5,5,0,0,1-1.49,1,70.57,70.57,0,0,1-27.1,5.25,61.68,61.68,0,0,1-27.11-5.75A44.43,44.43,0,0,1,25,88.64a43.5,43.5,0,0,1-6.67-23.91,42.16,42.16,0,0,1,7-23.84,46.9,46.9,0,0,1,19-16.39,60.58,60.58,0,0,1,27-5.89Q87,18.61,96.62,23Z" fill="#fff"/><path d="M137.2,96.8a17.07,17.07,0,0,0,.64,5.53,3.63,3.63,0,0,0,2.48,2.27,22.22,22.22,0,0,0,6,.57h8.52q10.06,0,17-5.61a26.71,26.71,0,0,0,9.23-15.11c.09-.28.38-.4.85-.36s.71.22.71.5q-1.28,13.35-1.28,22.14a2.51,2.51,0,0,1-.42,1.63,2.23,2.23,0,0,1-1.71.5H112.79c-.19,0-.28-.29-.28-.85s.09-.86.28-.86a25.24,25.24,0,0,0,7-.7,4.51,4.51,0,0,0,3-2.77,19,19,0,0,0,.78-6.32V31.66a18.3,18.3,0,0,0-.78-6.24,4.7,4.7,0,0,0-3-2.77,23,23,0,0,0-7-.78c-.19,0-.28-.28-.28-.85s.09-.85.28-.85l7.24.14q6.24.29,10.22.28,4.25,0,10.5-.28l7.09-.14c.29,0,.43.28.43.85s-.14.85-.43.85a22.22,22.22,0,0,0-6.88.78,4.68,4.68,0,0,0-3,2.84,19,19,0,0,0-.78,6.31Z" fill="#fff"/><path d="M286.62,108c0,.56-.23.85-.71.85-1.79,0-4.68-.1-8.65-.29s-6.86-.28-8.66-.28c-2.36,0-5.16.09-8.37.28s-5.73.29-7.52.29c-.38,0-.57-.29-.57-.85s.19-.86.57-.86a14.64,14.64,0,0,0,6-.92,3.13,3.13,0,0,0,1.91-3q0-2.13-2.41-7.24L247.46,74.09H213.12l-6.81,15.33a19.36,19.36,0,0,0-1.85,7.66A8.66,8.66,0,0,0,208,104.6q3.54,2.55,9.93,2.55c.47,0,.71.29.71.86s-.24.85-.71.85q-2.55,0-7.38-.29c-3.59-.19-6.72-.28-9.36-.28s-5.54.09-8.94.28q-4.55.29-7.52.29c-.48,0-.71-.29-.71-.85s.23-.86.71-.86a13.06,13.06,0,0,0,6.67-1.56,16.57,16.57,0,0,0,5.25-5.6,101.58,101.58,0,0,0,6.1-12l30.51-68.68c.19-.29.61-.43,1.27-.43s1,.14,1.14.43l34.77,70.1q5,10.22,8.3,14t7.16,3.76C286.39,107.15,286.62,107.44,286.62,108ZM214.68,70.54h31.07L229.44,37.48Z" fill="#fff"/><path d="M366.37,21c0,.57-.09.85-.28.85q-4.68,0-10.64,4.9A49.39,49.39,0,0,0,344.8,39.32L328.63,65.58V97.36a18.94,18.94,0,0,0,.78,6.39,4.49,4.49,0,0,0,3,2.7,25.11,25.11,0,0,0,7,.7c.29,0,.43.29.43.86s-.14.85-.43.85q-4.68,0-7.24-.14l-10.35-.15-10.22.15c-1.9.09-4.4.14-7.52.14-.19,0-.29-.29-.29-.85s.1-.86.29-.86a25.21,25.21,0,0,0,7-.7,4.71,4.71,0,0,0,3-2.77,17.5,17.5,0,0,0,.85-6.32V68.13L293.43,35.21q-4.81-7.51-8.3-10.43c-2.32-1.94-4.56-2.91-6.74-2.91-.28,0-.42-.28-.42-.85s.14-.85.42-.85l4.69.14c2.08.19,3.59.28,4.54.28q4.81,0,13.62-.28l8.8-.14c.19,0,.28.28.28.85s-.09.85-.28.85c-3.88,0-5.82,1.33-5.82,4a8.5,8.5,0,0,0,1.7,4.54L326.5,62,341,38.33q3.55-5.82,3.55-10.22,0-6.24-7.81-6.24c-.19,0-.28-.28-.28-.85s.09-.85.28-.85l7.38.14q6,.29,10.93.28,2.42,0,5.82-.28l5.25-.14C366.28,20.17,366.37,20.45,366.37,21Z" fill="#fff"/><path d="M482.88,108c0,.56-.1.85-.29.85q-4.68,0-7.52-.14l-10.22-.15-9.93.15c-1.7.09-4.12.14-7.24.14-.19,0-.28-.29-.28-.85s.09-.86.28-.86c4.16,0,7-.47,8.38-1.41s2.12-2.94,2.12-6L458,97.36,455.2,37.2,425,107.86a1.15,1.15,0,0,1-1.14.57,1.74,1.74,0,0,1-1.27-.57l-35.48-70.1-1.28,53.93q-.13,7.52,2.91,11.49t9.16,4c.28,0,.42.29.42.86s-.14.85-.42.85q-3.84,0-6-.14l-7.81-.15-8.37.15q-2.13.14-6,.14c-.29,0-.43-.29-.43-.85s.14-.86.43-.86q5.82,0,9-4t3.33-11.49l1.28-61A19.72,19.72,0,0,0,377.8,24a12,12,0,0,0-7-2.13c-.28,0-.42-.28-.42-.85s.14-.85.42-.85l6.1.14c1.23.09,2.84.14,4.83.14l6.67-.14a24.47,24.47,0,0,1,2.84-.14,3.72,3.72,0,0,1,3,1.35,39.47,39.47,0,0,1,3.54,6L429,88.42l28.24-64.71A6.93,6.93,0,0,1,459,21a3.77,3.77,0,0,1,2.41-.78c.66,0,1.51,0,2.55.14s2.32.14,3.83.14l7.67-.14c1.22-.09,3.07-.14,5.53-.14.19,0,.28.28.28.85s-.09.85-.28.85q-6.81,0-9.86,2.48t-2.77,8.16l3.12,64.85a20.85,20.85,0,0,0,1.14,6.39,4.71,4.71,0,0,0,3,2.7,24.35,24.35,0,0,0,6.95.7C482.78,107.15,482.88,107.44,482.88,108Z" fill="#fff"/><path d="M514.45,104.39a42.34,42.34,0,0,1-15.9-16.75A48.5,48.5,0,0,1,493,64.58q0-14.61,7.38-25a46.18,46.18,0,0,1,18.94-15.68,56.64,56.64,0,0,1,23.63-5.25,44.14,44.14,0,0,1,23.7,6.31,42.9,42.9,0,0,1,15.68,16.67,46.52,46.52,0,0,1,5.46,22,43.51,43.51,0,0,1-6.81,23.7,49,49,0,0,1-18.23,17,50.88,50.88,0,0,1-24.77,6.24A44.78,44.78,0,0,1,514.45,104.39ZM558,102.54q6.74-4.61,10.65-13.55t3.9-21.28a60.35,60.35,0,0,0-4.33-23.42,37.13,37.13,0,0,0-12.35-16.18,31.19,31.19,0,0,0-18.8-5.81q-13.77,0-21.36,9.86t-7.59,27.31a63.9,63.9,0,0,0,4.47,24.41Q517.07,94.82,525,101a28.07,28.07,0,0,0,17.81,6.17A26.33,26.33,0,0,0,558,102.54Z" fill="#fff"/><path d="M694.31,108c0,.56-.14.85-.43.85H671q-3.27,0-12.13-11.36t-21.5-31.78c-2.09.19-3.69.28-4.83.28q-3.12,0-7.38-.28V97.36a18.94,18.94,0,0,0,.78,6.39,4.51,4.51,0,0,0,3,2.7,25.24,25.24,0,0,0,7,.7c.19,0,.28.29.28.86s-.09.85-.28.85c-3.12,0-5.54,0-7.24-.14l-10.5-.15-10.22.15c-1.8.09-4.25.14-7.38.14-.28,0-.42-.29-.42-.85s.14-.86.42-.86a25.24,25.24,0,0,0,7-.7,4.74,4.74,0,0,0,3.05-2.77,17.5,17.5,0,0,0,.85-6.32V31.66a18.3,18.3,0,0,0-.78-6.24,4.7,4.7,0,0,0-3-2.77,23,23,0,0,0-7-.78c-.19,0-.28-.28-.28-.85s.09-.85.28-.85l7.38.14q6.26.29,10.08.28,4.68,0,10.22-.42c1.23-.1,2.71-.19,4.47-.29s3.71-.14,5.89-.14q12.34,0,19.08,4.83a15.64,15.64,0,0,1,6.74,13.48,24.08,24.08,0,0,1-4.33,14.05A30.78,30.78,0,0,1,648.76,62q11.63,17.18,19.44,26.82t13.84,14q6,4.32,11.84,4.32C694.17,107.15,694.31,107.44,694.31,108ZM633.43,62.46q9.23,0,13.2-4.62t4-14.83q0-11.49-3.9-16t-11.28-4.54c-3.69,0-6.31.68-7.88,2.06S625.2,28.35,625.2,32V61.89A50.82,50.82,0,0,0,633.43,62.46Z" fill="#fff"/><path d="M762.56,86.44a1.47,1.47,0,0,1,.78.21c.24.14.36.26.36.35a151.59,151.59,0,0,0-1.42,19.73,2.45,2.45,0,0,1-.43,1.63,2.21,2.21,0,0,1-1.7.5H698.57c-.29,0-.43-.29-.43-.85s.14-.86.43-.86a25.21,25.21,0,0,0,7-.7,4.49,4.49,0,0,0,3-2.77,19,19,0,0,0,.78-6.32V31.66a18.3,18.3,0,0,0-.78-6.24,4.7,4.7,0,0,0-3.05-2.77,23,23,0,0,0-6.95-.78c-.29,0-.43-.28-.43-.85s.14-.85.43-.85h59c.94,0,1.42.42,1.42,1.27l.28,18.45c0,.19-.26.33-.78.43s-.83,0-.92-.29q-3.4-16.17-19.73-16.17H732.2q-5.12,0-7.24,1.84T722.83,32V60.89h13.62q15.62,0,15.61-10.5,0-.42.78-.42t.78.42l-.14,12.35.14,6.67q.28,4.55.29,7.38c0,.19-.29.28-.85.28s-.85-.09-.85-.28q0-12.21-15.9-12.21H722.83V96.8q0,4.68,1.77,6.52c1.19,1.23,3.29,1.85,6.32,1.85h7q19,0,24.13-18.45C762,86.53,762.18,86.44,762.56,86.44Z" fill="#fff"/><path d="M368.43,218.7c-.05.52-.21.78-.49.78H347.22q-4.39,0-15.47-7.95-10.78,9.66-27.67,9.65-9.51,0-15.89-2.91a21.91,21.91,0,0,1-9.51-7.59,17.82,17.82,0,0,1-3.12-10.07,19,19,0,0,1,4.82-12.92,91.41,91.41,0,0,1,14.19-12.48q-2-3.12-4.26-7.1a51.54,51.54,0,0,1-3.05-7.73,26.77,26.77,0,0,1-1.06-7.59A25.63,25.63,0,0,1,289.39,140a23,23,0,0,1,9.08-8.94,27.87,27.87,0,0,1,13.7-3.26q8.22,0,13.27,3.62t5,10.57a17.63,17.63,0,0,1-3.19,10.29,33.57,33.57,0,0,1-7.45,7.8q-4.26,3.19-12.77,8.87,10.35,15.75,29.37,30.65a42.27,42.27,0,0,0,2.27-14q0-7.24-2.48-10.58t-8.58-3.33c-.19,0-.31-.28-.36-.85s.07-.85.36-.85l32.49-.15c.29,0,.43.29.43.86s-.14.85-.43.85a18.67,18.67,0,0,0-6.67.92,6.09,6.09,0,0,0-3.26,2.84,33,33,0,0,0-2.13,6.17q-3.69,12.92-8.51,20.58a147.55,147.55,0,0,0,16.53,10.71q7.44,4,11.85,5C368.31,217.87,368.48,218.18,368.43,218.7Zm-38.95-9q-2.84-2.13-5-3.83a192.85,192.85,0,0,1-15.32-13.7,134,134,0,0,1-13.06-14.83Q288,184.71,288,193.51a19.61,19.61,0,0,0,3.13,10.65,22.16,22.16,0,0,0,8.94,7.94,28.77,28.77,0,0,0,13.34,3A24.31,24.31,0,0,0,329.48,209.69Zm-23.84-43.14a43.07,43.07,0,0,0,8.8-10.22,22.35,22.35,0,0,0,3.12-11.63q0-6.24-3.05-9.79a10.06,10.06,0,0,0-8-3.55q-8.65,0-8.65,11.35Q297.84,153.64,305.64,166.55Z" fill="#fff"/><path d="M485.57,133.63a3.39,3.39,0,0,1,1.42,1.06,8.18,8.18,0,0,1,.57,2.2l1.7,18.73c0,.29-.24.48-.71.57a.81.81,0,0,1-1-.42q-3.69-11.64-11-17.74t-18.09-6.1A33.75,33.75,0,0,0,440,137.11,34.34,34.34,0,0,0,427.25,152q-4.54,9.74-4.54,22.64a51.84,51.84,0,0,0,4.82,22.77A37.85,37.85,0,0,0,440.73,213a33.45,33.45,0,0,0,18.87,5.54q10.36,0,17.25-5.47T489,195.64c.09-.28.38-.38.85-.28s.71.23.71.42l-1.85,17a4.54,4.54,0,0,1-.49,2.13,5,5,0,0,1-1.49,1,70.62,70.62,0,0,1-27.11,5.25,61.66,61.66,0,0,1-27.1-5.74,44.46,44.46,0,0,1-18.59-16.18,43.37,43.37,0,0,1-6.67-23.91,42.25,42.25,0,0,1,6.95-23.84,47,47,0,0,1,19-16.39,60.58,60.58,0,0,1,27-5.89Q475.92,129.23,485.57,133.63Z" fill="#fff"/><path d="M525.66,215a42.22,42.22,0,0,1-15.89-16.74,48.45,48.45,0,0,1-5.61-23.06q0-14.62,7.38-25.05a46.22,46.22,0,0,1,18.95-15.68,56.59,56.59,0,0,1,23.62-5.25,44.23,44.23,0,0,1,23.7,6.31,42.78,42.78,0,0,1,15.68,16.68,46.49,46.49,0,0,1,5.46,22,43.51,43.51,0,0,1-6.81,23.7,48.94,48.94,0,0,1-18.23,17,50.84,50.84,0,0,1-24.76,6.24A44.72,44.72,0,0,1,525.66,215Zm43.57-1.84q6.74-4.62,10.64-13.56t3.9-21.28a60.2,60.2,0,0,0-4.33-23.42,37.08,37.08,0,0,0-12.34-16.17,31.18,31.18,0,0,0-18.81-5.82q-13.75,0-21.35,9.86t-7.59,27.32a63.85,63.85,0,0,0,4.47,24.4q4.47,10.94,12.34,17.1A28.1,28.1,0,0,0,554,217.78,26.44,26.44,0,0,0,569.23,213.17Z" fill="#fff"/><path d="M634.85,207.42a17.31,17.31,0,0,0,.64,5.53,3.62,3.62,0,0,0,2.49,2.27,22.17,22.17,0,0,0,6,.57h8.51q10.08,0,17-5.6a26.76,26.76,0,0,0,9.22-15.12c.1-.28.38-.4.85-.35s.71.21.71.49Q679,208.56,679,217.35a2.51,2.51,0,0,1-.43,1.63,2.17,2.17,0,0,1-1.7.5H610.45c-.19,0-.29-.28-.29-.85s.1-.85.29-.85a25.12,25.12,0,0,0,7-.71,4.47,4.47,0,0,0,3-2.77,19,19,0,0,0,.78-6.31V142.28a18.37,18.37,0,0,0-.78-6.24,4.73,4.73,0,0,0-3.05-2.77,22.91,22.91,0,0,0-6.95-.78c-.19,0-.29-.28-.29-.85s.1-.85.29-.85l7.23.14c4.17.19,7.57.29,10.22.29q4.26,0,10.5-.29l7.1-.14c.28,0,.42.28.42.85s-.14.85-.42.85a22.18,22.18,0,0,0-6.88.78,4.7,4.7,0,0,0-3,2.84,19,19,0,0,0-.78,6.32Z" fill="#fff"/><path d="M695.09,139.09q-5.61,5.32-8.58,16.11c0,.19-.26.28-.78.28s-.78-.14-.78-.42q.56-5.53,1.27-14.27t.71-13.12c0-.47.26-.71.78-.71s.78.24.78.71q0,3.12,8,3.12,12.21.42,28.52.43,8.37,0,17.74-.29l9.65-.14a31.15,31.15,0,0,0,7.88-.71,4.36,4.36,0,0,0,3.19-2.84.76.76,0,0,1,.85-.57c.47,0,.71.2.71.57q-.42,4.41-.85,13.34t-.43,14.48q0,.42-.78.42c-.52,0-.83-.14-.92-.42q-1.43-10.94-6.67-16.11t-14.19-5.18a18.22,18.22,0,0,0-5.89.71A4,4,0,0,0,732.7,137a17.81,17.81,0,0,0-.64,5.61V208a17.36,17.36,0,0,0,.85,6.38,4.81,4.81,0,0,0,3.4,2.7,33.32,33.32,0,0,0,8.09.71c.29,0,.43.28.43.85s-.14.85-.43.85q-5,0-7.8-.14L725,219.2l-11.07.14c-2,.09-4.73.14-8.23.14-.19,0-.28-.28-.28-.85s.09-.85.28-.85a34.21,34.21,0,0,0,8.16-.71,5.06,5.06,0,0,0,3.55-2.77,16.38,16.38,0,0,0,.92-6.31V142.28a14.91,14.91,0,0,0-.71-5.39,4.28,4.28,0,0,0-2.55-2.41,17,17,0,0,0-5.68-.71Q700.7,133.77,695.09,139.09Z" fill="#fff"/></svg>