<svg id="Layer_1" data-name="Layer 1" xmlns="http://www.w3.org/2000/svg" viewBox="0 0 1389 301"><path d="M1389.43,353.06V213.9c-6.13-2.22-12.26-4.27-18.26-6.66-14.89-5.9-28.53-14.07-41.67-23.13-11.18-7.7-22.24-15.6-33.68-22.9q-17.67-11.28-36-21.52c-20.84-11.63-41.71-23.25-62.94-34.15-20.41-10.48-41.51-19.51-63.71-25.61-6.32-1.74-12.81-2.94-19.28-4.07-5.87-1-10.7,1.43-14.86,5.44-6.38,6.16-10.08,14-13.26,22-8,20.41-12.34,41.81-15.19,63.42-3.71,28-6.48,56.21-9.71,84.31-1,9.09-2.16,18.18-3.51,27.23-.8,5.34-2.8,8.6-8.59,3.23-7-6.5-13.92-13.15-20.49-20.09-14.18-15-28.06-30.26-42.16-45.33q-20.22-21.6-40.67-43C942,169.5,938,166.37,934,162.8c-1.71,3.37-.85,6.24-.29,9,2.47,12.14,7.37,23.35,13.09,34.28,6.62,12.67,16.57,22.39,27.1,31.66q18.81,16.56,37.63,33.14a21.92,21.92,0,0,1,3.37,4c1.77,2.54.7,4.87-2.37,4.59a93.18,93.18,0,0,1-14-2.27c-26.8-6.63-53.61-13.25-80.33-20.21-22.47-5.86-45.3-8.18-68.45-8.48-15.31-.2-30.63-.67-45.91-1.56a51.84,51.84,0,0,1-23.52-6.72c-5.42-3.17-6.58-8.35-5-13.92.69-2.45,1.84-4.78,2.91-7.49-3.81,1.77-7.42,3.53-11.09,5.12A31.53,31.53,0,0,1,761,226c-2.76.58-4.08-.27-4.22-3.06a133.14,133.14,0,0,1,0-14.95A1205.85,1205.85,0,0,1,770.84,87.54c2.48-15.1,5.21-30.18,10-44.78a36.68,36.68,0,0,1,3-6.84c2.55-4.46,6.07-5.22,9.77-1.58,5,4.93,10.14,10,14.13,15.7,13.39,19.26,26.27,38.88,39.41,58.32q16.41,24.28,33,48.47a43.63,43.63,0,0,0,4.67,5.51c3.55,3.71,4,3.87,8.61,1.74,6.55-3.05,13.15-6,19.47-9.52C933.48,143.15,954,131.39,974.63,120c21-11.53,42-23,63.25-34,8.74-4.56,18.11-7.87,27-12.08a169.63,169.63,0,0,0,17.29-9.37c5.11-3.17,5.1-5.6-.21-8.27A70.06,70.06,0,0,0,1065.58,50c-24.23-5.25-48.48-10.51-72.89-14.8-22.52-4-45.21-7-67.91-9.85-29-3.64-58.18-5.66-87.45-4.65-14.55.5-29.06,1.75-43,6.3-6,1.94-11.61,4.46-16.23,8.9a18,18,0,0,0-5.63,13.17c-.59,35-7.78,68.83-19.31,101.8a216.2,216.2,0,0,1-14.87,33.69c-5,8.91-10.4,17.56-18.47,24.15-4.49,3.68-9.41,6.19-15.43,5.95-25-1-50.1-1.42-75.09-3.11q-47.44-3.21-94.76-8.16c-25.64-2.69-51.17-6.45-76.71-10.06-31.05-4.38-62-9.65-93.11-13.47-21-2.59-42.27-3.8-63.46-4.73-16.53-.71-33.16-.69-49.68.19-19.5,1-39,2.7-58.38,5.29-22,3-44.06,6.62-65.84,11.12-22.41,4.63-44.64,10.25-66.76,16.15-19.78,5.28-39.3,11.52-58.93,17.33-.55.17-1.13.25-1.7.37v-3.5c9.43-2.94,18.78-6.12,28.28-8.77,21.41-6,42.78-12.12,64.36-17.39,19.75-4.82,39.65-9.14,59.67-12.68,20.6-3.64,41.37-6.52,62.16-8.89,15-1.71,30.19-2.29,45.32-2.94A552,552,0,0,1,341,173.75c25.81,2.7,51.55,6.18,77.26,9.72,19.12,2.63,38.12,6.13,57.23,8.82q30.53,4.29,61.17,7.71,29.65,3.3,59.41,5.62c20.73,1.63,41.51,2.88,62.28,4,14.38.76,28.79.78,43.17,1.56,8.16.44,14.22-3,19.56-8.57A92.75,92.75,0,0,0,736,181.21C750,154.37,758.46,125.66,764,96a281.27,281.27,0,0,0,4.84-47.12c.19-10.76,6.61-17.17,15.44-21.72C792.36,23,801.1,21,810,19.61c24.17-3.75,48.46-3.17,72.75-1.7,39,2.38,77.65,7.74,116.11,14.51,24.1,4.24,48.19,8.61,71.77,15.22a63.42,63.42,0,0,1,14.74,6.46c5.55,3.26,5.72,8.52.43,12.23a111.94,111.94,0,0,1-15.92,9.2c-13.73,6.53-27.84,12.27-41.39,19.14-15.86,8-31.33,16.85-46.88,25.48-23.26,12.9-46.41,26-69.69,38.85-5.81,3.21-11.92,5.87-17.9,8.75-4.14,2-7.93,1.76-10.92-2.09-6.06-7.8-12.5-15.36-18-23.55-15.62-23.29-30.63-47-46.31-70.23-7.2-10.66-15.35-20.69-23.21-30.9-1.38-1.8-3.42-3.12-5.23-4.57-1.29-1-2.51-.9-3.12.81-2,5.61-4.61,11.11-5.83,16.89-3.4,16-6.85,32.08-9.14,48.28-3.86,27.35-7,54.79-10.09,82.24-1.25,11.23-1.48,22.58-2.13,33.88a40.14,40.14,0,0,0,.34,4.6c6.26-3,11.94-5.85,17.78-8.34,4.08-1.75,6.19-5.31,9-8.32,6.58-7.15,13.07-14.43,20.07-21.15a183.5,183.5,0,0,1,35.38-27.11,77.5,77.5,0,0,1,10.92-4.75,4.94,4.94,0,0,1,5.72,1.23,4.43,4.43,0,0,1,.4,5.78,62.44,62.44,0,0,1-7.55,9.46c-9.52,9.15-20.35,16.65-31.45,23.69-11.3,7.17-23,13.71-34.26,20.92-2.37,1.52-3.9,4.61-5.33,7.25-1.69,3.11-3.16,6.43-2.69,10.19a6.17,6.17,0,0,0,3.14,4.77c9.15,5.6,19.42,6.84,29.74,7.26,15.88.65,31.79.79,47.69,1.12A276.11,276.11,0,0,1,923,254.44c25.51,6.64,51.11,13,76.69,19.36a55.51,55.51,0,0,0,11.05,1.62,15.86,15.86,0,0,0-1.47-1.7c-7.19-6.42-14.38-12.85-21.63-19.21-11.75-10.32-24-20.09-34.2-32.06-6-7-10.38-15.07-14.18-23.42-4.34-9.52-8.23-19.23-9.52-29.73a18.17,18.17,0,0,1,.33-6.41c.81-3.31,3.59-4.33,6.31-2.31a71.55,71.55,0,0,1,9.15,7.66q22.66,23.58,45.09,47.39c15.46,16.42,30.73,33,46.22,49.4,4.73,5,9.93,9.58,14.92,14.34.29.27.65.47,1.47,1.07.59-3,1.33-5.58,1.61-8.23q2.65-24.58,5.12-49.17c3.29-32.22,6.86-64.4,14.59-95.93,3.27-13.32,7.26-26.43,14.26-38.39,3.44-5.9,7.65-11.09,13.75-14.42a19.59,19.59,0,0,1,12.59-1.94c17.89,2.69,34.82,8.62,51.47,15.42a584.59,584.59,0,0,1,66.59,32.65c22,12.44,43.83,25.17,65.34,38.41,14.29,8.8,27.82,18.84,41.82,28.12A180,180,0,0,0,1387,209.11c.77.24,1.56.39,2.6.64V-12.2c0-.91-.09-1.83-.13-2.74.17.08.47.16.48.25,0,.67,0,1.33,0,2q0,181.76,0,363.5A10.64,10.64,0,0,1,1389.43,353.06Z"/></svg>