<svg id="Layer_1" data-name="Layer 1" xmlns="http://www.w3.org/2000/svg" viewBox="0 0 2160 626"><path d="M229.82,413.42H202.31q-7.44,0-7.43-7.64V131.89q0-7.65,7.43-7.65H304.5q31.88,0,50,18.67t18.13,51.49v37.78q0,51.72-41.49,65.21v1.8l48.47,105.24q4.8,9-5.67,9H346.87q-10.49,0-13.54-7.64L286.6,302.34H242.49c-3.5,0-5.24,1.5-5.24,4.49v98.95Q237.25,413.43,229.82,413.42Zm12.23-147.06h55.47q32.31,0,32.32-32.83V195.75q0-33.27-32.32-33.28H242.05c-3.21,0-4.8,1.51-4.8,4.5v94.89C237.25,264.86,238.84,266.36,242.05,266.36Z" fill="#e5343a"/><path d="M636.43,413.42H496.67q-7.44,0-7.43-7.64V131.89q0-7.65,7.43-7.65H636.43q7,0,7,7.65v22.94q0,7.65-7,7.64H536.85c-3.5,0-5.24,1.51-5.24,4.5v76c0,3,1.74,4.5,5.24,4.5h84.29q7.86,0,7.86,7.65v22.93q0,7.65-7.86,7.65H536.85c-3.5,0-5.24,1.5-5.24,4.5v80.05c0,3.3,1.74,4.94,5.24,4.94h99.58c4.65,0,7,2.56,7,7.65v22.94Q643.41,413.43,636.43,413.42Z" fill="#e5343a"/><path d="M756.53,405.78V131.89q0-7.65,7.42-7.65H871.39q31.88,0,50,18.22T939.52,194V343.71q0,32.84-18.12,51.27t-50,18.44H764Q756.53,413.42,756.53,405.78Zm47.17-30.59h61.58q31.44,0,31.44-33.28V195.75q0-33.27-31.44-33.28H803.7c-3.21,0-4.81,1.51-4.81,4.5V370.25C798.89,373.55,800.49,375.19,803.7,375.19Z" fill="#e5343a"/><path d="M1170.56,413.42h-50.67q-32.33,0-50-18.44t-17.69-51.27V194q0-33.27,17.69-51.49t50-18.22h50.67q31.88,0,49.78,18.22T1238.25,194v21.59q0,8.1-7.86,8.1h-27.51q-7.44,0-7.43-8.1V195.75q0-33.27-31.44-33.28h-38q-31.46,0-31.45,33.28V341.91q0,33.3,31.45,33.28h38q31.44,0,31.44-33.28V322.13q0-8.1,7.43-8.1h27.51q7.86,0,7.86,8.1v21.58q0,32.84-17.91,51.27T1170.56,413.42Z" fill="#e5343a"/><path d="M1497.24,413.42H1357.48q-7.43,0-7.43-7.64V131.89q0-7.65,7.43-7.65h139.76c4.65,0,7,2.55,7,7.65v22.94c0,5.1-2.34,7.64-7,7.64h-99.58c-3.49,0-5.24,1.51-5.24,4.5v76q0,4.5,5.24,4.5H1482q7.86,0,7.86,7.65v22.93q0,7.65-7.86,7.65h-84.29q-5.23,0-5.24,4.5v80.05c0,3.3,1.75,4.94,5.24,4.94h99.58c4.65,0,7,2.56,7,7.65v22.94C1504.23,410.88,1501.89,413.42,1497.24,413.42Z" fill="#e5343a"/><path d="M1766.27,413.42H1624.76q-7.42,0-7.42-7.64V131.89q0-7.65,7.42-7.65h27.52q7.42,0,7.42,7.65V369.8c0,3,1.75,4.49,5.24,4.49h101.33q7.43,0,7.42,8.1v23.39Q1773.69,413.43,1766.27,413.42Z" fill="#e5343a"/><path d="M2020.45,413.42H1879q-7.44,0-7.43-7.64V131.89q0-7.65,7.43-7.65h27.51q7.43,0,7.43,7.65V369.8c0,3,1.74,4.49,5.24,4.49h101.32q7.42,0,7.43,8.1v23.39Q2027.88,413.43,2020.45,413.42Z" fill="#e5343a"/><path d="M223.4,465.71a10.08,10.08,0,0,1,3.15,7.55,11.21,11.21,0,0,1-1.83,6.25,12.73,12.73,0,0,1-5.08,4.44,15.94,15.94,0,0,1-7.23,1.62c-1.24,0-2.68-.07-4.31-.2-.55-.05-1.26-.09-2.12-.13s-1.82-.07-2.89-.07l-4.63.07c-.81,0-1.92.06-3.34.06-.13,0-.19-.13-.19-.4s.06-.39.19-.39a9.64,9.64,0,0,0,3.09-.37,2.37,2.37,0,0,0,1.44-1.29,7.44,7.44,0,0,0,.42-2.91V449.3a7.54,7.54,0,0,0-.42-2.88,2.39,2.39,0,0,0-1.41-1.32,9.62,9.62,0,0,0-3.05-.36c-.09,0-.13-.14-.13-.4s0-.4.13-.4l3.34.07c1.88.09,3.4.13,4.56.13a36.11,36.11,0,0,0,3.79-.2l1.71-.13c.66,0,1.42-.07,2.28-.07,3.81,0,6.72.76,8.74,2.25a7.49,7.49,0,0,1,3,6.36,9.11,9.11,0,0,1-2,5.72,13.14,13.14,0,0,1-5.66,4A14.05,14.05,0,0,1,223.4,465.71ZM207,445.93c-.49.57-.74,1.74-.74,3.51V462l2.7.06a6.72,6.72,0,0,0,5.72-2.54,10.67,10.67,0,0,0,1.93-6.59,8.75,8.75,0,0,0-1.74-5.82,6.28,6.28,0,0,0-5.08-2.05A3.59,3.59,0,0,0,207,445.93Zm13.08,28.92a12.22,12.22,0,0,0-2.54-8.08c-1.69-2-4.17-3-7.42-3-1.55,0-2.83,0-3.86.13v16.08a5.86,5.86,0,0,0,.39,2.38,2.47,2.47,0,0,0,1.47,1.29,9.38,9.38,0,0,0,3.28.43Q220.07,484,220.06,474.85Z"/><path d="M273.14,444.34c0,.26-.05.4-.13.4q-2.11,0-4.82,2.28a22.6,22.6,0,0,0-4.82,5.86L256,465.12v14.82a8.92,8.92,0,0,0,.36,3,2,2,0,0,0,1.35,1.26,11,11,0,0,0,3.18.33c.13,0,.19.13.19.39s-.06.4-.19.4c-1.42,0-2.51,0-3.28-.06l-4.69-.07-4.63.07c-.86,0-2,.06-3.4.06-.09,0-.13-.13-.13-.4s0-.39.13-.39a11.09,11.09,0,0,0,3.18-.33,2.16,2.16,0,0,0,1.38-1.29,8.36,8.36,0,0,0,.38-2.95V466.31L240.11,451a22.42,22.42,0,0,0-3.76-4.87,4.78,4.78,0,0,0-3.06-1.35c-.12,0-.19-.14-.19-.4s.07-.4.19-.4l2.13.07c.94.09,1.62.13,2.05.13,1.46,0,3.51,0,6.17-.13l4-.07c.09,0,.13.14.13.4s0,.4-.13.4c-1.75,0-2.63.62-2.63,1.85a4.09,4.09,0,0,0,.77,2.12l9.32,14.75,6.55-11a9.69,9.69,0,0,0,1.61-4.76q0-2.91-3.53-2.91c-.09,0-.13-.14-.13-.4s0-.4.13-.4l3.34.07c1.8.09,3.45.13,4.95.13.72,0,1.6,0,2.63-.13l2.38-.07C273.09,443.94,273.14,444.08,273.14,444.34Z"/><path d="M332.77,445.27a1.54,1.54,0,0,1,.65.49,4,4,0,0,1,.25,1l.77,8.73c0,.14-.1.23-.32.27a.37.37,0,0,1-.45-.2,17.19,17.19,0,0,0-5-8.27,12.11,12.11,0,0,0-8.19-2.85,15,15,0,0,0-8.39,2.42,15.85,15.85,0,0,0-5.75,6.95,25.33,25.33,0,0,0-2.06,10.55A24.71,24.71,0,0,0,306.49,475a17.52,17.52,0,0,0,6,7.25,14.8,14.8,0,0,0,8.54,2.58,11.93,11.93,0,0,0,7.81-2.55q3.12-2.55,5.49-8.11c.05-.13.18-.17.39-.13s.32.11.32.2l-.83,7.94a1.28,1.28,0,0,1-.9,1.46A31.23,31.23,0,0,1,321,486.1a27.32,27.32,0,0,1-12.27-2.68,20.31,20.31,0,0,1-8.42-7.55,20.72,20.72,0,0,1-3-11.15,20.14,20.14,0,0,1,3.15-11.12,21.5,21.5,0,0,1,8.61-7.64,26.8,26.8,0,0,1,12.21-2.75Q328.41,443.21,332.77,445.27Z"/><path d="M355.65,479.68a8.32,8.32,0,0,0,.29,2.58,1.67,1.67,0,0,0,1.12,1.06,10.16,10.16,0,0,0,2.7.26h3.86a11.68,11.68,0,0,0,7.71-2.61,12.54,12.54,0,0,0,4.18-7.05c0-.13.17-.19.38-.17s.32.1.32.24q-.57,6.21-.57,10.32a1.17,1.17,0,0,1-.2.76,1,1,0,0,1-.77.23H344.6c-.09,0-.13-.13-.13-.4s0-.39.13-.39a11.09,11.09,0,0,0,3.18-.33,2.07,2.07,0,0,0,1.35-1.29,9.3,9.3,0,0,0,.35-2.95V449.3a9,9,0,0,0-.35-2.91,2.16,2.16,0,0,0-1.38-1.29,10.25,10.25,0,0,0-3.15-.36c-.09,0-.13-.14-.13-.4s0-.4.13-.4l3.27.07c1.89.09,3.43.13,4.63.13s2.87,0,4.76-.13l3.21-.07c.13,0,.19.14.19.4s-.06.4-.19.4a10,10,0,0,0-3.12.36,2.18,2.18,0,0,0-1.35,1.32,9.34,9.34,0,0,0-.35,2.95Z"/><path d="M426.53,484.9c0,.27-.11.4-.32.4-.81,0-2.12,0-3.92-.13s-3.11-.13-3.92-.13c-1.07,0-2.34,0-3.79.13s-2.59.13-3.41.13c-.17,0-.25-.13-.25-.4s.08-.39.25-.39a6.41,6.41,0,0,0,2.73-.43,1.47,1.47,0,0,0,.87-1.42,9.73,9.73,0,0,0-1.09-3.38l-4.89-10.19H393.24l-3.08,7.15a9.27,9.27,0,0,0-.84,3.57,4.11,4.11,0,0,0,1.61,3.51,7.46,7.46,0,0,0,4.5,1.19c.21,0,.32.13.32.39s-.11.4-.32.4c-.77,0-1.89,0-3.34-.13-1.63-.09-3-.13-4.24-.13s-2.51,0-4.05.13c-1.38.09-2.51.13-3.41.13-.21,0-.32-.13-.32-.4s.11-.39.32-.39a5.75,5.75,0,0,0,3-.73,7.68,7.68,0,0,0,2.38-2.61,47.88,47.88,0,0,0,2.76-5.6l13.82-32c.08-.14.28-.2.58-.2s.47.06.51.2l15.75,32.69a31.35,31.35,0,0,0,3.75,6.51,4.32,4.32,0,0,0,3.25,1.76C426.42,484.51,426.53,484.64,426.53,484.9ZM394,467.43H408L400.63,452Z"/><path d="M465.86,444.34c0,.26,0,.4-.13.4q-2.12,0-4.82,2.28a22.8,22.8,0,0,0-4.82,5.86l-7.32,12.24v14.82a9,9,0,0,0,.35,3,2,2,0,0,0,1.35,1.26,11,11,0,0,0,3.18.33c.13,0,.19.13.19.39s-.06.4-.19.4c-1.41,0-2.51,0-3.28-.06l-4.69-.07-4.63.07c-.85,0-2,.06-3.4.06-.09,0-.13-.13-.13-.4s0-.39.13-.39a11,11,0,0,0,3.18-.33,2.16,2.16,0,0,0,1.38-1.29,8.32,8.32,0,0,0,.39-2.95V466.31L432.83,451a22.42,22.42,0,0,0-3.76-4.87,4.78,4.78,0,0,0-3.05-1.35c-.13,0-.2-.14-.2-.4s.07-.4.2-.4l2.12.07c.94.09,1.63.13,2.05.13q2.19,0,6.17-.13l4-.07c.08,0,.13.14.13.4s-.05.4-.13.4c-1.76,0-2.64.62-2.64,1.85a4.09,4.09,0,0,0,.77,2.12l9.32,14.75,6.56-11a9.66,9.66,0,0,0,1.6-4.76q0-2.91-3.53-2.91c-.09,0-.13-.14-.13-.4s0-.4.13-.4l3.34.07c1.8.09,3.45.13,5,.13.73,0,1.61,0,2.63-.13l2.38-.07C465.82,443.94,465.86,444.08,465.86,444.34Z"/><path d="M521.83,484.9c0,.27,0,.4-.13.4-1.41,0-2.55,0-3.4-.06l-4.63-.07-4.5.07q-1.16.06-3.27.06c-.09,0-.13-.13-.13-.4s0-.39.13-.39a7.41,7.41,0,0,0,3.79-.66c.64-.44,1-1.37,1-2.78l-.06-1.13-1.29-28.06-13.69,33a.49.49,0,0,1-.51.26.76.76,0,0,1-.58-.26l-16.06-32.69-.58,25.14a8.59,8.59,0,0,0,1.31,5.37,4.87,4.87,0,0,0,4.15,1.85c.13,0,.19.13.19.39s-.06.4-.19.4q-1.74,0-2.7-.06l-3.53-.07-3.8.07c-.64,0-1.54.06-2.69.06-.13,0-.2-.13-.2-.4s.07-.39.2-.39a4.9,4.9,0,0,0,4.08-1.85,9,9,0,0,0,1.51-5.37l.57-28.45a9.12,9.12,0,0,0-2.53-3.11,5.37,5.37,0,0,0-3.19-1c-.12,0-.19-.14-.19-.4s.07-.4.19-.4l2.77.07c.55,0,1.28.07,2.18.07l3-.07a11.22,11.22,0,0,1,1.29-.07,1.65,1.65,0,0,1,1.35.63,18.24,18.24,0,0,1,1.6,2.81l14.14,28.39L510.2,445.6a3.26,3.26,0,0,1,.84-1.29,1.69,1.69,0,0,1,1.09-.37c.3,0,.68,0,1.16.07s1,.07,1.73.07l3.47-.07c.56,0,1.39-.07,2.51-.07.08,0,.13.14.13.4s0,.4-.13.4a6.88,6.88,0,0,0-4.47,1.16,4.39,4.39,0,0,0-1.25,3.8l1.41,30.24a10,10,0,0,0,.52,3,2.12,2.12,0,0,0,1.35,1.26,10.63,10.63,0,0,0,3.14.33C521.79,484.51,521.83,484.64,521.83,484.9Z"/><path d="M539.34,483.22a19.48,19.48,0,0,1-7.19-7.81,23.05,23.05,0,0,1-2.54-10.75A20.08,20.08,0,0,1,533,453a21.14,21.14,0,0,1,8.58-7.32,25.06,25.06,0,0,1,10.7-2.45,19.5,19.5,0,0,1,17.83,10.73,22.18,22.18,0,0,1,2.48,10.25,20.68,20.68,0,0,1-3.09,11.05A22.8,22.8,0,0,1,550,486.1,19.85,19.85,0,0,1,539.34,483.22Zm19.73-.86a14.32,14.32,0,0,0,4.82-6.32,25.32,25.32,0,0,0,1.77-9.93,28.76,28.76,0,0,0-2-10.92,17.26,17.26,0,0,0-5.59-7.54,13.83,13.83,0,0,0-8.52-2.71,11.38,11.38,0,0,0-9.67,4.59q-3.43,4.61-3.44,12.74a30.64,30.64,0,0,0,2,11.39,19,19,0,0,0,5.59,8,12.51,12.51,0,0,0,8.06,2.88A11.73,11.73,0,0,0,559.07,482.36Z"/><path d="M624,484.9c0,.27-.06.4-.19.4H613.47Q612,485.3,608,480a169.66,169.66,0,0,1-9.74-14.83c-.94.09-1.67.14-2.18.14-.95,0-2.06-.05-3.35-.14v14.76a8.92,8.92,0,0,0,.36,3,2,2,0,0,0,1.35,1.26,11,11,0,0,0,3.18.33c.08,0,.13.13.13.39s-.05.4-.13.4c-1.42,0-2.51,0-3.28-.06l-4.76-.07-4.62.07c-.82,0-1.93.06-3.34.06-.13,0-.2-.13-.2-.4s.07-.39.2-.39a11.09,11.09,0,0,0,3.18-.33,2.16,2.16,0,0,0,1.38-1.29,8.36,8.36,0,0,0,.38-2.95V449.3a8.7,8.7,0,0,0-.35-2.91,2.14,2.14,0,0,0-1.38-1.29,10.25,10.25,0,0,0-3.15-.36c-.09,0-.13-.14-.13-.4s0-.4.13-.4L585,444c1.89.09,3.41.13,4.56.13,1.42,0,3-.06,4.63-.2l2-.13c.79,0,1.68-.07,2.66-.07,3.73,0,6.61.76,8.65,2.25a7.39,7.39,0,0,1,3.05,6.29,11.5,11.5,0,0,1-2,6.55,14,14,0,0,1-5.24,4.63q5.26,8,8.81,12.51a35.36,35.36,0,0,0,6.26,6.52,9,9,0,0,0,5.37,2C624,484.51,624,484.64,624,484.9Zm-27.57-21.24c2.79,0,4.78-.71,6-2.15s1.8-3.74,1.8-6.91q0-5.37-1.77-7.48a6.29,6.29,0,0,0-5.11-2.12,5.3,5.3,0,0,0-3.57,1,4.61,4.61,0,0,0-1.06,3.48v14A22.13,22.13,0,0,0,596.44,463.66Z"/><path d="M659.42,474.85a.62.62,0,0,1,.35.1c.11.06.16.12.16.16a72.7,72.7,0,0,0-.64,9.2,1.24,1.24,0,0,1-.19.76,1,1,0,0,1-.78.23H630.44c-.13,0-.2-.13-.2-.4s.07-.39.2-.39a11.09,11.09,0,0,0,3.18-.33,2.07,2.07,0,0,0,1.35-1.29,9.3,9.3,0,0,0,.35-2.95V449.3a9,9,0,0,0-.35-2.91,2.16,2.16,0,0,0-1.39-1.29,10.13,10.13,0,0,0-3.14-.36c-.13,0-.2-.14-.2-.4s.07-.4.2-.4h26.73c.43,0,.64.2.64.6l.13,8.6c0,.09-.12.16-.35.2s-.38,0-.42-.13q-1.54-7.54-8.93-7.55h-2.57a4.92,4.92,0,0,0-3.28.86,3.79,3.79,0,0,0-1,2.92v13.49h6.17c4.72,0,7.07-1.63,7.07-4.89,0-.13.12-.2.36-.2s.35.07.35.2l-.07,5.75.07,3.12c.08,1.41.13,2.55.13,3.44,0,.09-.13.13-.39.13s-.38,0-.38-.13q0-5.7-7.2-5.69h-6.11v15a4.43,4.43,0,0,0,.81,3,3.83,3.83,0,0,0,2.86.86h3.15q8.61,0,10.92-8.6C659.16,474.89,659.25,474.85,659.42,474.85Z"/><path d="M731.93,484.94c0,.24-.1.36-.23.36H722q-2,0-7.2-3.7-5,4.5-12.9,4.5a17.88,17.88,0,0,1-7.4-1.36,10.18,10.18,0,0,1-4.44-3.54,8.28,8.28,0,0,1-1.45-4.69,8.86,8.86,0,0,1,2.25-6,42.53,42.53,0,0,1,6.61-5.82c-.62-1-1.28-2.07-2-3.31a24.84,24.84,0,0,1-1.43-3.6,12.51,12.51,0,0,1-.49-3.54,11.84,11.84,0,0,1,1.49-6,10.74,10.74,0,0,1,4.23-4.17,13,13,0,0,1,6.38-1.52,10.3,10.3,0,0,1,6.18,1.69,5.68,5.68,0,0,1,2.35,4.93,8.16,8.16,0,0,1-1.49,4.79,15.84,15.84,0,0,1-3.47,3.64q-2,1.49-5.95,4.13A61.44,61.44,0,0,0,717,476a19.89,19.89,0,0,0,1.06-6.54,8.35,8.35,0,0,0-1.16-4.93c-.77-1-2.11-1.55-4-1.55-.09,0-.14-.14-.17-.4s0-.4.17-.4l15.14-.06c.13,0,.2.13.2.39s-.07.4-.2.4a8.62,8.62,0,0,0-3.11.43,2.89,2.89,0,0,0-1.52,1.32,15.33,15.33,0,0,0-1,2.88,37.73,37.73,0,0,1-4,9.59,68.59,68.59,0,0,0,7.71,5,23.25,23.25,0,0,0,5.52,2.35C731.88,484.55,732,484.7,731.93,484.94Zm-18.15-4.2c-.88-.66-1.65-1.26-2.32-1.79a90.82,90.82,0,0,1-7.14-6.38,62.45,62.45,0,0,1-6.08-6.91c-2.51,2.29-3.77,4.81-3.77,7.54a9.15,9.15,0,0,0,1.45,5,10.33,10.33,0,0,0,4.17,3.7,13.41,13.41,0,0,0,6.22,1.39A11.32,11.32,0,0,0,713.78,480.74Zm-11.11-20.1a20.12,20.12,0,0,0,4.1-4.77,10.38,10.38,0,0,0,1.45-5.42,6.75,6.75,0,0,0-1.42-4.56,4.69,4.69,0,0,0-3.73-1.65q-4,0-4,5.29Q699,454.62,702.67,460.64Z"/><path d="M793.13,445.29a1.6,1.6,0,0,1,.66.5,3.69,3.69,0,0,1,.27,1l.79,8.73c0,.14-.11.22-.33.27a.38.38,0,0,1-.46-.2,17.31,17.31,0,0,0-5.13-8.27,12.74,12.74,0,0,0-8.43-2.84,15.76,15.76,0,0,0-8.63,2.41,16,16,0,0,0-5.92,6.95,24.68,24.68,0,0,0-2.11,10.55A24.13,24.13,0,0,0,766.09,475a17.47,17.47,0,0,0,6.15,7.24,15.58,15.58,0,0,0,8.79,2.58,12.52,12.52,0,0,0,8-2.55,20.84,20.84,0,0,0,5.65-8.1c0-.13.18-.17.4-.13s.33.11.33.2l-.86,7.93a2.26,2.26,0,0,1-.23,1,2.51,2.51,0,0,1-.7.46A32.93,32.93,0,0,1,781,486.1a28.78,28.78,0,0,1-12.63-2.68,20.71,20.71,0,0,1-8.66-7.54,20.18,20.18,0,0,1-3.11-11.14,19.65,19.65,0,0,1,3.24-11.11,21.82,21.82,0,0,1,8.86-7.64,28.28,28.28,0,0,1,12.57-2.75Q788.64,443.24,793.13,445.29Z"/><path d="M815.12,483.22a19.78,19.78,0,0,1-7.41-7.8,22.63,22.63,0,0,1-2.61-10.75A19.7,19.7,0,0,1,808.54,453a21.56,21.56,0,0,1,8.83-7.31,26.38,26.38,0,0,1,11-2.45,20.48,20.48,0,0,1,11,2.95,19.9,19.9,0,0,1,7.31,7.77,21.59,21.59,0,0,1,2.55,10.25,20.24,20.24,0,0,1-3.18,11,22.78,22.78,0,0,1-8.5,7.94,23.63,23.63,0,0,1-11.54,2.91A20.86,20.86,0,0,1,815.12,483.22Zm20.3-.86a14.29,14.29,0,0,0,5-6.32,24.68,24.68,0,0,0,1.82-9.92,28,28,0,0,0-2-10.91,17.31,17.31,0,0,0-5.75-7.54,14.56,14.56,0,0,0-8.76-2.71,11.83,11.83,0,0,0-9.95,4.6q-3.54,4.59-3.54,12.73a29.72,29.72,0,0,0,2.08,11.37,19,19,0,0,0,5.75,8,13.11,13.11,0,0,0,8.3,2.88A12.3,12.3,0,0,0,835.42,482.36Z"/><path d="M869.31,479.68a8,8,0,0,0,.3,2.58,1.69,1.69,0,0,0,1.16,1.06,10.71,10.71,0,0,0,2.78.26h4a12.26,12.26,0,0,0,7.94-2.61,12.49,12.49,0,0,0,4.3-7c0-.14.17-.19.39-.17s.33.1.33.23q-.59,6.22-.59,10.32a1.17,1.17,0,0,1-.2.76,1,1,0,0,1-.79.23H857.94c-.09,0-.13-.13-.13-.39s0-.4.13-.4a11.62,11.62,0,0,0,3.27-.33,2.07,2.07,0,0,0,1.39-1.29A8.93,8.93,0,0,0,863,480V449.33a8.61,8.61,0,0,0-.36-2.91,2.19,2.19,0,0,0-1.42-1.29,10.77,10.77,0,0,0-3.24-.37c-.09,0-.13-.13-.13-.39s0-.4.13-.4l3.37.07c1.94.09,3.53.13,4.76.13s3,0,4.9-.13l3.3-.07c.14,0,.2.13.2.4s-.06.39-.2.39a10.34,10.34,0,0,0-3.2.37,2.15,2.15,0,0,0-1.39,1.32,8.62,8.62,0,0,0-.37,2.94Z"/><path d="M900.69,447.84a16.08,16.08,0,0,0-4,7.5c0,.09-.12.14-.36.14s-.37-.07-.37-.2q.27-2.58.6-6.65t.33-6.11q0-.33.36-.33c.24,0,.37.11.37.33,0,1,1.23,1.45,3.7,1.45q5.68.19,13.29.2,3.9,0,8.27-.13l4.49-.07a14.63,14.63,0,0,0,3.67-.33,2,2,0,0,0,1.49-1.32.36.36,0,0,1,.4-.27q.33,0,.33.27c-.13,1.36-.26,3.44-.4,6.21s-.2,5-.2,6.75c0,.13-.12.2-.36.2s-.39-.07-.43-.2q-.66-5.1-3.11-7.51a9,9,0,0,0-6.61-2.41,8.43,8.43,0,0,0-2.74.33,1.86,1.86,0,0,0-1.19,1.16,8.26,8.26,0,0,0-.3,2.61V480a8.26,8.26,0,0,0,.39,3,2.27,2.27,0,0,0,1.59,1.26,15.5,15.5,0,0,0,3.77.33c.13,0,.2.13.2.4s-.07.39-.2.39c-1.54,0-2.75,0-3.64-.06l-5.42-.07-5.16.07c-.92,0-2.2.06-3.83.06-.09,0-.13-.13-.13-.39s0-.4.13-.4a15.9,15.9,0,0,0,3.8-.33,2.32,2.32,0,0,0,1.65-1.29,7.52,7.52,0,0,0,.43-2.94V449.33a7.05,7.05,0,0,0-.33-2.52,2,2,0,0,0-1.19-1.12,7.83,7.83,0,0,0-2.64-.33A9.28,9.28,0,0,0,900.69,447.84Z"/></svg>